<svg width="1832" height="79" viewBox="0 0 1832 79" fill="none" xmlns="http://www.w3.org/2000/svg">
<mask id="mask0_702_2" style="mask-type:luminance" maskUnits="userSpaceOnUse" x="0" y="0" width="1832" height="79">
<path d="M1832 0H0V78.58H1832V0Z" fill="white"/>
</mask>
<g mask="url(#mask0_702_2)">
<path d="M40.51 15C23.08 15 8.95999 29.13 8.95999 46.55V78.58H72.06V46.55C72.06 29.13 57.93 15 40.51 15Z" fill="#FADCFF"/>
<path d="M123.95 15C106.52 15 92.4 29.13 92.4 46.55V78.58H155.5V46.55C155.5 29.13 141.37 15 123.95 15Z" fill="#FADCFF"/>
<path d="M207.39 15C189.96 15 175.84 29.13 175.84 46.55V78.58H238.94V46.55C238.94 29.13 224.81 15 207.39 15Z" fill="#FADCFF"/>
<path d="M36.57 33.87L38.15 30.08C39.02 28 41.98 27.99 42.85 30.08L44.43 33.87C45.62 36.7 47.87 38.95 50.7 40.14L54.49 41.72C56.58 42.59 56.58 45.55 54.49 46.42L50.7 48C47.87 49.18 45.62 51.44 44.43 54.27L42.85 58.05C41.98 60.14 39.02 60.14 38.15 58.05L36.57 54.26C35.39 51.43 33.14 49.18 30.3 47.99L26.51 46.41C24.42 45.54 24.42 42.58 26.51 41.71L30.29 40.13C33.12 38.95 35.37 36.69 36.56 33.86" fill="#E44EFF"/>
<path d="M139.81 46.89C139.81 50.48 136.9 53.39 133.31 53.39C129.22 53.39 126.81 49.85 123.95 49.85C121.09 49.85 118.68 53.39 114.59 53.39C111 53.39 108.09 50.48 108.09 46.89C108.09 43.3 111 40.39 114.59 40.39C115.2 40.39 115.86 40.53 116.46 40.72C118.18 41.26 119.14 40.56 118.3 38.87C117.81 37.89 117.45 36.81 117.45 35.63C117.45 32.04 120.36 29.13 123.95 29.13C127.54 29.13 130.45 32.04 130.45 35.63C130.45 36.81 130.09 37.89 129.6 38.87C128.76 40.56 129.72 41.26 131.46 40.71C132.05 40.52 132.7 40.39 133.31 40.39C136.9 40.39 139.81 43.3 139.81 46.89ZM123.95 53.63C121.65 53.63 118.15 57.04 118.15 57.81C118.15 58.57 121.01 59.01 123.95 59.01C126.89 59.01 129.75 58.58 129.75 57.8C129.75 57.03 126.25 53.62 123.95 53.62" fill="#27003A"/>
<path d="M223.29 40.19C223.29 48.38 212.15 56.09 207.39 56.09C202.63 56.09 191.49 48.38 191.5 40.19C191.5 36.95 192.85 32.67 196.99 32.11C200.3 31.67 202.79 33.97 204.18 36.7C205.06 38.42 206.07 39.24 207.39 39.24C208.71 39.24 209.75 38.44 210.6 36.75C211.99 33.98 214.48 31.67 217.8 32.11C221.93 32.66 223.29 36.95 223.29 40.19Z" fill="#E44EFF"/>
<path d="M290.84 15C273.41 15 259.29 29.13 259.29 46.55V78.58H322.39V46.55C322.39 29.13 308.26 15 290.84 15Z" fill="#FADCFF"/>
<path d="M374.28 15C356.85 15 342.73 29.13 342.73 46.55V78.58H405.83V46.55C405.83 29.13 391.7 15 374.28 15Z" fill="#FADCFF"/>
<path d="M457.73 15C440.3 15 426.18 29.13 426.18 46.55V78.58H489.28V46.55C489.28 29.13 475.15 15 457.73 15Z" fill="#FADCFF"/>
<path d="M541.17 15C523.74 15 509.62 29.13 509.62 46.55V78.58H572.72V46.55C572.72 29.13 558.59 15 541.17 15Z" fill="#FADCFF"/>
<path d="M370.35 33.87L371.93 30.08C372.8 28 375.76 27.99 376.63 30.08L378.21 33.87C379.4 36.7 381.65 38.95 384.48 40.14L388.27 41.72C390.36 42.59 390.36 45.55 388.27 46.42L384.48 48C381.65 49.18 379.4 51.44 378.21 54.27L376.63 58.05C375.76 60.14 372.8 60.14 371.93 58.05L370.35 54.26C369.17 51.43 366.92 49.18 364.08 47.99L360.29 46.41C358.2 45.54 358.2 42.58 360.29 41.71L364.07 40.13C366.9 38.95 369.15 36.69 370.34 33.86" fill="#E44EFF"/>
<path d="M473.59 46.89C473.59 50.48 470.68 53.39 467.09 53.39C463 53.39 460.59 49.85 457.73 49.85C454.87 49.85 452.46 53.39 448.37 53.39C444.78 53.39 441.87 50.48 441.87 46.89C441.87 43.3 444.78 40.39 448.37 40.39C448.98 40.39 449.64 40.53 450.24 40.72C451.96 41.26 452.92 40.56 452.08 38.87C451.59 37.89 451.23 36.81 451.23 35.63C451.23 32.04 454.14 29.13 457.73 29.13C461.32 29.13 464.23 32.04 464.23 35.63C464.23 36.81 463.87 37.89 463.38 38.87C462.54 40.56 463.5 41.26 465.24 40.71C465.83 40.52 466.48 40.39 467.09 40.39C470.68 40.39 473.59 43.3 473.59 46.89ZM457.73 53.63C455.43 53.63 451.93 57.04 451.93 57.81C451.93 58.57 454.79 59.01 457.73 59.01C460.67 59.01 463.53 58.58 463.53 57.8C463.53 57.03 460.03 53.62 457.73 53.62" fill="#27003A"/>
<path d="M306.74 46.92C306.74 51.71 303.01 53.39 300.16 53.39C296.07 53.39 293.66 49.85 290.8 49.85C287.94 49.85 285.54 53.39 281.44 53.39C278.58 53.39 274.94 51.71 274.94 46.92C274.94 42.07 280.96 34.81 285.82 31.45C287.84 30.05 289.66 29.17 290.76 29.13C290.78 29.13 290.79 29.13 290.8 29.13H290.82C290.82 29.13 290.9 29.13 290.95 29.13C292.01 29.18 293.74 30 295.66 31.31C300.55 34.63 306.74 42 306.74 46.92ZM290.84 53.63C288.54 53.63 285.04 57.04 285.04 57.81C285.04 58.57 287.9 59.01 290.84 59.01C293.78 59.01 296.64 58.58 296.64 57.8C296.64 57.03 293.14 53.62 290.84 53.62" fill="#27003A"/>
<path d="M557.07 40.19C557.07 48.38 545.93 56.09 541.17 56.09C536.41 56.09 525.27 48.38 525.28 40.19C525.28 36.95 526.63 32.67 530.77 32.11C534.08 31.67 536.57 33.97 537.96 36.7C538.84 38.42 539.85 39.24 541.17 39.24C542.49 39.24 543.53 38.44 544.38 36.75C545.77 33.98 548.26 31.67 551.58 32.11C555.71 32.66 557.07 36.95 557.07 40.19Z" fill="#E44EFF"/>
<path d="M624.62 15C607.19 15 593.07 29.13 593.07 46.55V78.58H656.17V46.55C656.17 29.13 642.04 15 624.62 15Z" fill="#FADCFF"/>
<path d="M708.06 15C690.63 15 676.51 29.13 676.51 46.55V78.58H739.61V46.55C739.61 29.13 725.48 15 708.06 15Z" fill="#FADCFF"/>
<path d="M791.51 15C774.08 15 759.96 29.13 759.96 46.55V78.58H823.06V46.55C823.06 29.13 808.93 15 791.51 15Z" fill="#FADCFF"/>
<path d="M874.95 15C857.52 15 843.4 29.13 843.4 46.55V78.58H906.5V46.55C906.5 29.13 892.37 15 874.95 15Z" fill="#FADCFF"/>
<path d="M704.13 33.87L705.71 30.08C706.58 28 709.54 27.99 710.41 30.08L711.99 33.87C713.18 36.7 715.43 38.95 718.26 40.14L722.05 41.72C724.14 42.59 724.14 45.55 722.05 46.42L718.26 48C715.43 49.18 713.18 51.44 711.99 54.27L710.41 58.05C709.54 60.14 706.58 60.14 705.71 58.05L704.13 54.26C702.95 51.43 700.7 49.18 697.86 47.99L694.07 46.41C691.98 45.54 691.98 42.58 694.07 41.71L697.85 40.13C700.68 38.95 702.93 36.69 704.12 33.86" fill="#E44EFF"/>
<path d="M807.36 46.89C807.36 50.48 804.45 53.39 800.86 53.39C796.77 53.39 794.36 49.85 791.5 49.85C788.64 49.85 786.23 53.39 782.14 53.39C778.55 53.39 775.64 50.48 775.64 46.89C775.64 43.3 778.55 40.39 782.14 40.39C782.75 40.39 783.41 40.53 784.01 40.72C785.73 41.26 786.69 40.56 785.85 38.87C785.36 37.89 785 36.81 785 35.63C785 32.04 787.91 29.13 791.5 29.13C795.09 29.13 798 32.04 798 35.63C798 36.81 797.64 37.89 797.15 38.87C796.31 40.56 797.27 41.26 799.01 40.71C799.6 40.52 800.25 40.39 800.86 40.39C804.45 40.39 807.36 43.3 807.36 46.89ZM791.51 53.63C789.21 53.63 785.71 57.04 785.71 57.81C785.71 58.57 788.57 59.01 791.51 59.01C794.45 59.01 797.31 58.58 797.31 57.8C797.31 57.03 793.81 53.62 791.51 53.62" fill="#27003A"/>
<path d="M640.52 46.92C640.52 51.71 636.79 53.39 633.94 53.39C629.85 53.39 627.44 49.85 624.58 49.85C621.72 49.85 619.32 53.39 615.22 53.39C612.36 53.39 608.72 51.71 608.72 46.92C608.72 42.07 614.74 34.81 619.6 31.45C621.62 30.05 623.44 29.17 624.54 29.13C624.56 29.13 624.57 29.13 624.58 29.13H624.6C624.6 29.13 624.68 29.13 624.73 29.13C625.79 29.18 627.52 30 629.44 31.31C634.33 34.63 640.52 42 640.52 46.92ZM624.62 53.63C622.32 53.63 618.82 57.04 618.82 57.81C618.82 58.57 621.68 59.01 624.62 59.01C627.56 59.01 630.42 58.58 630.42 57.8C630.42 57.03 626.92 53.62 624.62 53.62" fill="#27003A"/>
<path d="M890.84 40.19C890.84 48.38 879.7 56.09 874.94 56.09C870.18 56.09 859.04 48.38 859.05 40.19C859.05 36.95 860.4 32.67 864.54 32.11C867.85 31.67 870.34 33.97 871.73 36.7C872.61 38.42 873.62 39.24 874.94 39.24C876.26 39.24 877.3 38.44 878.15 36.75C879.54 33.98 882.03 31.67 885.35 32.11C889.48 32.66 890.84 36.95 890.84 40.19Z" fill="#E44EFF"/>
<path d="M958.39 15C940.96 15 926.84 29.13 926.84 46.55V78.58H989.94V46.55C989.94 29.13 975.81 15 958.39 15Z" fill="#FADCFF"/>
<path d="M1041.84 15C1024.41 15 1010.29 29.13 1010.29 46.55V78.58H1073.39V46.55C1073.39 29.13 1059.26 15 1041.84 15Z" fill="#FADCFF"/>
<path d="M1125.28 15C1107.85 15 1093.73 29.13 1093.73 46.55V78.58H1156.83V46.55C1156.83 29.13 1142.7 15 1125.28 15Z" fill="#FADCFF"/>
<path d="M1208.73 15C1191.3 15 1177.18 29.13 1177.18 46.55V78.58H1240.28V46.55C1240.28 29.13 1226.15 15 1208.73 15Z" fill="#FADCFF"/>
<path d="M1037.9 33.87L1039.48 30.08C1040.35 28 1043.31 27.99 1044.18 30.08L1045.76 33.87C1046.95 36.7 1049.2 38.95 1052.03 40.14L1055.82 41.72C1057.91 42.59 1057.91 45.55 1055.82 46.42L1052.03 48C1049.2 49.18 1046.95 51.44 1045.76 54.27L1044.18 58.05C1043.31 60.14 1040.35 60.14 1039.48 58.05L1037.9 54.26C1036.72 51.43 1034.47 49.18 1031.63 47.99L1027.84 46.41C1025.75 45.54 1025.75 42.58 1027.84 41.71L1031.62 40.13C1034.45 38.95 1036.7 36.69 1037.89 33.86" fill="#E44EFF"/>
<path d="M1141.14 46.89C1141.14 50.48 1138.23 53.39 1134.64 53.39C1130.55 53.39 1128.14 49.85 1125.28 49.85C1122.42 49.85 1120.01 53.39 1115.92 53.39C1112.33 53.39 1109.42 50.48 1109.42 46.89C1109.42 43.3 1112.33 40.39 1115.92 40.39C1116.53 40.39 1117.19 40.53 1117.79 40.72C1119.51 41.26 1120.47 40.56 1119.63 38.87C1119.14 37.89 1118.78 36.81 1118.78 35.63C1118.78 32.04 1121.69 29.13 1125.28 29.13C1128.87 29.13 1131.78 32.04 1131.78 35.63C1131.78 36.81 1131.42 37.89 1130.93 38.87C1130.09 40.56 1131.05 41.26 1132.79 40.71C1133.38 40.52 1134.03 40.39 1134.64 40.39C1138.23 40.39 1141.14 43.3 1141.14 46.89ZM1125.28 53.63C1122.98 53.63 1119.48 57.04 1119.48 57.81C1119.48 58.57 1122.34 59.01 1125.28 59.01C1128.22 59.01 1131.08 58.58 1131.08 57.8C1131.08 57.03 1127.58 53.62 1125.28 53.62" fill="#27003A"/>
<path d="M974.29 46.92C974.29 51.71 970.56 53.39 967.71 53.39C963.62 53.39 961.21 49.85 958.35 49.85C955.49 49.85 953.09 53.39 948.99 53.39C946.13 53.39 942.49 51.71 942.49 46.92C942.49 42.07 948.51 34.81 953.37 31.45C955.39 30.05 957.21 29.17 958.31 29.13C958.33 29.13 958.34 29.13 958.35 29.13H958.37C958.37 29.13 958.45 29.13 958.5 29.13C959.56 29.18 961.29 30 963.21 31.31C968.1 34.63 974.29 42 974.29 46.92ZM958.39 53.63C956.09 53.63 952.59 57.04 952.59 57.81C952.59 58.57 955.45 59.01 958.39 59.01C961.33 59.01 964.19 58.58 964.19 57.8C964.19 57.03 960.69 53.62 958.39 53.62" fill="#27003A"/>
<path d="M1224.62 40.19C1224.62 48.38 1213.48 56.09 1208.72 56.09C1203.96 56.09 1192.82 48.38 1192.83 40.19C1192.83 36.95 1194.18 32.67 1198.32 32.11C1201.63 31.67 1204.12 33.97 1205.51 36.7C1206.39 38.42 1207.4 39.24 1208.72 39.24C1210.04 39.24 1211.08 38.44 1211.93 36.75C1213.32 33.98 1215.81 31.67 1219.13 32.11C1223.26 32.66 1224.62 36.95 1224.62 40.19Z" fill="#E44EFF"/>
<path d="M1292.17 15C1274.74 15 1260.62 29.13 1260.62 46.55V78.58H1323.72V46.55C1323.72 29.13 1309.59 15 1292.17 15Z" fill="#FADCFF"/>
<path d="M1375.62 15C1358.19 15 1344.07 29.13 1344.07 46.55V78.58H1407.17V46.55C1407.17 29.13 1393.04 15 1375.62 15Z" fill="#FADCFF"/>
<path d="M1459.06 15C1441.63 15 1427.51 29.13 1427.51 46.55V78.58H1490.61V46.55C1490.61 29.13 1476.48 15 1459.06 15Z" fill="#FADCFF"/>
<path d="M1542.5 15C1525.07 15 1510.95 29.13 1510.95 46.55V78.58H1574.05V46.55C1574.05 29.13 1559.92 15 1542.5 15Z" fill="#FADCFF"/>
<path d="M1371.68 33.87L1373.26 30.08C1374.13 28 1377.09 27.99 1377.96 30.08L1379.54 33.87C1380.73 36.7 1382.98 38.95 1385.81 40.14L1389.6 41.72C1391.69 42.59 1391.69 45.55 1389.6 46.42L1385.81 48C1382.98 49.18 1380.73 51.44 1379.54 54.27L1377.96 58.05C1377.09 60.14 1374.13 60.14 1373.26 58.05L1371.68 54.26C1370.5 51.43 1368.25 49.18 1365.41 47.99L1361.62 46.41C1359.53 45.54 1359.53 42.58 1361.62 41.71L1365.4 40.13C1368.23 38.95 1370.48 36.69 1371.67 33.86" fill="#E44EFF"/>
<path d="M1474.92 46.89C1474.92 50.48 1472.01 53.39 1468.42 53.39C1464.33 53.39 1461.92 49.85 1459.06 49.85C1456.2 49.85 1453.79 53.39 1449.7 53.39C1446.11 53.39 1443.2 50.48 1443.2 46.89C1443.2 43.3 1446.11 40.39 1449.7 40.39C1450.31 40.39 1450.97 40.53 1451.57 40.72C1453.29 41.26 1454.25 40.56 1453.41 38.87C1452.92 37.89 1452.56 36.81 1452.56 35.63C1452.56 32.04 1455.47 29.13 1459.06 29.13C1462.65 29.13 1465.56 32.04 1465.56 35.63C1465.56 36.81 1465.2 37.89 1464.71 38.87C1463.87 40.56 1464.83 41.26 1466.57 40.71C1467.16 40.52 1467.81 40.39 1468.42 40.39C1472.01 40.39 1474.92 43.3 1474.92 46.89ZM1459.06 53.63C1456.76 53.63 1453.26 57.04 1453.26 57.81C1453.26 58.57 1456.12 59.01 1459.06 59.01C1462 59.01 1464.86 58.58 1464.86 57.8C1464.86 57.03 1461.36 53.62 1459.06 53.62" fill="#27003A"/>
<path d="M1308.07 46.92C1308.07 51.71 1304.34 53.39 1301.49 53.39C1297.4 53.39 1294.99 49.85 1292.13 49.85C1289.27 49.85 1286.87 53.39 1282.77 53.39C1279.91 53.39 1276.27 51.71 1276.27 46.92C1276.27 42.07 1282.29 34.81 1287.15 31.45C1289.17 30.05 1290.99 29.17 1292.09 29.13C1292.11 29.13 1292.12 29.13 1292.13 29.13H1292.15C1292.15 29.13 1292.23 29.13 1292.28 29.13C1293.34 29.18 1295.07 30 1296.99 31.31C1301.88 34.63 1308.07 42 1308.07 46.92ZM1292.17 53.63C1289.87 53.63 1286.37 57.04 1286.37 57.81C1286.37 58.57 1289.23 59.01 1292.17 59.01C1295.11 59.01 1297.97 58.58 1297.97 57.8C1297.97 57.03 1294.47 53.62 1292.17 53.62" fill="#27003A"/>
<path d="M1558.4 40.19C1558.4 48.38 1547.26 56.09 1542.5 56.09C1537.74 56.09 1526.6 48.38 1526.61 40.19C1526.61 36.95 1527.96 32.67 1532.1 32.11C1535.41 31.67 1537.9 33.97 1539.29 36.7C1540.17 38.42 1541.18 39.24 1542.5 39.24C1543.82 39.24 1544.86 38.44 1545.71 36.75C1547.1 33.98 1549.59 31.67 1552.91 32.11C1557.04 32.66 1558.4 36.95 1558.4 40.19Z" fill="#E44EFF"/>
<path d="M1625.95 15C1608.52 15 1594.4 29.13 1594.4 46.55V78.58H1657.5V46.55C1657.5 29.13 1643.37 15 1625.95 15Z" fill="#FADCFF"/>
<path d="M1709.39 15C1691.96 15 1677.84 29.13 1677.84 46.55V78.58H1740.94V46.55C1740.94 29.13 1726.81 15 1709.39 15Z" fill="#FADCFF"/>
<path d="M1792.84 15C1775.41 15 1761.29 29.13 1761.29 46.55V78.58H1824.39V46.55C1824.39 29.13 1810.26 15 1792.84 15Z" fill="#FADCFF"/>
<path d="M1705.46 33.87L1707.04 30.08C1707.91 28 1710.87 27.99 1711.74 30.08L1713.32 33.87C1714.51 36.7 1716.76 38.95 1719.59 40.14L1723.38 41.72C1725.47 42.59 1725.47 45.55 1723.38 46.42L1719.59 48C1716.76 49.18 1714.51 51.44 1713.32 54.27L1711.74 58.05C1710.87 60.14 1707.91 60.14 1707.04 58.05L1705.46 54.26C1704.28 51.43 1702.03 49.18 1699.19 47.99L1695.4 46.41C1693.31 45.54 1693.31 42.58 1695.4 41.71L1699.18 40.13C1702.01 38.95 1704.26 36.69 1705.45 33.86" fill="#E44EFF"/>
<path d="M1808.7 46.89C1808.7 50.48 1805.79 53.39 1802.2 53.39C1798.11 53.39 1795.7 49.85 1792.84 49.85C1789.98 49.85 1787.57 53.39 1783.48 53.39C1779.89 53.39 1776.98 50.48 1776.98 46.89C1776.98 43.3 1779.89 40.39 1783.48 40.39C1784.09 40.39 1784.75 40.53 1785.35 40.72C1787.07 41.26 1788.03 40.56 1787.19 38.87C1786.7 37.89 1786.34 36.81 1786.34 35.63C1786.34 32.04 1789.25 29.13 1792.84 29.13C1796.43 29.13 1799.34 32.04 1799.34 35.63C1799.34 36.81 1798.98 37.89 1798.49 38.87C1797.65 40.56 1798.61 41.26 1800.35 40.71C1800.94 40.52 1801.59 40.39 1802.2 40.39C1805.79 40.39 1808.7 43.3 1808.7 46.89ZM1792.84 53.63C1790.54 53.63 1787.04 57.04 1787.04 57.81C1787.04 58.57 1789.9 59.01 1792.84 59.01C1795.78 59.01 1798.64 58.58 1798.64 57.8C1798.64 57.03 1795.14 53.62 1792.84 53.62" fill="#27003A"/>
<path d="M1641.85 46.92C1641.85 51.71 1638.12 53.39 1635.27 53.39C1631.18 53.39 1628.77 49.85 1625.91 49.85C1623.05 49.85 1620.65 53.39 1616.55 53.39C1613.69 53.39 1610.05 51.71 1610.05 46.92C1610.05 42.07 1616.07 34.81 1620.93 31.45C1622.95 30.05 1624.77 29.17 1625.87 29.13C1625.89 29.13 1625.9 29.13 1625.91 29.13H1625.93C1625.93 29.13 1626.01 29.13 1626.06 29.13C1627.12 29.18 1628.85 30 1630.77 31.31C1635.66 34.63 1641.85 42 1641.85 46.92ZM1625.95 53.63C1623.65 53.63 1620.15 57.04 1620.15 57.81C1620.15 58.57 1623.01 59.01 1625.95 59.01C1628.89 59.01 1631.75 58.58 1631.75 57.8C1631.75 57.03 1628.25 53.62 1625.95 53.62" fill="#27003A"/>
</g>
</svg>
