<svg width="653" height="761" viewBox="0 0 653 761" fill="none" xmlns="http://www.w3.org/2000/svg">
<path d="M28.0463 0H292.174C307.663 0 320.22 12.5567 320.22 28.0463V292.174C320.22 307.663 307.663 320.22 292.174 320.22H28.0463C12.5567 320.22 0 307.663 0 292.174V28.0463C0 12.5567 12.5567 0 28.0463 0Z" fill="#632784"/>
<path d="M189.237 58.4216C175.315 73.7181 181.698 102.2 203.495 122.037C225.292 141.873 254.243 145.543 268.166 130.246C282.088 114.95 275.705 86.4679 253.908 66.6311C232.111 46.7943 203.16 43.1252 189.237 58.4216Z" fill="#FADCFF"/>
<path d="M213.548 74.2544L202.121 50.4636C205.355 49.4919 208.823 49.006 212.442 48.9893L223.851 72.7632L224.957 50.5641C228.81 51.5359 232.714 52.96 236.568 54.8364L235.462 77.0355L248.798 62.3757C250.524 63.6993 252.233 65.1067 253.891 66.6145C255.55 68.1391 257.108 69.6973 258.582 71.2889L245.246 85.9487L267.244 82.7487C269.456 86.4178 271.248 90.1707 272.589 93.9068L250.607 97.1069L275.353 106.238C275.672 109.857 275.504 113.358 274.85 116.659L250.088 107.528L270.964 126.527C270.143 127.834 269.204 129.09 268.149 130.246C267.093 131.419 265.937 132.458 264.714 133.396L243.839 114.397L255.265 138.188C252.048 139.16 248.563 139.645 244.945 139.679L233.535 115.905L232.429 138.104C228.576 137.132 224.672 135.708 220.819 133.832L221.925 111.633L208.588 126.292C206.863 124.969 205.154 123.561 203.495 122.054C201.836 120.529 200.278 118.971 198.804 117.379L212.14 102.719L190.142 105.919C187.93 102.25 186.138 98.4974 184.798 94.7613L206.779 91.5613L182.033 82.4303C181.715 78.8114 181.882 75.3099 182.536 72.0093L207.298 81.1403L186.423 62.1412C187.244 60.8344 188.182 59.5778 189.237 58.4218C190.293 57.249 191.449 56.2102 192.672 55.272L213.548 74.2711V74.2544Z" fill="#E44EFF"/>
<path d="M197.866 66.2625C186.992 78.2249 191.968 100.474 209.007 115.972C226.046 131.469 248.664 134.334 259.537 122.389C270.411 110.443 265.418 88.1768 248.396 72.6793C231.357 57.1818 208.739 54.3169 197.866 66.2625Z" fill="#E44EFF"/>
<path d="M201.853 69.8981C192.387 80.3023 196.726 99.67 211.554 113.174C226.381 126.661 246.067 129.157 255.55 118.753C265.016 108.349 260.676 88.9809 245.849 75.4772C231.022 61.9902 211.336 59.4938 201.853 69.8981Z" fill="#FADCFF"/>
<path d="M189.237 58.4219C188.182 59.5947 187.244 60.8344 186.423 62.1413L181.095 67.9884C181.916 66.6816 182.854 65.4251 183.909 64.269L189.237 58.4219Z" fill="#A316C1"/>
<path d="M182.536 72.0093L177.208 77.8564C177.911 74.2878 179.218 70.9705 181.095 67.9883L186.423 62.1411C184.546 65.1233 183.239 68.4406 182.536 72.0093Z" fill="#F2B6FF"/>
<path d="M182.033 82.4137L176.705 88.2608C176.387 84.642 176.554 81.1404 177.208 77.8398L182.536 71.9927C181.882 75.2932 181.715 78.7948 182.033 82.4137Z" fill="#A316C1"/>
<path d="M190.125 105.903L184.797 111.75C182.586 108.081 180.793 104.328 179.453 100.592L184.781 94.7446C186.121 98.4808 187.897 102.234 190.125 105.903Z" fill="#A316C1"/>
<path d="M203.495 122.037C205.154 123.545 206.862 124.952 208.588 126.276L203.26 132.123C201.535 130.799 199.826 129.392 198.167 127.884C196.525 126.376 194.967 124.835 193.493 123.243L198.821 117.396C200.295 118.988 201.836 120.546 203.495 122.037Z" fill="#A316C1"/>
<path d="M232.429 138.087L227.101 143.934C223.248 142.963 219.344 141.539 215.491 139.662L220.819 133.815C224.672 135.675 228.576 137.099 232.429 138.087Z" fill="#A316C1"/>
<path d="M255.282 138.188L249.954 144.035C246.72 145.007 243.252 145.492 239.633 145.509L244.961 139.662C248.58 139.628 252.065 139.143 255.282 138.171" fill="#A316C1"/>
<path d="M268.166 130.246L262.838 136.093C261.782 137.266 260.626 138.305 259.403 139.243L264.731 133.396C265.954 132.458 267.11 131.402 268.166 130.246Z" fill="#A316C1"/>
<path d="M184.797 94.7444L179.47 100.592C177.978 96.4366 177.057 92.2816 176.705 88.2773L182.033 82.4302C182.385 86.4511 183.306 90.5894 184.797 94.7444Z" fill="#F2B6FF"/>
<path d="M198.837 117.396L193.509 123.243C190.142 119.591 187.227 115.737 184.831 111.783L190.159 105.936C192.555 109.89 195.47 113.743 198.837 117.396Z" fill="#F2B6FF"/>
<path d="M220.819 133.815L215.491 139.662C211.319 137.652 207.214 135.122 203.26 132.106L208.588 126.259C212.542 129.275 216.647 131.804 220.819 133.815Z" fill="#F2B6FF"/>
<path d="M244.945 139.679L239.617 145.526C235.596 145.559 231.374 145.023 227.085 143.934L232.413 138.087C236.685 139.176 240.907 139.712 244.928 139.679" fill="#F2B6FF"/>
<path d="M264.731 133.396L259.403 139.243C256.605 141.404 253.422 143.013 249.954 144.052L255.282 138.204C258.766 137.166 261.95 135.557 264.731 133.396Z" fill="#F2B6FF"/>
<path d="M189.237 184.111C175.315 199.407 181.698 227.889 203.495 247.726C225.292 267.562 254.243 271.232 268.166 255.935C282.088 240.639 275.705 212.157 253.908 192.32C232.111 172.483 203.16 168.814 189.237 184.111Z" fill="#FADCFF"/>
<path d="M213.548 199.96L202.121 176.169C205.355 175.197 208.823 174.712 212.442 174.695L223.851 198.469L224.957 176.27C228.81 177.241 232.714 178.666 236.568 180.542L235.462 202.741L248.798 188.081C250.524 189.405 252.233 190.812 253.891 192.32C255.55 193.845 257.108 195.403 258.582 196.994L245.246 211.654L267.244 208.454C269.456 212.123 271.248 215.876 272.589 219.612L250.607 222.812L275.353 231.943C275.672 235.562 275.504 239.064 274.85 242.364L250.088 233.233L270.964 252.233C270.143 253.539 269.204 254.796 268.149 255.952C267.093 257.125 265.937 258.163 264.714 259.102L243.839 240.103L255.265 263.893C252.048 264.865 248.563 265.351 244.945 265.384L233.535 241.61L232.429 263.81C228.576 262.838 224.672 261.414 220.819 259.537L221.925 237.338L208.588 251.998C206.863 250.674 205.154 249.267 203.495 247.759C201.836 246.235 200.278 244.676 198.804 243.085L212.14 228.425L190.142 231.625C187.93 227.956 186.138 224.203 184.798 220.467L206.779 217.267L182.033 208.136C181.715 204.517 181.882 201.015 182.536 197.715L207.298 206.846L186.423 187.847C187.244 186.54 188.182 185.283 189.237 184.127C190.293 182.955 191.449 181.916 192.672 180.978L213.548 199.977V199.96Z" fill="#E44EFF"/>
<path d="M197.866 191.968C186.992 203.93 191.968 226.18 209.007 241.677C226.046 257.175 248.664 260.04 259.537 248.094C270.411 236.148 265.418 213.882 248.396 198.385C231.357 182.887 208.739 180.022 197.866 191.968Z" fill="#E44EFF"/>
<path d="M201.853 195.604C192.387 206.008 196.726 225.376 211.554 238.88C226.381 252.367 246.067 254.863 255.55 244.459C265.016 234.055 260.676 214.687 245.849 201.183C231.022 187.696 211.336 185.2 201.853 195.604Z" fill="#FADCFF"/>
<path d="M189.237 184.11C188.182 185.283 187.244 186.523 186.423 187.83L181.095 193.677C181.916 192.37 182.854 191.114 183.909 189.958L189.237 184.11Z" fill="#A316C1"/>
<path d="M182.536 197.698L177.208 203.545C177.912 199.977 179.218 196.659 181.095 193.677L186.423 187.83C184.546 190.812 183.239 194.13 182.536 197.698Z" fill="#F2B6FF"/>
<path d="M182.033 208.119L176.705 213.966C176.387 210.348 176.554 206.846 177.208 203.545L182.536 197.698C181.882 200.999 181.715 204.5 182.033 208.119Z" fill="#A316C1"/>
<path d="M190.125 231.592L184.797 237.439C182.586 233.77 180.793 230.017 179.453 226.281L184.781 220.434C186.121 224.17 187.897 227.923 190.125 231.592Z" fill="#A316C1"/>
<path d="M203.495 247.726C205.154 249.234 206.862 250.641 208.588 251.965L203.26 257.812C201.535 256.488 199.826 255.081 198.167 253.573C196.525 252.065 194.967 250.524 193.493 248.932L198.821 243.085C200.295 244.677 201.836 246.235 203.495 247.726Z" fill="#A316C1"/>
<path d="M232.429 263.776L227.101 269.623C223.248 268.652 219.344 267.228 215.491 265.351L220.819 259.504C224.672 261.364 228.576 262.788 232.429 263.776Z" fill="#A316C1"/>
<path d="M255.282 263.893L249.954 269.74C246.72 270.712 243.252 271.198 239.633 271.215L244.961 265.368C248.58 265.334 252.065 264.848 255.282 263.876" fill="#A316C1"/>
<path d="M268.166 255.935L262.838 261.782C261.782 262.955 260.626 263.994 259.403 264.932L264.731 259.085C265.954 258.147 267.11 257.091 268.166 255.935Z" fill="#A316C1"/>
<path d="M184.797 220.433L179.47 226.281C177.978 222.126 177.057 217.971 176.705 213.966L182.033 208.119C182.385 212.14 183.306 216.278 184.797 220.433Z" fill="#F2B6FF"/>
<path d="M198.837 243.085L193.509 248.932C190.142 245.28 187.227 241.426 184.831 237.472L190.159 231.625C192.555 235.579 195.47 239.432 198.837 243.085Z" fill="#F2B6FF"/>
<path d="M220.819 259.52L215.491 265.368C211.319 263.357 207.214 260.827 203.26 257.812L208.588 251.964C212.542 254.98 216.647 257.51 220.819 259.52Z" fill="#F2B6FF"/>
<path d="M244.945 265.368L239.617 271.215C235.596 271.248 231.374 270.712 227.085 269.623L232.413 263.776C236.685 264.865 240.907 265.401 244.928 265.368" fill="#F2B6FF"/>
<path d="M264.731 259.085L259.403 264.932C256.605 267.093 253.422 268.702 249.954 269.741L255.282 263.893C258.766 262.855 261.95 261.246 264.731 259.085Z" fill="#F2B6FF"/>
<path d="M57.3829 58.4216C43.4603 73.7181 49.8436 102.2 71.6406 122.037C93.4376 141.873 122.389 145.543 136.311 130.246C150.234 114.95 143.851 86.4679 122.054 66.6311C100.257 46.7943 71.3055 43.1252 57.3829 58.4216Z" fill="#FADCFF"/>
<path d="M81.693 74.2544L70.2669 50.4636C73.5004 49.4919 76.9685 49.006 80.5874 48.9893L91.9968 72.7632L93.1026 50.5641C96.9561 51.5359 100.86 52.96 104.713 54.8364L103.607 77.0355L116.944 62.3757C118.669 63.6993 120.378 65.1067 122.037 66.6145C123.696 68.1391 125.254 69.6973 126.728 71.2889L113.392 85.9487L135.39 82.7487C137.601 86.4178 139.394 90.1707 140.734 93.9068L118.753 97.1069L143.499 106.238C143.817 109.857 143.65 113.358 142.996 116.659L118.234 107.528L139.109 126.527C138.288 127.834 137.35 129.09 136.295 130.246C135.239 131.419 134.083 132.458 132.86 133.396L111.984 114.397L123.411 138.188C120.194 139.16 116.709 139.645 113.09 139.679L101.681 115.905L100.575 138.104C96.7214 137.132 92.8179 135.708 88.9644 133.832L90.0701 111.633L76.7339 126.292C75.0082 124.969 73.2993 123.561 71.6406 122.054C69.982 120.529 68.424 118.971 66.9496 117.379L80.2858 102.719L58.2877 105.919C56.0761 102.25 54.2836 98.4974 52.9432 94.7613L74.9245 91.5613L50.1788 82.4303C49.8605 78.8114 50.0279 75.3099 50.6813 72.0093L75.4438 81.1403L54.5683 62.1412C55.3893 60.8344 56.3274 59.5778 57.3829 58.4218C58.4384 57.249 59.5945 56.2102 60.8176 55.272L81.693 74.2711V74.2544Z" fill="#E44EFF"/>
<path d="M66.0113 66.2625C55.1379 78.2249 60.1139 100.474 77.1528 115.972C94.1916 131.469 116.81 134.334 127.683 122.389C138.556 110.443 133.564 88.1768 116.542 72.6793C99.5027 57.1818 76.8847 54.3169 66.0113 66.2625Z" fill="#E44EFF"/>
<path d="M69.9987 69.8981C60.5327 80.3023 64.8721 99.67 79.6994 113.174C94.5267 126.661 114.213 129.157 123.696 118.753C133.162 108.349 128.822 88.9809 113.995 75.4772C99.1675 61.9902 79.4815 59.4938 69.9987 69.8981Z" fill="#FADCFF"/>
<path d="M57.3829 58.4219C56.3274 59.5947 55.3893 60.8344 54.5683 62.1413L49.2405 67.9884C50.0614 66.6816 50.9997 65.4251 52.0552 64.269L57.3829 58.4219Z" fill="#A316C1"/>
<path d="M50.6813 72.0093L45.3536 77.8564C46.0573 74.2878 47.364 70.9705 49.2405 67.9883L54.5683 62.1411C52.6919 65.1233 51.3849 68.4406 50.6813 72.0093Z" fill="#F2B6FF"/>
<path d="M50.1788 82.4137L44.8509 88.2608C44.5326 84.642 44.7002 81.1404 45.3536 77.8398L50.6813 71.9927C50.0279 75.2932 49.8604 78.7948 50.1788 82.4137Z" fill="#A316C1"/>
<path d="M58.2709 105.903L52.9433 111.75C50.7317 108.081 48.9389 104.328 47.5986 100.592L52.9265 94.7446C54.2668 98.4808 56.0426 102.234 58.2709 105.903Z" fill="#A316C1"/>
<path d="M71.6406 122.037C73.2993 123.545 75.0082 124.952 76.7339 126.276L71.406 132.123C69.6804 130.799 67.9716 129.392 66.3129 127.884C64.671 126.376 63.1129 124.835 61.6385 123.243L66.9664 117.396C68.4407 118.988 69.982 120.546 71.6406 122.037Z" fill="#A316C1"/>
<path d="M100.575 138.087L95.2472 143.934C91.3938 142.963 87.49 141.539 83.6366 139.662L88.9644 133.815C92.8179 135.675 96.7214 137.099 100.575 138.087Z" fill="#A316C1"/>
<path d="M123.427 138.188L118.1 144.035C114.866 145.007 111.398 145.492 107.779 145.509L113.107 139.662C116.726 139.628 120.211 139.143 123.427 138.171" fill="#A316C1"/>
<path d="M136.311 130.246L130.984 136.093C129.928 137.266 128.772 138.305 127.549 139.243L132.877 133.396C134.1 132.458 135.256 131.402 136.311 130.246Z" fill="#A316C1"/>
<path d="M52.9265 94.7444L47.5986 100.592C46.1075 96.4366 45.186 92.2816 44.8342 88.2773L50.162 82.4302C50.5139 86.4511 51.4354 90.5894 52.9265 94.7444Z" fill="#F2B6FF"/>
<path d="M66.9831 117.396L61.6553 123.243C58.2877 119.591 55.3724 115.737 52.9766 111.783L58.3045 105.936C60.7003 109.89 63.6156 113.743 66.9831 117.396Z" fill="#F2B6FF"/>
<path d="M88.9644 133.815L83.6366 139.662C79.4648 137.652 75.36 135.122 71.406 132.106L76.7339 126.259C80.6879 129.275 84.7927 131.804 88.9644 133.815Z" fill="#F2B6FF"/>
<path d="M113.09 139.679L107.762 145.526C103.741 145.559 99.5195 145.023 95.2304 143.934L100.558 138.087C104.83 139.176 109.052 139.712 113.073 139.679" fill="#F2B6FF"/>
<path d="M132.877 133.396L127.549 139.243C124.751 141.404 121.568 143.013 118.1 144.052L123.427 138.204C126.912 137.166 130.096 135.557 132.877 133.396Z" fill="#F2B6FF"/>
<path d="M57.3829 184.111C43.4603 199.407 49.8436 227.889 71.6406 247.726C93.4376 267.562 122.389 271.232 136.311 255.935C150.234 240.639 143.851 212.157 122.054 192.32C100.257 172.483 71.3055 168.814 57.3829 184.111Z" fill="#FADCFF"/>
<path d="M81.693 199.96L70.2669 176.169C73.5004 175.197 76.9685 174.712 80.5874 174.695L91.9968 198.469L93.1026 176.27C96.9561 177.241 100.86 178.666 104.713 180.542L103.607 202.741L116.944 188.081C118.669 189.405 120.378 190.812 122.037 192.32C123.696 193.845 125.254 195.403 126.728 196.994L113.392 211.654L135.39 208.454C137.601 212.123 139.394 215.876 140.734 219.612L118.753 222.812L143.499 231.943C143.817 235.562 143.65 239.064 142.996 242.364L118.234 233.233L139.109 252.233C138.288 253.539 137.35 254.796 136.295 255.952C135.239 257.125 134.083 258.163 132.86 259.102L111.984 240.103L123.411 263.893C120.194 264.865 116.709 265.351 113.09 265.384L101.681 241.61L100.575 263.81C96.7214 262.838 92.8179 261.414 88.9644 259.537L90.0701 237.338L76.7339 251.998C75.0082 250.674 73.2993 249.267 71.6406 247.759C69.982 246.235 68.424 244.676 66.9496 243.085L80.2858 228.425L58.2877 231.625C56.0761 227.956 54.2836 224.203 52.9432 220.467L74.9245 217.267L50.1788 208.136C49.8605 204.517 50.0279 201.015 50.6813 197.715L75.4438 206.846L54.5683 187.847C55.3893 186.54 56.3274 185.283 57.3829 184.127C58.4384 182.955 59.5945 181.916 60.8176 180.978L81.693 199.977V199.96Z" fill="#E44EFF"/>
<path d="M66.0113 191.968C55.1379 203.93 60.1139 226.18 77.1528 241.677C94.1916 257.175 116.81 260.04 127.683 248.094C138.556 236.148 133.564 213.882 116.542 198.385C99.5027 182.887 76.8847 180.022 66.0113 191.968Z" fill="#E44EFF"/>
<path d="M69.9987 195.604C60.5327 206.008 64.8721 225.376 79.6994 238.88C94.5267 252.367 114.213 254.863 123.696 244.459C133.162 234.055 128.822 214.687 113.995 201.183C99.1675 187.696 79.4815 185.2 69.9987 195.604Z" fill="#FADCFF"/>
<path d="M57.3829 184.11C56.3274 185.283 55.3893 186.523 54.5683 187.83L49.2405 193.677C50.0614 192.37 50.9997 191.114 52.0552 189.958L57.3829 184.11Z" fill="#A316C1"/>
<path d="M50.6813 197.698L45.3536 203.545C46.0573 199.977 47.364 196.659 49.2405 193.677L54.5683 187.83C52.6919 190.812 51.3849 194.13 50.6813 197.698Z" fill="#F2B6FF"/>
<path d="M50.1788 208.119L44.8509 213.966C44.5326 210.348 44.7002 206.846 45.3536 203.545L50.6813 197.698C50.0279 200.999 49.8604 204.5 50.1788 208.119Z" fill="#A316C1"/>
<path d="M58.2709 231.592L52.9433 237.439C50.7317 233.77 48.9389 230.017 47.5986 226.281L52.9265 220.434C54.2668 224.17 56.0426 227.923 58.2709 231.592Z" fill="#A316C1"/>
<path d="M71.6406 247.726C73.2993 249.234 75.0082 250.641 76.7339 251.965L71.406 257.812C69.6804 256.488 67.9716 255.081 66.3129 253.573C64.671 252.065 63.1129 250.524 61.6385 248.932L66.9664 243.085C68.4407 244.677 69.982 246.235 71.6406 247.726Z" fill="#A316C1"/>
<path d="M100.575 263.776L95.2472 269.623C91.3938 268.652 87.49 267.228 83.6366 265.351L88.9644 259.504C92.8179 261.364 96.7214 262.788 100.575 263.776Z" fill="#A316C1"/>
<path d="M123.427 263.893L118.1 269.74C114.866 270.712 111.398 271.198 107.779 271.215L113.107 265.368C116.726 265.334 120.211 264.848 123.427 263.876" fill="#A316C1"/>
<path d="M136.311 255.935L130.984 261.782C129.928 262.955 128.772 263.994 127.549 264.932L132.877 259.085C134.1 258.147 135.256 257.091 136.311 255.935Z" fill="#A316C1"/>
<path d="M52.9265 220.433L47.5986 226.281C46.1075 222.126 45.186 217.971 44.8342 213.966L50.162 208.119C50.5139 212.14 51.4354 216.278 52.9265 220.433Z" fill="#F2B6FF"/>
<path d="M66.9831 243.085L61.6553 248.932C58.2877 245.28 55.3724 241.426 52.9766 237.472L58.3045 231.625C60.7003 235.579 63.6156 239.432 66.9831 243.085Z" fill="#F2B6FF"/>
<path d="M88.9644 259.52L83.6366 265.368C79.4648 263.357 75.36 260.827 71.406 257.812L76.7339 251.964C80.6879 254.98 84.7927 257.51 88.9644 259.52Z" fill="#F2B6FF"/>
<path d="M113.09 265.368L107.762 271.215C103.741 271.248 99.5195 270.712 95.2304 269.623L100.558 263.776C104.83 264.865 109.052 265.401 113.073 265.368" fill="#F2B6FF"/>
<path d="M132.877 259.085L127.549 264.932C124.751 267.093 121.568 268.702 118.1 269.741L123.427 263.893C126.912 262.855 130.096 261.246 132.877 259.085Z" fill="#F2B6FF"/>
<path d="M81.1517 330.221H18.5483C8.30436 330.221 0 338.526 0 348.77V411.373C0 421.617 8.30436 429.921 18.5483 429.921H81.1517C91.3956 429.921 99.7001 421.617 99.7001 411.373V348.77C99.7001 338.526 91.3956 330.221 81.1517 330.221Z" fill="#2AD0B7"/>
<path d="M79.5332 380.758C82.0263 378.276 83.3448 375.24 83.3448 371.983C83.3448 366.398 79.1675 361.999 73.4169 361.512C72.4307 361.423 71.4778 361.468 70.5582 361.612L71.7216 356.271H23.1126L32.2981 398.265H16.3758L23.3896 403.883H72.1316L78.4584 398.265H62.5361L65.0735 386.642C71.2009 386.055 76.2534 384.027 79.5221 380.758H79.5332ZM73.0512 365.689C76.6301 365.988 79.1343 368.581 79.1343 371.972C79.1343 374.088 78.2479 376.094 76.5637 377.778C74.2036 380.127 70.5471 381.678 66.0264 382.298L69.5277 366.31C70.6025 365.789 71.7659 365.578 73.0512 365.689Z" fill="#27003A"/>
<path d="M188.292 330.22H130.811C119.152 330.22 109.7 339.671 109.7 351.33V408.812C109.7 420.471 119.152 429.923 130.811 429.923H188.292C199.952 429.923 209.403 420.471 209.403 408.812V351.33C209.403 339.671 199.952 330.22 188.292 330.22Z" fill="#3D0F58"/>
<path fill-rule="evenodd" clip-rule="evenodd" d="M180.972 369.221C181.753 368.703 182.374 368.038 182.793 367.235C183.899 365.111 183.393 362.387 181.688 359.679C182.548 359.146 183.278 358.365 183.791 357.233C186.558 351.144 182.577 343.587 177.67 338.761C176.998 338.104 175.741 337.885 175.683 339.031C175.257 346.442 165.335 341.105 162.228 346.5C161.809 347.23 161.679 348.077 161.78 348.968C158.492 349.041 155.884 350.173 154.757 352.356C154.337 353.159 154.15 354.05 154.171 354.999C150.522 355.305 147.653 356.714 146.346 359.233C145.97 359.956 145.746 360.737 145.652 361.548C145.319 367.666 154.085 374.624 160.154 377.902C166.224 381.18 175.488 384.218 180.467 380.012C181.081 379.472 181.587 378.844 181.962 378.121C183.27 375.602 182.793 372.419 180.965 369.214L180.972 369.221ZM168.11 348.961C169.816 346.675 177.692 346.997 178.227 342.528C178.306 341.864 179.441 341.316 179.534 342.514C179.889 346.829 175.589 348.231 174.353 350.392C172.402 353.794 177.468 355.868 181.276 355.882C182.707 355.882 182.172 356.707 181.536 356.824C175.553 357.861 165.48 352.473 168.11 348.961ZM159.208 351.115C159.836 350.224 160.573 349.632 160.212 351.465C159.215 356.525 173.746 364.614 178.92 365.271C179.867 365.395 180.315 366.337 178.819 366.527C170.502 367.549 154.684 357.525 159.215 351.122L159.208 351.115ZM176.601 378.172C165.913 379.487 145.601 366.615 151.418 358.386C152.227 357.247 153.167 356.481 152.704 358.839C151.425 365.337 170.09 375.727 176.731 376.566C177.952 376.719 178.516 377.939 176.593 378.172H176.601ZM158.073 381.859C160.74 383.298 167.85 386.729 174.657 386.532L133.7 421.22L143.441 369.002C147.263 375.303 154.879 380.02 156.838 381.166C157.257 381.414 157.676 381.648 158.081 381.867L158.073 381.859Z" fill="#E44EFF"/>
<path d="M297.993 330.221H240.513C228.854 330.221 219.403 339.673 219.403 351.331V408.811C219.403 420.47 228.854 429.921 240.513 429.921H297.993C309.652 429.921 319.103 420.47 319.103 408.811V351.331C319.103 339.673 309.652 330.221 297.993 330.221Z" fill="#632784"/>
<path d="M307.901 386.943C307.901 395.692 300.811 402.791 292.062 402.791C282.082 402.791 276.214 394.158 269.257 394.158C262.301 394.158 256.424 402.791 246.453 402.791C237.704 402.791 230.614 395.692 230.614 386.943C230.614 378.194 237.704 371.104 246.453 371.104C247.951 371.104 249.539 371.443 251.001 371.906C255.193 373.226 257.539 371.532 255.487 367.403C254.301 365.003 253.409 362.373 253.409 359.51C253.409 350.761 260.5 343.67 269.249 343.67C277.998 343.67 285.088 350.761 285.088 359.51C285.088 362.373 284.196 365.003 283.01 367.403C280.967 371.523 283.304 373.226 287.549 371.889C288.994 371.434 290.573 371.104 292.053 371.104C300.802 371.104 307.892 378.194 307.892 386.943" fill="#2AD0B7"/>
<path d="M269.258 403.353C263.666 403.353 255.131 411.674 255.131 413.538C255.131 415.402 262.096 416.473 269.258 416.473C276.42 416.473 283.385 415.42 283.385 413.538C283.385 411.656 274.85 403.353 269.258 403.353Z" fill="#2AD0B7"/>
<path d="M78.5923 439.923H21.1107C9.45154 439.923 0 449.374 0 461.034V518.515C0 530.174 9.45154 539.626 21.1107 539.626H78.5923C90.2515 539.626 99.703 530.174 99.703 518.515V461.034C99.703 449.374 90.2515 439.923 78.5923 439.923Z" fill="#E77BFF"/>
<path d="M86.7618 489.779C86.7618 510.167 70.2353 526.685 49.8559 526.685C29.4765 526.685 12.95 510.158 12.95 489.779C12.95 469.4 29.4765 452.873 49.8559 452.873C70.2353 452.873 86.7618 469.4 86.7618 489.779Z" fill="#632784"/>
<path d="M80.046 489.779C80.046 506.457 66.5252 519.978 49.847 519.978C33.1689 519.978 19.648 506.457 19.648 489.779C19.648 473.101 33.1689 459.58 49.847 459.58C66.5252 459.58 80.046 473.101 80.046 489.779Z" stroke="#E44EFF" stroke-width="2.37" stroke-miterlimit="10"/>
<path d="M50.8102 487.933C60.0501 487.817 67.7826 486.113 70.494 483.786C71.1718 484.365 71.5375 484.981 71.5375 485.623C71.5375 487.237 69.2276 488.7 65.4728 489.77C69.2276 490.849 71.5375 492.312 71.5375 493.917C71.5375 494.56 71.1718 495.175 70.494 495.755C67.7113 493.373 59.6755 491.643 50.1503 491.607L50.8102 487.924V487.933Z" fill="#E44EFF"/>
<path d="M48.6697 499.902L48.0097 503.559C48.6162 503.577 49.2227 503.585 49.847 503.585C61.8338 503.585 71.5464 500.901 71.5464 497.601C71.5464 496.959 71.1806 496.343 70.5028 495.764C67.6934 498.172 59.506 499.911 49.847 499.911C49.4546 499.911 49.0621 499.911 48.6697 499.902Z" fill="#E44EFF"/>
<path d="M71.5464 481.957C71.5464 478.943 63.466 476.445 52.9508 476.035L52.2997 479.683C60.8796 479.95 67.9343 481.592 70.5118 483.794C71.1896 483.215 71.5553 482.599 71.5553 481.957" fill="#E44EFF"/>
<path d="M46.8592 499.857C38.529 499.536 31.7151 497.922 29.2 495.764C28.5222 496.343 28.1565 496.959 28.1565 497.601C28.1565 500.562 35.9604 503.024 46.2081 503.505L46.8592 499.857Z" fill="#E44EFF"/>
<path d="M48.9907 487.933C39.7063 487.835 31.9202 486.122 29.1911 483.786C28.5132 484.365 28.1475 484.981 28.1475 485.623C28.1475 487.237 30.4575 488.7 34.2123 489.77C30.4575 490.849 28.1475 492.312 28.1475 493.917C28.1475 494.56 28.5132 495.175 29.1911 495.755C31.8489 493.471 39.3317 491.795 48.3218 491.616L48.9818 487.924L48.9907 487.933Z" fill="#E44EFF"/>
<path d="M29.2 483.794C32.0094 481.386 40.1968 479.647 49.8559 479.647C50.0699 479.647 50.275 479.647 50.4891 479.647L51.1491 475.982C50.721 475.982 50.2929 475.973 49.8648 475.973C37.8869 475.973 28.1653 478.657 28.1653 481.957C28.1653 482.599 28.5311 483.215 29.2089 483.794" fill="#E44EFF"/>
<path fill-rule="evenodd" clip-rule="evenodd" d="M215.686 439.923H131.814C120.157 439.923 110.703 449.377 110.703 461.034V518.515C110.703 530.172 120.157 539.626 131.814 539.626H299.549C311.206 539.626 320.66 530.172 320.66 518.515V461.034C320.66 449.377 311.206 439.923 299.549 439.923H215.677H215.686Z" fill="white"/>
<path d="M291.897 492.954C291.415 492.089 290.951 491.331 290.496 490.635C291.032 491.268 291.504 492.035 291.897 492.954C284.441 466.126 232.631 448.717 225.844 447.102C219.057 445.488 213.617 455.013 218.7 458.92C190.169 477.266 165.544 498.43 149.143 525.445C149.018 525.65 148.946 525.855 148.902 526.06C148.884 526.123 148.884 526.176 148.875 526.239C148.857 526.39 148.848 526.533 148.857 526.676C148.857 526.738 148.857 526.792 148.875 526.854C148.902 527.024 148.955 527.193 149.027 527.345C149.027 527.362 149.036 527.389 149.045 527.407C149.125 527.576 149.241 527.737 149.366 527.88C149.401 527.924 149.446 527.96 149.482 527.996C149.58 528.094 149.687 528.183 149.812 528.263C149.865 528.299 149.91 528.326 149.972 528.361C150.115 528.433 150.258 528.495 150.409 528.531C150.445 528.54 150.48 528.558 150.516 528.566C150.525 528.566 150.534 528.566 150.543 528.575C150.668 528.602 150.81 528.584 150.944 528.584C151.025 528.584 151.096 528.602 151.167 528.584C151.39 528.558 151.613 528.486 151.836 528.37C151.836 528.37 151.836 528.37 151.845 528.37C180.144 519.567 265.881 512.887 280.017 510.283C294.153 507.679 292.878 499.304 291.888 492.954H291.897ZM249.336 495.505C250.612 494.479 251.477 493.204 251.753 491.732C252.681 486.835 246.928 481.636 238.91 480.111C230.892 478.586 223.632 481.324 222.705 486.22C221.777 491.117 227.53 496.316 235.548 497.841C235.717 497.877 235.887 497.895 236.056 497.922C203.306 504.129 178.869 510.756 160.434 518.39C166.178 510.426 172.858 502.791 180.59 495.353C182.597 496.53 185.005 497.449 187.672 497.957C195.699 499.482 202.95 496.744 203.877 491.848C204.591 488.066 201.318 484.115 196.1 481.805C203.315 476.044 211.235 470.354 219.967 464.681C220.279 464.735 220.636 464.797 221.028 464.869C229.751 466.519 250.514 472.405 268.226 492.374C261.662 493.409 255.374 494.461 249.336 495.513V495.505Z" fill="#632784"/>
<path fill-rule="evenodd" clip-rule="evenodd" d="M104.983 549.851H21.1107C9.45384 549.851 0 559.305 0 570.961V738.697C0 750.354 9.45384 759.808 21.1107 759.808H188.846C200.503 759.808 209.957 750.354 209.957 738.697V570.961C209.957 559.305 200.503 549.851 188.846 549.851H104.974H104.983Z" fill="#632784"/>
<path d="M115.043 605.432L136.975 633.027C137.545 633.741 138.642 633.687 139.142 632.929L157.211 605.334C157.791 604.442 157.158 603.265 156.096 603.265H116.096C114.981 603.265 114.357 604.558 115.052 605.432H115.043Z" fill="#E44EFF"/>
<path d="M73.0624 632.938L94.9224 605.441C95.6181 604.567 94.9938 603.274 93.879 603.274H54.7344C53.682 603.274 53.0398 604.433 53.6017 605.325L70.8863 632.822C71.3768 633.598 72.4916 633.66 73.0624 632.947V632.938Z" fill="#E44EFF"/>
<path d="M92.9067 707.561L69.7893 643.525C69.602 642.998 69.0936 642.642 68.5317 642.642H29.735C28.5577 642.642 27.9513 644.06 28.7718 644.907L90.677 708.944C91.6759 709.978 93.3795 708.917 92.8979 707.561H92.9067Z" fill="#E44EFF"/>
<path d="M104.983 603.265C104.59 603.265 104.216 603.444 103.966 603.756L79.5732 634.436C78.8776 635.31 79.5019 636.604 80.6168 636.604H129.331C130.446 636.604 131.07 635.31 130.375 634.436L105.982 603.756C105.732 603.444 105.357 603.265 104.965 603.265H104.983Z" fill="#E44EFF"/>
<path d="M140.159 643.525L116.863 707.758C116.372 709.113 118.076 710.175 119.084 709.14L181.176 644.907C181.997 644.06 181.399 642.642 180.213 642.642H141.416C140.854 642.642 140.355 642.989 140.159 643.525Z" fill="#E44EFF"/>
<path d="M146.419 636.603H181.979C183.049 636.603 183.691 635.399 183.085 634.516L164.962 607.885C164.427 607.1 163.258 607.109 162.741 607.903L145.305 634.534C144.725 635.426 145.358 636.603 146.419 636.603Z" fill="#E44EFF"/>
<path d="M64.8483 634.561L47.6885 607.261C47.1802 606.449 45.994 606.422 45.4499 607.216L26.8721 634.517C26.2656 635.4 26.9078 636.604 27.978 636.604H63.7156C64.768 636.604 65.4102 635.444 64.8483 634.552V634.561Z" fill="#E44EFF"/>
<path d="M107.061 717.087L133.407 644.434C133.719 643.56 133.077 642.642 132.15 642.642H77.7985C76.8709 642.642 76.2288 643.56 76.5409 644.434L102.762 717.087C102.949 717.613 103.458 717.97 104.02 717.97H105.803C106.365 717.97 106.865 717.622 107.061 717.087Z" fill="#E44EFF"/>
<path d="M298.549 549.626H241.068C229.409 549.626 219.957 559.078 219.957 570.737V628.218C219.957 639.877 229.409 649.329 241.068 649.329H298.549C310.209 649.329 319.66 639.877 319.66 628.218V570.737C319.66 559.078 310.209 549.626 298.549 549.626Z" fill="#2AD0B7"/>
<path d="M260.207 574.572L264.078 565.332C266.21 560.239 273.425 560.239 275.557 565.332L279.427 574.572C282.317 581.484 287.811 586.978 294.732 589.867L303.972 593.738C309.064 595.87 309.064 603.085 303.972 605.216L294.732 609.087C287.82 611.977 282.326 617.471 279.427 624.383L275.557 633.623C273.425 638.715 266.21 638.715 264.078 633.623L260.207 624.383C257.318 617.471 251.824 611.977 244.912 609.087L235.672 605.216C230.579 603.085 230.579 595.87 235.672 593.738L244.912 589.867C251.824 586.978 257.318 581.484 260.207 574.572Z" fill="white"/>
<path d="M298.549 660.329H241.068C229.409 660.329 219.957 669.781 219.957 681.44V738.921C219.957 750.581 229.409 760.032 241.068 760.032H298.549C310.209 760.032 319.66 750.581 319.66 738.921V681.44C319.66 669.781 310.209 660.329 298.549 660.329Z" fill="#E44EFF"/>
<path d="M409.695 0.504883H352.214C340.555 0.504883 331.103 9.95648 331.103 21.6156V79.0972C331.103 90.7563 340.555 100.208 352.214 100.208H409.695C421.355 100.208 430.806 90.7563 430.806 79.0972V21.6156C430.806 9.95648 421.355 0.504883 409.695 0.504883Z" fill="#3D0F58"/>
<path d="M634.034 0.506348H459.354C449.11 0.506348 440.806 8.81071 440.806 19.0547V81.658C440.806 91.902 449.11 100.206 459.354 100.206H634.034C644.278 100.206 652.583 91.902 652.583 81.658V19.0547C652.583 8.81071 644.278 0.506348 634.034 0.506348Z" fill="#FADCFF"/>
<path d="M528.894 76.2067C518.191 85.9463 498.269 81.4809 484.385 66.2345C470.513 50.9881 467.942 30.7335 478.646 20.9828C489.349 11.2433 509.271 15.7086 523.155 30.9551C537.027 46.2015 539.598 66.4672 528.894 76.2067Z" fill="#2AD0B7"/>
<path d="M517.814 59.1874L534.468 67.1763C535.144 64.9159 535.487 62.4893 535.509 59.9519L518.867 51.9631L534.39 51.1875C533.703 48.495 532.706 45.7692 531.41 43.0657L515.875 43.8413L526.124 34.5117C525.205 33.3039 524.219 32.1073 523.166 30.9439C522.113 29.7805 521.016 28.6835 519.897 27.6531L509.648 36.9826L511.886 21.5922C509.316 20.0409 506.701 18.7889 504.075 17.8581L501.836 33.2375L495.454 15.9191C492.928 15.6975 490.479 15.8083 488.163 16.2737L494.557 33.6032L481.272 18.9993C480.352 19.5755 479.488 20.2293 478.668 20.9717C477.848 21.714 477.128 22.5229 476.463 23.3761L489.748 37.9798L473.094 29.991C472.418 32.2514 472.075 34.6779 472.053 37.2153L488.695 45.2041L473.172 45.9798C473.859 48.6723 474.856 51.398 476.152 54.1016L491.687 53.326L481.438 62.6555C482.357 63.8633 483.344 65.06 484.396 66.2123C485.449 67.3868 486.546 68.4726 487.665 69.5031L497.914 60.1736L495.676 75.564C498.246 77.1153 500.861 78.3673 503.487 79.2981L505.726 63.9187L512.108 81.2371C514.634 81.4587 517.083 81.3479 519.399 80.8825L513.005 63.553L526.291 78.1568C527.21 77.5806 528.074 76.9269 528.894 76.1845C529.714 75.4421 530.435 74.6332 531.099 73.7801L517.814 59.1763V59.1874Z" fill="#008880"/>
<path d="M523.399 70.1677C515.033 77.7798 499.465 74.2895 488.629 62.3672C477.781 50.4559 475.776 34.6223 484.141 27.0102C492.507 19.398 508.075 22.8883 518.911 34.7995C529.759 46.7108 531.764 62.5445 523.399 70.1566" fill="#008880"/>
<path d="M520.861 67.3758C513.582 74.0018 500.03 70.9658 490.59 60.5947C481.15 50.2236 479.399 36.4398 486.679 29.8138C493.958 23.1878 507.51 26.2238 516.95 36.5949C526.39 46.966 528.141 60.7498 520.861 67.3758Z" fill="#2AD0B7"/>
<path d="M528.894 76.2065C528.074 76.9489 527.21 77.5916 526.291 78.1789L522.202 81.9018C523.122 81.3256 523.986 80.6719 524.806 79.9296L528.894 76.2065Z" fill="#006860"/>
<path d="M519.388 80.8937L515.299 84.6167C517.792 84.1181 520.108 83.2095 522.202 81.8909L526.291 78.168C524.207 79.4865 521.881 80.3951 519.388 80.8937Z" fill="#1BAF96"/>
<path d="M512.097 81.2481L508.008 84.9711C510.534 85.1927 512.983 85.0819 515.299 84.6165L519.388 80.8936C517.072 81.3589 514.623 81.4587 512.097 81.2481Z" fill="#006860"/>
<path d="M495.676 75.5752L491.587 79.2981C494.158 80.8494 496.773 82.1014 499.399 83.0322L503.487 79.3092C500.872 78.3785 498.246 77.1264 495.676 75.5752Z" fill="#006860"/>
<path d="M484.385 66.2231C483.332 65.0597 482.346 63.8741 481.427 62.6553L477.338 66.3782C478.258 67.586 479.244 68.7827 480.296 69.9461C481.349 71.0984 482.435 72.1843 483.543 73.2148L487.632 69.4918C486.524 68.4613 485.427 67.3755 484.385 66.2231Z" fill="#006860"/>
<path d="M473.15 45.9907L469.061 49.7137C469.748 52.4062 470.745 55.1319 472.042 57.8355L476.13 54.1125C474.823 51.4089 473.826 48.6832 473.15 45.9907Z" fill="#006860"/>
<path d="M473.083 30.002L468.995 33.7249C468.319 35.9853 467.975 38.4119 467.953 40.9492L472.042 37.2262C472.064 34.6888 472.407 32.2623 473.083 30.002Z" fill="#006860"/>
<path d="M478.645 20.9829L474.557 24.7059C473.737 25.4482 473.017 26.2571 472.352 27.1102L476.441 23.3873C477.105 22.5341 477.826 21.7253 478.645 20.9829Z" fill="#006860"/>
<path d="M503.487 79.3203L499.399 83.0433C502.313 84.0849 505.205 84.7386 508.019 84.9713L512.108 81.2483C509.305 81.0046 506.401 80.3619 503.487 79.3203Z" fill="#1BAF96"/>
<path d="M487.643 69.4922L483.554 73.2152C486.102 75.5753 488.795 77.614 491.565 79.2872L495.654 75.5642C492.884 73.8911 490.191 71.8523 487.643 69.4922Z" fill="#1BAF96"/>
<path d="M476.141 54.1128L472.053 57.8358C473.46 60.7499 475.233 63.6197 477.338 66.3897L481.427 62.6668C479.321 59.9078 477.549 57.0269 476.141 54.1128Z" fill="#1BAF96"/>
<path d="M472.042 37.2266L467.953 40.9496C467.931 43.764 468.308 46.7224 469.061 49.714L473.15 45.9911C472.385 42.9994 472.008 40.052 472.042 37.2266Z" fill="#1BAF96"/>
<path d="M476.441 23.3872L472.352 27.1102C470.845 29.0603 469.726 31.2874 468.995 33.7251L473.083 30.0021C473.815 27.5645 474.934 25.3373 476.441 23.3872Z" fill="#1BAF96"/>
<path d="M618.821 76.2067C608.118 85.9463 588.196 81.4809 574.312 66.2345C560.44 50.9881 557.869 30.7335 568.572 20.9828C579.276 11.2433 599.198 15.7086 613.082 30.9551C626.954 46.2015 629.525 66.4672 618.821 76.2067Z" fill="#2AD0B7"/>
<path d="M607.73 59.1874L624.384 67.1763C625.059 64.9159 625.403 62.4893 625.425 59.9519L608.783 51.9631L624.306 51.1875C623.619 48.495 622.622 45.7692 621.325 43.0657L605.791 43.8413L616.04 34.5117C615.121 33.3039 614.134 32.1073 613.082 30.9439C612.029 29.7805 610.932 28.6835 609.813 27.6531L599.564 36.9826L601.802 21.5922C599.231 20.0409 596.617 18.7889 593.991 17.8581L591.752 33.2375L585.37 15.9191C582.844 15.6975 580.395 15.8083 578.079 16.2737L584.473 33.6032L571.187 18.9993C570.268 19.5755 569.403 20.2293 568.583 20.9717C567.764 21.714 567.043 22.5229 566.378 23.3761L579.664 37.9798L563.01 29.991C562.334 32.2514 561.991 34.6779 561.969 37.2153L578.611 45.2041L563.088 45.9798C563.775 48.6723 564.772 51.398 566.068 54.1016L581.603 53.326L571.354 62.6555C572.273 63.8633 573.259 65.06 574.312 66.2123C575.365 67.3868 576.462 68.4726 577.581 69.5031L587.83 60.1736L585.592 75.564C588.162 77.1153 590.777 78.3673 593.403 79.2981L595.641 63.9187L602.024 81.2371C604.55 81.4587 606.999 81.3479 609.314 80.8825L602.921 63.553L616.206 78.1568C617.126 77.5806 617.99 76.9269 618.81 76.1845C619.63 75.4421 620.35 74.6332 621.015 73.7801L607.73 59.1763V59.1874Z" fill="#008880"/>
<path d="M613.325 70.1677C604.96 77.7798 589.392 74.2895 578.556 62.3672C567.708 50.4559 565.703 34.6223 574.068 27.0102C582.434 19.398 598.002 22.8883 608.838 34.7995C619.686 46.7108 621.691 62.5445 613.325 70.1566" fill="#008880"/>
<path d="M610.788 67.3758C603.508 74.0018 589.957 70.9658 580.517 60.5947C571.076 50.2236 569.326 36.4398 576.605 29.8138C583.885 23.1878 597.436 26.2238 606.877 36.5949C616.317 46.966 618.068 60.7498 610.788 67.3758Z" fill="#2AD0B7"/>
<path d="M618.821 76.2065C618.001 76.9489 617.137 77.5916 616.217 78.1789L612.129 81.9018C613.049 81.3256 613.913 80.6719 614.733 79.9296L618.821 76.2065Z" fill="#006860"/>
<path d="M609.314 80.8937L605.226 84.6167C607.719 84.1181 610.035 83.2095 612.129 81.8909L616.217 78.168C614.134 79.4865 611.807 80.3951 609.314 80.8937Z" fill="#1BAF96"/>
<path d="M602.024 81.2481L597.935 84.9711C600.461 85.1927 602.91 85.0819 605.226 84.6165L609.314 80.8936C606.999 81.3589 604.55 81.4587 602.024 81.2481Z" fill="#006860"/>
<path d="M585.603 75.5752L581.514 79.2981C584.085 80.8494 586.7 82.1014 589.326 83.0322L593.414 79.3092C590.799 78.3785 588.173 77.1264 585.603 75.5752Z" fill="#006860"/>
<path d="M574.312 66.2231C573.259 65.0597 572.273 63.8741 571.354 62.6553L567.265 66.3782C568.185 67.586 569.171 68.7827 570.223 69.9461C571.276 71.0984 572.362 72.1843 573.47 73.2148L577.558 69.4918C576.45 68.4613 575.354 67.3755 574.312 66.2231Z" fill="#006860"/>
<path d="M563.077 45.9907L558.988 49.7137C559.675 52.4062 560.672 55.1319 561.969 57.8355L566.057 54.1125C564.75 51.4089 563.752 48.6832 563.077 45.9907Z" fill="#006860"/>
<path d="M563.01 30.002L558.922 33.7249C558.246 35.9853 557.902 38.4119 557.88 40.9492L561.969 37.2262C561.991 34.6888 562.334 32.2623 563.01 30.002Z" fill="#006860"/>
<path d="M568.572 20.9829L564.484 24.7059C563.664 25.4482 562.944 26.2571 562.279 27.1102L566.367 23.3873C567.032 22.5341 567.752 21.7253 568.572 20.9829Z" fill="#006860"/>
<path d="M593.403 79.3203L589.315 83.0433C592.229 84.0849 595.121 84.7386 597.935 84.9713L602.024 81.2483C599.22 81.0046 596.317 80.3619 593.403 79.3203Z" fill="#1BAF96"/>
<path d="M577.558 69.4922L573.47 73.2152C576.018 75.5753 578.711 77.614 581.481 79.2872L585.57 75.5642C582.799 73.8911 580.107 71.8523 577.558 69.4922Z" fill="#1BAF96"/>
<path d="M566.068 54.1128L561.98 57.8358C563.387 60.7499 565.16 63.6197 567.265 66.3897L571.354 62.6668C569.248 59.9078 567.475 57.0269 566.068 54.1128Z" fill="#1BAF96"/>
<path d="M561.969 37.2266L557.88 40.9496C557.858 43.764 558.235 46.7224 558.988 49.714L563.077 45.9911C562.312 42.9994 561.935 40.052 561.969 37.2266Z" fill="#1BAF96"/>
<path d="M566.367 23.3872L562.279 27.1102C560.772 29.0603 559.653 31.2874 558.922 33.7251L563.01 30.0021C563.741 27.5645 564.86 25.3373 566.367 23.3872Z" fill="#1BAF96"/>
<path d="M503.662 110.258H370.544C348.762 110.258 331.103 122.767 331.103 138.197V401.318C331.103 416.749 348.762 429.258 370.544 429.258H503.662C525.445 429.258 543.103 416.749 543.103 401.318V138.197C543.103 122.767 525.445 110.258 503.662 110.258Z" fill="#2AD0B7"/>
<path d="M478.108 177.394H395.7C391.509 177.394 388.103 173.988 388.103 169.797V154.287H485.705V169.797C485.705 173.988 482.299 177.394 478.108 177.394ZM472.198 187.211H401.593C399.99 187.211 398.705 188.496 398.705 190.099V193.872C398.705 195.475 399.99 196.76 401.593 196.76H472.198C473.801 196.76 475.086 195.475 475.086 193.872V190.099C475.086 188.496 473.801 187.211 472.198 187.211ZM478.108 361.711H395.7C391.509 361.711 388.103 365.117 388.103 369.308V384.818H485.705V369.308C485.705 365.117 482.299 361.711 478.108 361.711ZM472.198 342.345H401.593C399.99 342.345 398.705 343.63 398.705 345.233V349.006C398.705 350.609 399.99 351.894 401.593 351.894H472.198C473.801 351.894 475.086 350.609 475.086 349.006V345.233C475.086 343.63 473.801 342.345 472.198 342.345ZM466.922 206.577V332.528H406.869V206.577H466.922ZM422.345 218.498C422.345 217.129 421.244 216.027 419.875 216.027C418.506 216.027 417.404 217.129 417.404 218.498V320.607C417.404 321.976 418.506 323.078 419.875 323.078C421.244 323.078 422.345 321.976 422.345 320.607V218.498ZM439.358 218.498C439.358 217.129 438.256 216.027 436.887 216.027C435.518 216.027 434.416 217.129 434.416 218.498V320.607C434.416 321.976 435.518 323.078 436.887 323.078C438.256 323.078 439.358 321.976 439.358 320.607V218.498ZM456.387 218.498C456.387 217.129 455.286 216.027 453.917 216.027C452.548 216.027 451.446 217.129 451.446 218.498V320.607C451.446 321.976 452.548 323.078 453.917 323.078C455.286 323.078 456.387 321.976 456.387 320.607V218.498Z" fill="#27003A"/>
<path d="M634.255 110.208H571.651C561.408 110.208 553.103 118.512 553.103 128.756V191.36C553.103 201.604 561.408 209.908 571.651 209.908H634.255C644.499 209.908 652.803 201.604 652.803 191.36V128.756C652.803 118.512 644.499 110.208 634.255 110.208Z" fill="#E44EFF"/>
<path d="M638.332 150.008C635.496 153.211 630.787 155.936 624.87 157.864C625.202 157.343 625.501 156.645 625.634 156.313C625.8 155.814 625.889 155.305 625.889 154.795C625.889 150.452 619.895 146.762 611.496 145.344L604.626 124.912C604.371 124.912 604.116 124.912 603.85 124.912C583.153 124.912 566.377 132.989 566.377 142.95V174.219C566.377 177.022 567.707 179.681 570.078 182.041V174.662C570.078 171.338 571.264 169.011 572.715 169.465C574.178 169.92 575.352 172.978 575.352 176.302V185.919C577.147 186.939 579.175 187.858 581.391 188.656V181.1C581.391 177.731 583.419 175.194 585.923 175.426C588.427 175.67 590.455 178.595 590.455 181.964V191.061C592.859 191.504 595.385 191.836 598 192.036V183.714C598 180.346 600.737 177.609 604.105 177.609C607.474 177.609 610.211 180.346 610.211 183.714V191.991C612.825 191.781 615.352 191.426 617.756 190.972V181.975C617.756 178.606 619.784 175.681 622.288 175.437C624.792 175.194 626.82 177.731 626.82 181.111V188.468C629.047 187.637 631.075 186.684 632.859 185.631V176.313C632.859 172.989 634.044 169.931 635.496 169.476C636.958 169.022 638.133 171.349 638.133 174.673V181.487C640.172 179.26 641.313 176.8 641.313 174.219V151.083L638.321 150.019L638.332 150.008ZM602.177 128.324L607.74 144.867C606.477 144.767 605.191 144.712 603.862 144.712C592.327 144.712 582.865 148.767 581.923 153.931C574.333 151.05 569.801 146.862 569.801 142.928C569.801 136.202 583.009 128.734 602.177 128.324ZM575.352 167.615C573.269 166.44 571.485 165.133 570.078 163.737V163.05C570.078 159.726 571.264 157.399 572.715 157.853C574.178 158.307 575.352 161.366 575.352 164.69V167.626V167.615ZM590.466 172.756C587.197 172.158 584.15 171.338 581.402 170.352V169.487C581.402 166.119 583.43 163.582 585.934 163.814C588.438 164.058 590.466 166.983 590.466 170.352V172.767V172.756ZM610.222 173.687C608.15 173.853 606.033 173.953 603.862 173.953C601.878 173.953 599.928 173.875 598.022 173.731V172.091C598.022 168.723 600.759 165.986 604.127 165.986C607.496 165.986 610.233 168.723 610.233 172.091V173.687H610.222ZM626.831 170.152C624.083 171.183 621.036 172.025 617.767 172.656V170.341C617.767 166.972 619.795 164.047 622.299 163.803C624.803 163.559 626.831 166.097 626.831 169.476V170.152ZM638.155 163.172C636.781 164.667 635.008 166.064 632.881 167.316V164.679C632.881 161.355 634.066 158.296 635.518 157.842C636.98 157.388 638.155 159.715 638.155 163.039V163.172Z" fill="#FADCFF"/>
<path d="M634.255 219.908H571.651C561.407 219.908 553.103 228.213 553.103 238.457V301.06C553.103 311.304 561.407 319.608 571.651 319.608H634.255C644.499 319.608 652.803 311.304 652.803 301.06V238.457C652.803 228.213 644.499 219.908 634.255 219.908Z" fill="#FADCFF"/>
<path d="M636.404 275.764C636.404 285.836 628.559 289.371 622.554 289.371C613.944 289.371 608.87 281.925 602.864 281.925C596.859 281.925 591.784 289.371 583.175 289.371C577.158 289.371 569.502 285.836 569.502 275.764C569.502 265.692 582.166 250.279 592.382 243.221C596.637 240.285 600.471 238.424 602.776 238.335C602.809 238.335 602.842 238.335 602.864 238.335H602.909C602.997 238.335 603.086 238.335 603.175 238.335C605.402 238.446 609.036 240.174 613.091 242.922C623.374 249.903 636.404 265.415 636.404 275.764ZM602.953 289.869C598.122 289.869 590.754 297.049 590.754 298.667C590.754 300.285 596.77 301.204 602.953 301.204C609.136 301.204 615.152 300.296 615.152 298.667C615.152 297.038 607.784 289.869 602.953 289.869Z" fill="#27003A"/>
<path d="M634.255 329.608H571.651C561.407 329.608 553.103 337.912 553.103 348.156V410.76C553.103 421.004 561.407 429.308 571.651 429.308H634.255C644.499 429.308 652.803 421.004 652.803 410.76V348.156C652.803 337.912 644.499 329.608 634.255 329.608Z" fill="#E77BFF"/>
<path d="M623.277 439.308H359.149C343.66 439.308 331.103 451.865 331.103 467.354V731.482C331.103 746.971 343.66 759.528 359.149 759.528H623.277C638.766 759.528 651.323 746.971 651.323 731.482V467.354C651.323 451.865 638.766 439.308 623.277 439.308Z" fill="#632784"/>
<path d="M515.565 507.396L610.359 532.795C616.575 534.454 620.261 540.854 618.602 547.07L582.129 683.163C580.47 689.379 574.07 693.065 567.854 691.406L473.06 666.007C466.844 664.348 463.158 657.948 464.817 651.732L501.291 515.639C502.949 509.424 509.349 505.738 515.565 507.396Z" fill="#FADCFF"/>
<path d="M579.348 616.7C576.952 625.63 567.771 630.924 558.841 628.545C548.654 625.814 545.035 615.41 537.932 613.5C530.828 611.59 522.484 618.794 512.298 616.063C503.368 613.667 498.074 604.486 500.47 595.556C502.866 586.626 512.047 581.332 520.977 583.728C522.501 584.13 524.043 584.917 525.4 585.789C529.32 588.285 532.168 587.196 531.213 582.421C530.661 579.657 530.476 576.725 531.247 573.793C533.643 564.863 542.824 559.569 551.754 561.964C560.684 564.36 565.978 573.541 563.582 582.471C562.795 585.403 561.17 587.833 559.31 589.96C556.093 593.613 558.02 595.992 562.711 595.774C564.319 595.707 566.012 595.791 567.519 596.21C576.449 598.605 581.744 607.787 579.348 616.717" fill="#27003A"/>
<path d="M535.419 622.882C529.705 621.357 518.732 627.506 518.212 629.416C517.71 631.326 524.528 634.325 531.833 636.269C539.138 638.229 546.543 639.05 547.046 637.14C547.565 635.213 541.132 624.407 535.419 622.882Z" fill="#27003A"/>
<path d="M535.368 540.854C534.497 544.104 531.146 546.048 527.896 545.176C524.177 544.188 522.87 540.385 520.273 539.698C517.693 539.011 514.644 541.625 510.924 540.636C507.674 539.765 505.73 536.414 506.618 533.164C507.489 529.914 510.84 527.97 514.091 528.858C514.644 529.009 515.213 529.294 515.699 529.612C517.123 530.517 518.162 530.115 517.81 528.389C517.609 527.384 517.542 526.311 517.81 525.239C518.681 521.989 522.032 520.045 525.282 520.933C528.533 521.805 530.476 525.155 529.588 528.406C529.303 529.478 528.717 530.366 528.03 531.137C526.857 532.46 527.561 533.331 529.27 533.264C529.856 533.248 530.476 533.264 531.029 533.415C534.279 534.286 536.223 537.637 535.335 540.887" fill="#27003A"/>
<path d="M519.352 543.116C517.274 542.563 513.27 544.808 513.086 545.495C512.901 546.182 515.381 547.288 518.045 547.991C520.709 548.712 523.406 549.014 523.59 548.31C523.775 547.606 521.429 543.669 519.352 543.116Z" fill="#27003A"/>
<path d="M548.068 657.948C548.939 654.698 552.29 652.754 555.54 653.626C559.26 654.614 560.566 658.417 563.163 659.104C565.743 659.791 568.793 657.177 572.512 658.166C575.762 659.037 577.706 662.388 576.818 665.638C575.947 668.889 572.596 670.832 569.346 669.944C568.793 669.793 568.223 669.508 567.737 669.19C566.313 668.285 565.274 668.688 565.626 670.413C565.827 671.418 565.894 672.491 565.626 673.563C564.755 676.813 561.404 678.757 558.154 677.869C554.903 676.998 552.96 673.647 553.848 670.397C554.133 669.324 554.719 668.436 555.406 667.666C556.579 666.342 555.875 665.471 554.166 665.538C553.58 665.555 552.96 665.538 552.407 665.387C549.157 664.516 547.213 661.165 548.101 657.915" fill="#27003A"/>
<path d="M564.085 655.703C566.162 656.256 570.166 654.011 570.351 653.324C570.535 652.637 568.056 651.531 565.392 650.828C562.728 650.107 560.03 649.806 559.846 650.509C559.662 651.213 562.007 655.15 564.085 655.703Z" fill="#27003A"/>
<path d="M509.349 666.007L414.555 691.406C408.339 693.065 401.939 689.379 400.28 683.163L363.807 547.07C362.148 540.854 365.834 534.454 372.05 532.795L466.844 507.396C473.06 505.738 479.46 509.424 481.119 515.639L517.592 651.732C519.251 657.948 515.565 664.348 509.349 666.007Z" fill="#FADCFF"/>
<path d="M477.282 578.517C483.096 598.773 460.997 625.764 449.219 629.148C437.441 632.533 404.402 621.341 398.588 601.085C396.293 593.077 396.595 581.5 406.446 577.194C414.32 573.743 422.128 577.697 427.506 583.46C430.89 587.096 433.973 588.402 437.24 587.464C440.507 586.526 442.501 583.812 443.405 579.02C444.88 571.179 449.403 563.69 457.931 562.434C468.553 560.876 474.97 570.526 477.265 578.534" fill="#E44EFF"/>
<path d="M475.925 653.023C474.216 646.623 481.303 638.279 485.023 637.274C488.742 636.285 499.062 639.971 500.771 646.371C501.441 648.901 501.291 652.537 498.174 653.844C495.678 654.882 493.249 653.609 491.59 651.766C490.551 650.61 489.58 650.175 488.558 650.459C487.519 650.727 486.882 651.582 486.581 653.073C486.078 655.536 484.604 657.848 481.923 658.2C478.572 658.635 476.612 655.569 475.942 653.039" fill="#E44EFF"/>
<path d="M405.474 545.797C407.183 552.197 400.096 560.54 396.377 561.546C392.657 562.534 382.337 558.848 380.628 552.448C379.958 549.918 380.109 546.283 383.225 544.976C385.721 543.937 388.15 545.21 389.809 547.053C390.848 548.209 391.82 548.645 392.842 548.36C393.88 548.092 394.517 547.238 394.819 545.747C395.321 543.284 396.796 540.972 399.476 540.62C402.827 540.184 404.787 543.25 405.458 545.78" fill="#E44EFF"/>
</svg>
