<svg width="970" height="761" viewBox="0 0 970 761" fill="none" xmlns="http://www.w3.org/2000/svg">
<path d="M299.109 0H21.1107C9.45154 0 0 9.45162 0 21.1108V299.109C0 310.768 9.45154 320.22 21.1107 320.22H299.109C310.768 320.22 320.22 310.768 320.22 299.109V21.1108C320.22 9.45162 310.768 0 299.109 0Z" fill="#FADCFF"/>
<path d="M271.309 132.863C262.15 143.191 246.97 151.976 227.893 158.211C228.945 156.516 229.917 154.277 230.345 153.198C230.872 151.593 231.148 149.952 231.148 148.284C231.148 134.29 211.83 122.375 184.735 117.791L162.598 51.9076C161.769 51.9076 160.948 51.8809 160.11 51.8809C93.3618 51.8809 39.2605 77.9237 39.2605 110.058V210.885C39.2605 219.929 43.5504 228.491 51.1938 236.125V212.339C51.1938 201.627 55.0021 194.127 59.7023 195.589C64.4025 197.052 68.2108 206.916 68.2108 217.628V248.647C74.017 251.92 80.5366 254.881 87.6984 257.468V233.102C87.6984 222.23 94.2448 214.051 102.325 214.818C110.397 215.585 116.943 225.021 116.943 235.893V265.227C124.702 266.654 132.845 267.724 141.282 268.358V241.512C141.282 230.64 150.094 221.837 160.957 221.837C171.82 221.837 180.641 230.649 180.641 241.512V268.215C189.087 267.519 197.23 266.404 204.971 264.906V235.893C204.971 225.021 211.518 215.594 219.598 214.818C227.67 214.051 234.216 222.23 234.216 233.102V256.826C241.405 254.141 247.942 251.073 253.704 247.684V217.619C253.704 206.907 257.512 197.034 262.212 195.58C266.912 194.118 270.721 201.618 270.721 212.33V234.324C277.294 227.153 280.968 219.224 280.968 210.885V136.288L271.309 132.872V132.863ZM154.687 62.949L172.614 116.292C168.556 115.962 164.382 115.784 160.119 115.784C122.919 115.784 92.4164 128.868 89.3572 145.528C64.8752 136.235 50.2841 122.732 50.2841 110.049C50.2841 88.3765 92.8891 64.2869 154.696 62.949H154.687ZM68.2108 189.658C61.4861 185.868 55.7335 181.676 51.1938 177.136V174.907C51.1938 164.195 55.0021 156.694 59.7023 158.157C64.4025 159.62 68.2108 169.484 68.2108 180.195V189.658ZM116.943 206.238C106.41 204.294 96.5725 201.681 87.6984 198.479V195.678C87.6984 184.806 94.2448 176.628 102.325 177.395C110.397 178.162 116.943 187.598 116.943 198.47V206.247V206.238ZM180.632 209.226C173.961 209.779 167.111 210.082 160.11 210.082C153.697 210.082 147.41 209.841 141.274 209.378V204.089C141.274 193.217 150.085 184.414 160.948 184.414C171.811 184.414 180.632 193.226 180.632 204.089V209.226ZM234.216 197.846C225.369 201.155 215.54 203.893 204.971 205.926V198.47C204.971 187.598 211.518 178.171 219.598 177.395C227.67 176.628 234.216 184.806 234.216 195.678V197.846ZM270.721 175.344C266.297 180.178 260.562 184.664 253.704 188.704V180.204C253.704 169.493 257.512 159.62 262.212 158.166C266.912 156.703 270.721 164.204 270.721 174.915V175.344Z" fill="#E44EFF"/>
<path d="M78.5923 330.22H21.1107C9.45154 330.22 0 339.672 0 351.331V408.813C0 420.472 9.45154 429.923 21.1107 429.923H78.5923C90.2515 429.923 99.7031 420.472 99.7031 408.813V351.331C99.7031 339.672 90.2515 330.22 78.5923 330.22Z" fill="#E77BFF"/>
<path d="M78.5923 439.923H21.1107C9.45154 439.923 0 449.375 0 461.034V518.516C0 530.175 9.45154 539.626 21.1107 539.626H78.5923C90.2515 539.626 99.7031 530.175 99.7031 518.516V461.034C99.7031 449.375 90.2515 439.923 78.5923 439.923Z" fill="#632784"/>
<path d="M88.501 496.647C88.501 505.396 81.4106 512.496 72.6613 512.496C62.6811 512.496 56.8126 503.862 49.856 503.862C42.8993 503.862 37.0218 512.496 27.0506 512.496C18.3013 512.496 11.2108 505.396 11.2108 496.647C11.2108 487.898 18.3013 480.807 27.0506 480.807C28.5489 480.807 30.1365 481.146 31.5991 481.61C35.791 482.93 38.1366 481.235 36.0853 477.106C34.8991 474.707 34.0073 472.076 34.0073 469.213C34.0073 460.463 41.0977 453.373 49.847 453.373C58.5964 453.373 65.6868 460.463 65.6868 469.213C65.6868 472.076 64.7949 474.707 63.6087 477.106C61.5663 481.226 63.9031 482.93 68.1484 481.592C69.5932 481.137 71.1718 480.807 72.6523 480.807C81.4016 480.807 88.4921 487.898 88.4921 496.647" fill="#2AD0B7"/>
<path d="M49.8559 513.058C44.2639 513.058 35.7285 521.379 35.7285 523.243C35.7285 525.107 42.6942 526.177 49.8559 526.177C57.0177 526.177 63.9833 525.125 63.9833 523.243C63.9833 521.361 55.448 513.058 49.8559 513.058Z" fill="#2AD0B7"/>
<path d="M78.5923 549.626H21.1107C9.45154 549.626 0 559.078 0 570.737V628.219C0 639.878 9.45154 649.33 21.1107 649.33H78.5923C90.2515 649.33 99.7031 639.878 99.7031 628.219V570.737C99.7031 559.078 90.2515 549.626 78.5923 549.626Z" fill="#FADCFF"/>
<path d="M14.5914 574.046L12.6649 569.997H87.0298L85.1033 574.046V586.185H14.5825V574.046H14.5914ZM14.5914 595.701V628.959H22.0029V616.437C22.0029 612.977 24.4021 610.176 27.3631 610.176C30.3241 610.176 32.7233 612.977 32.7233 616.437V628.959H40.1348V609.552C40.1348 604.192 44.4783 599.848 49.8385 599.848C55.1987 599.848 59.5421 604.192 59.5421 609.552V628.959H66.9536V616.437C66.9536 612.977 69.3527 610.176 72.3138 610.176C75.2748 610.176 77.674 612.977 77.674 616.437V628.959H85.0855V595.701L87.0119 590.822H12.6471L14.5736 595.701H14.5914Z" fill="#632784"/>
<path d="M81.1517 659.33H18.5484C8.30443 659.33 0 667.634 0 677.878V740.481C0 750.725 8.30443 759.03 18.5484 759.03H81.1517C91.3957 759.03 99.7001 750.725 99.7001 740.481V677.878C99.7001 667.634 91.3957 659.33 81.1517 659.33Z" fill="#E44EFF"/>
<path d="M190.932 330.22H128.328C118.084 330.22 109.78 338.525 109.78 348.769V411.372C109.78 421.616 118.084 429.92 128.328 429.92H190.932C201.176 429.92 209.48 421.616 209.48 411.372V348.769C209.48 338.525 201.176 330.22 190.932 330.22Z" fill="#2AD0B7"/>
<path d="M175.907 352.403H143.364C140.583 352.403 138.323 350.142 138.323 347.361V342.32H180.949V347.361C180.949 350.142 178.688 352.403 175.907 352.403ZM174.389 356.691H144.871C143.808 356.691 142.955 357.544 142.955 358.608V358.94C142.955 360.004 143.808 360.857 144.871 360.857H174.389C175.453 360.857 176.306 360.004 176.306 358.94V358.608C176.306 357.544 175.453 356.691 174.389 356.691ZM175.907 407.726H143.364C140.583 407.726 138.323 409.987 138.323 412.768V417.81H180.949V412.768C180.949 409.987 178.688 407.726 175.907 407.726ZM174.389 399.272H144.871C143.808 399.272 142.955 400.125 142.955 401.189V401.522C142.955 402.585 143.808 403.438 144.871 403.438H174.389C175.453 403.438 176.306 402.585 176.306 401.522V401.189C176.306 400.125 175.453 399.272 174.389 399.272ZM172.749 365.145V394.984H146.522V365.145H172.749ZM153.281 370.353C153.281 369.754 152.794 369.278 152.207 369.278C151.619 369.278 151.132 369.766 151.132 370.353V389.788C151.132 390.386 151.619 390.862 152.207 390.862C152.794 390.862 153.281 390.375 153.281 389.788V370.353ZM160.705 370.353C160.705 369.754 160.218 369.278 159.63 369.278C159.043 369.278 158.556 369.766 158.556 370.353V389.788C158.556 390.386 159.043 390.862 159.63 390.862C160.218 390.862 160.705 390.375 160.705 389.788V370.353ZM168.14 370.353C168.14 369.754 167.652 369.278 167.065 369.278C166.478 369.278 165.99 369.766 165.99 370.353V389.788C165.99 390.386 166.478 390.862 167.065 390.862C167.652 390.862 168.14 390.375 168.14 389.788V370.353Z" fill="#27003A"/>
<path d="M300.632 330.22H238.028C227.784 330.22 219.48 338.525 219.48 348.769V411.372C219.48 421.616 227.784 429.92 238.028 429.92H300.632C310.876 429.92 319.18 421.616 319.18 411.372V348.769C319.18 338.525 310.876 330.22 300.632 330.22Z" fill="#632784"/>
<path fill-rule="evenodd" clip-rule="evenodd" d="M214.763 439.92H130.891C119.234 439.92 109.78 449.374 109.78 461.031V739.03C109.78 750.687 119.234 760.14 130.891 760.14H298.626C310.283 760.14 319.737 750.687 319.737 739.03V461.031C319.737 449.374 310.283 439.92 298.626 439.92H214.754H214.763Z" fill="#E44EFF"/>
<path fill-rule="evenodd" clip-rule="evenodd" d="M278.095 560.654C280.281 558.594 281.877 556.168 282.76 553.421C285.079 546.152 281.975 537.902 275.099 530.366C277.534 528.216 279.406 525.353 280.414 521.527C285.819 500.907 269.043 479.448 250.84 467.06C248.36 465.375 244.258 465.383 244.686 469.022C247.424 492.488 213.078 481.304 206.21 499.944C205.274 502.468 205.336 505.179 206.148 507.935C195.775 509.995 188.149 515.008 185.768 522.473C184.885 525.229 184.796 528.127 185.376 531.07C173.987 534.067 165.701 540.078 162.945 548.703C162.151 551.173 161.884 553.742 162.035 556.346C164.372 575.7 195.953 592.619 216.993 599.504C238.023 606.39 269.034 610.742 282.475 594.777C284.116 592.744 285.373 590.487 286.158 588.026C288.914 579.401 285.632 569.698 278.087 560.663L278.095 560.654ZM226.161 504.341C230.309 496.234 255.406 492.827 254.648 478.539C254.532 476.407 257.814 474.079 258.786 477.763C262.291 491.079 249.448 497.884 246.728 505.34C242.429 517.086 259.625 520.76 271.674 518.682C276.196 517.897 274.965 520.778 273.012 521.483C254.648 528.083 219.776 516.809 226.17 504.35L226.161 504.341ZM199.182 516.06C200.68 512.921 202.678 510.646 202.553 516.595C202.197 532.997 252.677 550.237 269.409 549.407C272.486 549.256 274.403 551.976 269.774 553.394C243.999 561.252 188.381 538.669 199.182 516.06ZM269.203 591.129C236.106 601.217 164.684 572.222 178.553 543.182C180.479 539.151 183.048 536.234 182.878 543.869C182.424 564.935 247.245 587.071 268.74 586.01C272.691 585.814 275.161 589.319 269.203 591.129ZM212.56 613.025C221.8 616.049 246.202 622.836 267.634 618.403L165.924 739.484C162.963 743.007 157.228 740.876 157.282 736.274L159.11 580.9C174.682 598.505 201.412 609.047 208.244 611.536C209.715 612.071 211.16 612.57 212.551 613.025H212.56Z" fill="#632784"/>
<path fill-rule="evenodd" clip-rule="evenodd" d="M435.203 0.27832H351.331C339.674 0.27832 330.22 9.73224 330.22 21.3891V189.125C330.22 200.781 339.674 210.235 351.331 210.235H519.066C530.723 210.235 540.177 200.781 540.177 189.125V21.3891C540.177 9.73224 530.723 0.27832 519.066 0.27832H435.194H435.203Z" fill="#632784"/>
<path d="M445.263 55.8602L467.195 83.4549C467.765 84.1684 468.862 84.1148 469.362 83.3568L487.431 55.762C488.011 54.8702 487.378 53.6929 486.317 53.6929H446.316C445.201 53.6929 444.577 54.9861 445.272 55.8602H445.263Z" fill="#E44EFF"/>
<path d="M403.283 83.3655L425.142 55.8689C425.838 54.9949 425.214 53.7017 424.099 53.7017H384.954C383.902 53.7017 383.26 54.8611 383.822 55.753L401.106 83.2496C401.597 84.0255 402.712 84.088 403.283 83.3745V83.3655Z" fill="#E44EFF"/>
<path d="M423.127 157.989L400.009 93.9523C399.822 93.4261 399.314 93.0693 398.752 93.0693H359.955C358.778 93.0693 358.171 94.4874 358.992 95.3347L420.897 159.372C421.896 160.406 423.6 159.345 423.118 157.989H423.127Z" fill="#E44EFF"/>
<path d="M435.203 53.6929C434.81 53.6929 434.436 53.8713 434.186 54.1834L409.793 84.864C409.098 85.7381 409.722 87.0313 410.837 87.0313H459.551C460.666 87.0313 461.29 85.7381 460.595 84.864L436.202 54.1834C435.952 53.8713 435.577 53.6929 435.185 53.6929H435.203Z" fill="#E44EFF"/>
<path d="M470.379 93.9523L447.083 158.185C446.592 159.541 448.296 160.602 449.304 159.568L511.396 95.3347C512.217 94.4874 511.619 93.0693 510.433 93.0693H471.636C471.074 93.0693 470.575 93.4172 470.379 93.9523Z" fill="#E44EFF"/>
<path d="M476.64 87.0311H512.199C513.269 87.0311 513.911 85.827 513.305 84.9441L495.182 58.3126C494.647 57.5278 493.478 57.5367 492.961 58.3304L475.525 84.9619C474.945 85.8538 475.578 87.0311 476.64 87.0311Z" fill="#E44EFF"/>
<path d="M395.068 84.989L377.909 57.6886C377.4 56.877 376.214 56.8502 375.67 57.644L357.092 84.9444C356.486 85.8273 357.128 87.0314 358.198 87.0314H393.936C394.988 87.0314 395.63 85.8719 395.068 84.9801V84.989Z" fill="#E44EFF"/>
<path d="M437.281 167.514L463.627 94.862C463.939 93.988 463.297 93.0693 462.37 93.0693H408.019C407.091 93.0693 406.449 93.988 406.761 94.862L432.982 167.514C433.169 168.041 433.678 168.397 434.24 168.397H436.024C436.585 168.397 437.085 168.05 437.281 167.514Z" fill="#E44EFF"/>
<path d="M628.77 0.553711H571.288C559.629 0.553711 550.177 10.0053 550.177 21.6645V79.146C550.177 90.8052 559.629 100.257 571.288 100.257H628.77C640.429 100.257 649.88 90.8052 649.88 79.146V21.6645C649.88 10.0053 640.429 0.553711 628.77 0.553711Z" fill="#2AD0B7"/>
<path d="M590.428 25.4993L594.298 16.2594C596.43 11.1668 603.645 11.1668 605.777 16.2594L609.647 25.4993C612.537 32.4113 618.031 37.9053 624.952 40.795L634.192 44.6657C639.285 46.7973 639.285 54.0126 634.192 56.1442L624.952 60.015C618.04 62.9047 612.546 68.3986 609.647 75.3107L605.777 84.5505C603.645 89.6432 596.43 89.6432 594.298 84.5505L590.428 75.3107C587.538 68.3986 582.044 62.9047 575.132 60.015L565.892 56.1442C560.799 54.0126 560.799 46.7973 565.892 44.6657L575.132 40.795C582.044 37.9053 587.538 32.4113 590.428 25.4993Z" fill="white"/>
<path d="M628.77 110.257H571.288C559.629 110.257 550.177 119.708 550.177 131.368V188.849C550.177 200.508 559.629 209.96 571.288 209.96H628.77C640.429 209.96 649.88 200.508 649.88 188.849V131.368C649.88 119.708 640.429 110.257 628.77 110.257Z" fill="#3D0F58"/>
<path d="M408.812 220.235H351.331C339.672 220.235 330.22 229.687 330.22 241.346V298.828C330.22 310.487 339.672 319.938 351.331 319.938H408.812C420.472 319.938 429.923 310.487 429.923 298.828V241.346C429.923 229.687 420.472 220.235 408.812 220.235Z" fill="#E77BFF"/>
<path d="M416.982 270.091C416.982 290.48 400.455 306.997 380.076 306.997C359.697 306.997 343.17 290.471 343.17 270.091C343.17 249.712 359.697 233.186 380.076 233.186C400.455 233.186 416.982 249.712 416.982 270.091Z" fill="#632784"/>
<path d="M410.266 270.092C410.266 286.77 396.745 300.291 380.067 300.291C363.389 300.291 349.868 286.77 349.868 270.092C349.868 253.413 363.389 239.893 380.067 239.893C396.745 239.893 410.266 253.413 410.266 270.092Z" stroke="#E44EFF" stroke-width="2.37" stroke-miterlimit="10"/>
<path d="M381.03 268.245C390.27 268.129 398.003 266.426 400.714 264.098C401.392 264.678 401.758 265.293 401.758 265.935C401.758 267.55 399.448 269.012 395.693 270.083C399.448 271.162 401.758 272.624 401.758 274.23C401.758 274.872 401.392 275.487 400.714 276.067C397.931 273.686 389.896 271.956 380.37 271.92L381.03 268.236V268.245Z" fill="#E44EFF"/>
<path d="M378.89 280.214L378.23 283.871C378.836 283.889 379.443 283.898 380.067 283.898C392.054 283.898 401.766 281.213 401.766 277.913C401.766 277.271 401.401 276.656 400.723 276.076C397.913 278.484 389.726 280.223 380.067 280.223C379.675 280.223 379.282 280.223 378.89 280.214Z" fill="#E44EFF"/>
<path d="M401.766 262.27C401.766 259.255 393.686 256.758 383.171 256.348L382.52 259.995C391.1 260.263 398.154 261.904 400.732 264.107C401.41 263.527 401.775 262.912 401.775 262.27" fill="#E44EFF"/>
<path d="M377.079 280.17C368.749 279.849 361.935 278.235 359.42 276.076C358.742 276.656 358.377 277.271 358.377 277.913C358.377 280.874 366.181 283.336 376.428 283.818L377.079 280.17Z" fill="#E44EFF"/>
<path d="M379.211 268.245C369.926 268.147 362.14 266.435 359.411 264.098C358.733 264.678 358.368 265.293 358.368 265.935C358.368 267.55 360.678 269.012 364.432 270.083C360.678 271.162 358.368 272.624 358.368 274.23C358.368 274.872 358.733 275.487 359.411 276.067C362.069 273.784 369.552 272.107 378.542 271.929L379.202 268.236L379.211 268.245Z" fill="#E44EFF"/>
<path d="M359.42 264.107C362.229 261.699 370.417 259.96 380.076 259.96C380.29 259.96 380.495 259.96 380.709 259.96L381.369 256.294C380.941 256.294 380.513 256.285 380.085 256.285C368.107 256.285 358.385 258.97 358.385 262.27C358.385 262.912 358.751 263.527 359.429 264.107" fill="#E44EFF"/>
<path fill-rule="evenodd" clip-rule="evenodd" d="M544.906 220.235H461.034C449.377 220.235 439.923 229.689 439.923 241.346V298.828C439.923 310.485 449.377 319.938 461.034 319.938H628.769C640.426 319.938 649.88 310.485 649.88 298.828V241.346C649.88 229.689 640.426 220.235 628.769 220.235H544.897H544.906Z" fill="white"/>
<path d="M621.117 273.266C620.635 272.401 620.171 271.643 619.717 270.947C620.252 271.581 620.724 272.348 621.117 273.266C613.661 246.439 561.851 229.029 555.064 227.415C548.277 225.801 542.837 235.326 547.92 239.232C519.389 257.578 494.764 278.742 478.363 305.757C478.238 305.963 478.166 306.168 478.122 306.373C478.104 306.435 478.104 306.489 478.095 306.551C478.077 306.703 478.068 306.845 478.077 306.988C478.077 307.051 478.077 307.104 478.095 307.167C478.122 307.336 478.175 307.505 478.247 307.657C478.247 307.675 478.256 307.702 478.265 307.72C478.345 307.889 478.461 308.05 478.586 308.192C478.621 308.237 478.666 308.272 478.702 308.308C478.8 308.406 478.907 308.495 479.032 308.576C479.085 308.611 479.13 308.638 479.192 308.674C479.335 308.745 479.478 308.808 479.629 308.843C479.665 308.852 479.701 308.87 479.736 308.879C479.745 308.879 479.754 308.879 479.763 308.888C479.888 308.915 480.031 308.897 480.164 308.897C480.245 308.897 480.316 308.915 480.387 308.897C480.61 308.87 480.833 308.799 481.056 308.683C481.056 308.683 481.056 308.683 481.065 308.683C509.364 299.88 595.101 293.2 609.237 290.595C623.373 287.991 622.098 279.616 621.108 273.266H621.117ZM578.556 275.817C579.832 274.791 580.697 273.516 580.973 272.044C581.901 267.148 576.148 261.948 568.13 260.423C560.112 258.898 552.852 261.636 551.925 266.533C550.997 271.429 556.75 276.629 564.768 278.154C564.937 278.189 565.107 278.207 565.276 278.234C532.526 284.442 508.089 291.068 489.654 298.703C495.398 290.738 502.078 283.104 509.81 275.665C511.817 276.843 514.225 277.761 516.892 278.27C524.919 279.795 532.17 277.057 533.097 272.16C533.811 268.379 530.538 264.428 525.32 262.118C532.535 256.356 540.455 250.666 549.187 244.994C549.499 245.047 549.856 245.11 550.248 245.181C558.971 246.831 579.734 252.717 597.446 272.687C590.882 273.721 584.594 274.774 578.556 275.826V275.817Z" fill="#632784"/>
<path d="M630.129 329.938H352.131C340.472 329.938 331.02 339.39 331.02 351.049V629.048C331.02 640.707 340.472 650.159 352.131 650.159H630.129C641.788 650.159 651.24 640.707 651.24 629.048V351.049C651.24 339.39 641.788 329.938 630.129 329.938Z" fill="#27003A"/>
<path d="M473.497 464.452C455.892 480.47 423.115 473.13 400.283 448.041C377.46 422.953 373.223 389.632 390.838 373.614C408.444 357.596 441.22 364.936 464.052 390.025C486.876 415.113 491.112 448.434 473.497 464.452Z" fill="#2AD0B7"/>
<path d="M455.267 436.465L482.657 449.611C483.772 445.901 484.325 441.905 484.36 437.731L456.989 424.594L482.532 423.318C481.408 418.886 479.767 414.4 477.618 409.958L452.066 411.233L468.931 395.893C467.415 393.904 465.8 391.942 464.061 390.033H464.052C462.313 388.116 460.521 386.323 458.674 384.62L441.809 399.96L445.484 374.64C441.265 372.089 436.948 370.038 432.64 368.495L428.966 393.797L418.46 365.311C414.303 364.954 410.272 365.132 406.473 365.89L416.979 394.395L395.119 370.367C393.612 371.322 392.176 372.383 390.838 373.605C389.5 374.827 388.296 376.156 387.208 377.565L409.068 401.592L381.679 388.446C380.564 392.156 380.011 396.152 379.975 400.326L407.347 413.463L381.803 414.738C382.927 419.171 384.568 423.657 386.718 428.099L412.279 426.823L395.413 442.164C396.93 444.153 398.544 446.115 400.283 448.023L400.301 448.041C402.04 449.95 403.833 451.742 405.679 453.437L422.544 438.097L418.87 463.417C423.088 465.968 427.405 468.019 431.713 469.562L435.388 444.26L445.894 472.746C450.05 473.103 454.081 472.925 457.881 472.166L447.374 443.662L469.234 467.689C470.742 466.735 472.177 465.674 473.515 464.452C474.853 463.23 476.057 461.901 477.145 460.492L455.285 436.465H455.267Z" fill="#008880"/>
<path d="M464.463 454.516C450.701 467.038 425.095 461.294 407.258 441.691C389.42 422.087 386.12 396.054 399.873 383.532C413.635 371.01 439.24 376.753 457.078 396.357C474.916 415.96 478.216 441.994 464.463 454.516Z" fill="#008880"/>
<path d="M460.28 449.923C448.302 460.822 426.005 455.818 410.486 438.757C394.959 421.695 392.087 399.024 404.056 388.134C416.034 377.235 438.331 382.23 453.849 399.3C469.377 416.362 472.249 439.033 460.28 449.923Z" fill="#2AD0B7"/>
<path d="M473.497 464.452C472.16 465.674 470.724 466.735 469.216 467.689L462.483 473.816C463.99 472.862 465.426 471.801 466.764 470.579L473.497 464.452Z" fill="#006860"/>
<path d="M457.863 472.167L451.129 478.294C455.223 477.482 459.049 475.984 462.483 473.817L469.216 467.689C465.783 469.857 461.966 471.346 457.863 472.167Z" fill="#1BAF96"/>
<path d="M445.876 472.746L439.142 478.873C443.298 479.23 447.33 479.052 451.129 478.294L457.863 472.167C454.063 472.925 450.032 473.103 445.876 472.746Z" fill="#006860"/>
<path d="M418.852 463.417L412.118 469.544C416.337 472.095 420.654 474.155 424.961 475.689L431.695 469.562C427.387 468.019 423.071 465.968 418.852 463.417Z" fill="#006860"/>
<path d="M400.283 448.032C398.544 446.124 396.93 444.161 395.405 442.164L388.671 448.291C390.196 450.289 391.81 452.251 393.55 454.159C395.28 456.059 397.064 457.843 398.892 459.528L405.626 453.401C403.797 451.707 402.005 449.923 400.283 448.032Z" fill="#006860"/>
<path d="M381.803 414.738L375.07 420.865C376.193 425.298 377.835 429.784 379.984 434.226L386.718 428.099C384.568 423.657 382.936 419.171 381.803 414.738Z" fill="#006860"/>
<path d="M381.688 388.446L374.954 394.573C373.839 398.283 373.286 402.279 373.25 406.453L379.984 400.326C380.02 396.152 380.582 392.156 381.688 388.446Z" fill="#006860"/>
<path d="M390.838 373.605L384.113 379.723C382.776 380.945 381.571 382.274 380.483 383.683L387.217 377.556C388.305 376.147 389.5 374.818 390.838 373.596" fill="#006860"/>
<path d="M431.695 469.571L424.961 475.699C429.751 477.411 434.522 478.481 439.142 478.874L445.876 472.746C441.256 472.345 436.485 471.275 431.695 469.571Z" fill="#1BAF96"/>
<path d="M405.635 453.41L398.901 459.537C403.102 463.417 407.534 466.762 412.083 469.526L418.816 463.399C414.268 460.643 409.835 457.299 405.635 453.41Z" fill="#1BAF96"/>
<path d="M386.718 428.099L379.984 434.226C382.294 439.015 385.21 443.751 388.68 448.291L395.413 442.164C391.944 437.615 389.037 432.888 386.718 428.099Z" fill="#1BAF96"/>
<path d="M379.975 400.326L373.241 406.453C373.206 411.091 373.821 415.942 375.07 420.866L381.803 414.738C380.546 409.815 379.931 404.963 379.975 400.326Z" fill="#1BAF96"/>
<path d="M387.208 377.565L380.475 383.692C377.995 386.903 376.149 390.569 374.945 394.573L381.679 388.446C382.874 384.441 384.72 380.776 387.208 377.565Z" fill="#1BAF96"/>
<path d="M598.147 464.452C580.541 480.47 547.764 473.13 524.932 448.041C502.109 422.953 497.873 389.632 515.487 373.614C533.093 357.596 565.869 364.936 588.701 390.025C611.525 415.113 615.761 448.434 598.147 464.452Z" fill="#2AD0B7"/>
<path d="M579.916 436.465L607.306 449.611C608.421 445.901 608.974 441.905 609.009 437.731L581.638 424.594L607.181 423.318C606.057 418.886 604.416 414.4 602.267 409.958L576.715 411.233L593.58 395.893C592.064 393.904 590.449 391.942 588.71 390.033H588.701C586.962 388.116 585.17 386.323 583.323 384.62L566.458 399.96L570.132 374.64C565.914 372.089 561.597 370.038 557.289 368.495L553.615 393.797L543.108 365.311C538.952 364.954 534.921 365.132 531.122 365.89L541.628 394.395L519.768 370.367C518.261 371.322 516.825 372.383 515.487 373.605C514.149 374.827 512.945 376.156 511.857 377.565L533.717 401.592L506.327 388.446C505.213 392.156 504.66 396.152 504.624 400.326L531.996 413.463L506.452 414.738C507.585 419.171 509.217 423.657 511.367 428.099L536.928 426.823L520.062 442.164C521.579 444.153 523.193 446.115 524.932 448.023L524.95 448.041C526.689 449.95 528.482 451.742 530.328 453.437L547.193 438.097L543.519 463.417C547.737 465.968 552.054 468.019 556.362 469.562L560.036 444.26L570.543 472.746C574.699 473.103 578.73 472.925 582.53 472.166L572.023 443.662L593.883 467.689C595.39 466.735 596.826 465.674 598.164 464.452C599.502 463.23 600.706 461.901 601.794 460.492L579.934 436.465H579.916Z" fill="#008880"/>
<path d="M589.112 454.516C575.35 467.038 549.744 461.294 531.907 441.691C514.069 422.087 510.769 396.054 524.522 383.532C538.283 371.01 563.889 376.753 581.727 396.357C599.564 415.96 602.864 441.994 589.112 454.516Z" fill="#008880"/>
<path d="M584.929 449.923C572.951 460.822 550.654 455.818 535.135 438.757C519.607 421.695 516.736 399.024 528.705 388.134C540.683 377.235 562.98 382.23 578.498 399.3C594.026 416.362 596.898 439.033 584.929 449.923Z" fill="#2AD0B7"/>
<path d="M598.146 464.452C596.809 465.674 595.373 466.735 593.865 467.689L587.132 473.816C588.639 472.862 590.075 471.801 591.413 470.579L598.146 464.452Z" fill="#006860"/>
<path d="M582.512 472.167L575.778 478.294C579.872 477.482 583.698 475.984 587.132 473.817L593.865 467.689C590.432 469.857 586.614 471.346 582.512 472.167Z" fill="#1BAF96"/>
<path d="M570.525 472.746L563.791 478.873C567.947 479.23 571.979 479.052 575.778 478.294L582.512 472.167C578.712 472.925 574.681 473.103 570.525 472.746Z" fill="#006860"/>
<path d="M543.501 463.417L536.767 469.544C540.986 472.095 545.303 474.155 549.61 475.689L556.344 469.562C552.036 468.019 547.72 465.968 543.501 463.417Z" fill="#006860"/>
<path d="M524.932 448.032C523.193 446.124 521.579 444.161 520.053 442.164L513.32 448.291C514.845 450.289 516.459 452.251 518.198 454.159C519.929 456.059 521.712 457.843 523.541 459.528L530.274 453.401C528.446 451.707 526.653 449.923 524.932 448.032Z" fill="#006860"/>
<path d="M506.452 414.738L499.719 420.865C500.843 425.298 502.484 429.784 504.633 434.226L511.367 428.099C509.217 423.657 507.585 419.171 506.452 414.738Z" fill="#006860"/>
<path d="M506.336 388.446L499.603 394.573C498.488 398.283 497.935 402.279 497.899 406.453L504.633 400.326C504.669 396.152 505.23 392.156 506.336 388.446Z" fill="#006860"/>
<path d="M515.487 373.605L508.762 379.723C507.425 380.945 506.221 382.274 505.133 383.683L511.866 377.556C512.954 376.147 514.149 374.818 515.487 373.596" fill="#006860"/>
<path d="M556.344 469.571L549.61 475.699C554.4 477.411 559.171 478.481 563.791 478.874L570.525 472.746C565.905 472.345 561.133 471.275 556.344 469.571Z" fill="#1BAF96"/>
<path d="M530.283 453.41L523.55 459.537C527.75 463.417 532.183 466.762 536.732 469.526L543.465 463.399C538.917 460.643 534.484 457.299 530.283 453.41Z" fill="#1BAF96"/>
<path d="M511.367 428.099L504.633 434.226C506.943 439.015 509.859 443.751 513.329 448.291L520.062 442.164C516.593 437.615 513.686 432.888 511.367 428.099Z" fill="#1BAF96"/>
<path d="M504.624 400.326L497.891 406.453C497.855 411.091 498.47 415.942 499.719 420.866L506.453 414.738C505.195 409.815 504.58 404.963 504.624 400.326Z" fill="#1BAF96"/>
<path d="M511.857 377.565L505.123 383.692C502.644 386.903 500.798 390.569 499.594 394.573L506.327 388.446C507.523 384.441 509.369 380.776 511.857 377.565Z" fill="#1BAF96"/>
<path d="M473.497 600.365C455.892 616.383 423.115 609.043 400.283 583.954C377.46 558.866 373.223 525.545 390.838 509.527C408.444 493.509 441.22 500.849 464.052 525.938C486.876 551.026 491.112 584.347 473.497 600.365Z" fill="#2AD0B7"/>
<path d="M455.267 572.387L482.657 585.533C483.772 581.823 484.325 577.827 484.36 573.653L456.989 560.516L482.532 559.241C481.408 554.808 479.767 550.322 477.618 545.88L452.066 547.156L468.931 531.815C467.415 529.827 465.8 527.864 464.061 525.956H464.052C462.313 524.038 460.521 522.246 458.674 520.542L441.809 535.882L445.484 510.562C441.265 508.011 436.948 505.96 432.64 504.417L428.966 529.72L418.46 501.233C414.303 500.876 410.272 501.055 406.473 501.813L416.979 530.317L395.119 506.29C393.612 507.244 392.176 508.306 390.838 509.527C389.5 510.749 388.296 512.078 387.208 513.487L409.068 537.515L381.679 524.368C380.564 528.078 380.011 532.074 379.975 536.248L407.347 549.385L381.803 550.661C382.927 555.093 384.568 559.58 386.718 564.021L412.279 562.746L395.413 578.086C396.93 580.075 398.544 582.037 400.283 583.946L400.301 583.964C402.04 585.872 403.833 587.665 405.679 589.359L422.544 574.019L418.87 599.34C423.088 601.89 427.405 603.942 431.713 605.485L435.388 580.182L445.894 608.669C450.05 609.025 454.081 608.847 457.881 608.089L447.374 579.584L469.234 603.612C470.742 602.657 472.177 601.596 473.515 600.374C474.853 599.152 476.057 597.823 477.145 596.414L455.285 572.387H455.267Z" fill="#008880"/>
<path d="M464.463 590.438C450.701 602.96 425.095 597.217 407.258 577.613C389.42 558.01 386.12 531.976 399.873 519.454C413.635 506.932 439.24 512.676 457.078 532.279C474.916 551.883 478.216 577.917 464.463 590.438Z" fill="#008880"/>
<path d="M460.28 585.846C448.302 596.744 426.005 591.741 410.486 574.679C394.959 557.618 392.087 534.946 404.056 524.056C416.034 513.157 438.331 518.152 453.849 535.223C469.377 552.284 472.249 574.956 460.28 585.846Z" fill="#2AD0B7"/>
<path d="M473.497 600.374C472.16 601.596 470.724 602.657 469.216 603.612L462.483 609.739C463.99 608.784 465.426 607.723 466.764 606.501L473.497 600.374Z" fill="#006860"/>
<path d="M457.863 608.089L451.129 614.216C455.223 613.404 459.049 611.906 462.483 609.739L469.216 603.611C465.783 605.779 461.966 607.268 457.863 608.089Z" fill="#1BAF96"/>
<path d="M445.876 608.669L439.142 614.796C443.298 615.153 447.33 614.974 451.129 614.216L457.863 608.089C454.063 608.847 450.032 609.025 445.876 608.669Z" fill="#006860"/>
<path d="M418.852 599.339L412.118 605.467C416.337 608.017 420.654 610.078 424.961 611.612L431.695 605.484C427.387 603.941 423.071 601.89 418.852 599.339Z" fill="#006860"/>
<path d="M400.283 583.954C398.544 582.046 396.93 580.084 395.405 578.086L388.671 584.213C390.196 586.211 391.81 588.173 393.55 590.082C395.28 591.981 397.064 593.765 398.892 595.451L405.626 589.324C403.797 587.629 402.005 585.845 400.283 583.954Z" fill="#006860"/>
<path d="M381.803 550.661L375.07 556.788C376.193 561.22 377.835 565.707 379.984 570.148L386.718 564.021C384.568 559.579 382.936 555.093 381.803 550.661Z" fill="#006860"/>
<path d="M381.688 524.368L374.954 530.495C373.839 534.206 373.286 538.201 373.25 542.375L379.984 536.248C380.02 532.074 380.582 528.078 381.688 524.368Z" fill="#006860"/>
<path d="M390.838 509.527L384.113 515.646C382.776 516.868 381.571 518.197 380.483 519.606L387.217 513.478C388.305 512.069 389.5 510.74 390.838 509.519" fill="#006860"/>
<path d="M431.695 605.493L424.961 611.62C429.751 613.333 434.522 614.403 439.142 614.795L445.876 608.668C441.256 608.267 436.485 607.197 431.695 605.493Z" fill="#1BAF96"/>
<path d="M405.635 589.333L398.901 595.46C403.102 599.339 407.534 602.684 412.083 605.449L418.816 599.322C414.268 596.566 409.835 593.221 405.635 589.333Z" fill="#1BAF96"/>
<path d="M386.718 564.021L379.984 570.148C382.294 574.938 385.21 579.673 388.68 584.213L395.413 578.086C391.944 573.537 389.037 568.81 386.718 564.021Z" fill="#1BAF96"/>
<path d="M379.975 536.248L373.241 542.375C373.206 547.013 373.821 551.865 375.07 556.788L381.803 550.661C380.546 545.738 379.931 540.886 379.975 536.248Z" fill="#1BAF96"/>
<path d="M387.208 513.487L380.475 519.615C377.995 522.825 376.149 526.491 374.945 530.495L381.679 524.368C382.874 520.364 384.72 516.698 387.208 513.487Z" fill="#1BAF96"/>
<path d="M598.147 600.365C580.541 616.383 547.764 609.043 524.932 583.954C502.109 558.866 497.873 525.545 515.487 509.527C533.093 493.509 565.869 500.849 588.701 525.938C611.525 551.026 615.761 584.347 598.147 600.365Z" fill="#2AD0B7"/>
<path d="M579.916 572.387L607.306 585.533C608.421 581.823 608.974 577.827 609.009 573.653L581.638 560.516L607.181 559.241C606.057 554.808 604.416 550.322 602.267 545.88L576.715 547.156L593.58 531.815C592.064 529.827 590.449 527.864 588.71 525.956H588.701C586.962 524.038 585.17 522.246 583.323 520.542L566.458 535.882L570.132 510.562C565.914 508.011 561.597 505.96 557.289 504.417L553.615 529.72L543.108 501.233C538.952 500.876 534.921 501.055 531.122 501.813L541.628 530.317L519.768 506.29C518.261 507.244 516.825 508.306 515.487 509.527C514.149 510.749 512.945 512.078 511.857 513.487L533.717 537.515L506.327 524.368C505.213 528.078 504.66 532.074 504.624 536.248L531.996 549.385L506.452 550.661C507.585 555.093 509.217 559.58 511.367 564.021L536.928 562.746L520.062 578.086C521.579 580.075 523.193 582.037 524.932 583.946L524.95 583.964C526.689 585.872 528.482 587.665 530.328 589.359L547.193 574.019L543.519 599.34C547.737 601.89 552.054 603.942 556.362 605.485L560.036 580.182L570.543 608.669C574.699 609.025 578.73 608.847 582.53 608.089L572.023 579.584L593.883 603.612C595.39 602.657 596.826 601.596 598.164 600.374C599.502 599.152 600.706 597.823 601.794 596.414L579.934 572.387H579.916Z" fill="#008880"/>
<path d="M589.112 590.438C575.35 602.96 549.744 597.217 531.907 577.613C514.069 558.01 510.769 531.976 524.522 519.454C538.283 506.932 563.889 512.676 581.727 532.279C599.564 551.883 602.864 577.917 589.112 590.438Z" fill="#008880"/>
<path d="M584.929 585.846C572.951 596.744 550.654 591.741 535.135 574.679C519.607 557.618 516.736 534.946 528.705 524.056C540.683 513.157 562.98 518.152 578.498 535.223C594.026 552.284 596.898 574.956 584.929 585.846Z" fill="#2AD0B7"/>
<path d="M598.146 600.374C596.809 601.596 595.373 602.657 593.865 603.612L587.132 609.739C588.639 608.784 590.075 607.723 591.413 606.501L598.146 600.374Z" fill="#006860"/>
<path d="M582.512 608.089L575.778 614.216C579.872 613.404 583.698 611.906 587.132 609.739L593.865 603.611C590.432 605.779 586.614 607.268 582.512 608.089Z" fill="#1BAF96"/>
<path d="M570.525 608.669L563.791 614.796C567.947 615.153 571.979 614.974 575.778 614.216L582.512 608.089C578.712 608.847 574.681 609.025 570.525 608.669Z" fill="#006860"/>
<path d="M543.501 599.339L536.767 605.467C540.986 608.017 545.303 610.078 549.61 611.612L556.344 605.484C552.036 603.941 547.72 601.89 543.501 599.339Z" fill="#006860"/>
<path d="M524.932 583.954C523.193 582.046 521.579 580.084 520.053 578.086L513.32 584.213C514.845 586.211 516.459 588.173 518.198 590.082C519.929 591.981 521.712 593.765 523.541 595.451L530.274 589.324C528.446 587.629 526.653 585.845 524.932 583.954Z" fill="#006860"/>
<path d="M506.452 550.661L499.719 556.788C500.843 561.22 502.484 565.707 504.633 570.148L511.367 564.021C509.217 559.579 507.585 555.093 506.452 550.661Z" fill="#006860"/>
<path d="M506.336 524.368L499.603 530.495C498.488 534.206 497.935 538.201 497.899 542.375L504.633 536.248C504.669 532.074 505.23 528.078 506.336 524.368Z" fill="#006860"/>
<path d="M515.487 509.527L508.762 515.646C507.425 516.868 506.221 518.197 505.133 519.606L511.866 513.478C512.954 512.069 514.149 510.74 515.487 509.519" fill="#006860"/>
<path d="M556.344 605.493L549.61 611.62C554.4 613.333 559.171 614.403 563.791 614.795L570.525 608.668C565.905 608.267 561.133 607.197 556.344 605.493Z" fill="#1BAF96"/>
<path d="M530.283 589.333L523.55 595.46C527.75 599.339 532.183 602.684 536.732 605.449L543.465 599.322C538.917 596.566 534.484 593.221 530.283 589.333Z" fill="#1BAF96"/>
<path d="M511.367 564.021L504.633 570.148C506.943 574.938 509.859 579.673 513.329 584.213L520.062 578.086C516.593 573.537 513.686 568.81 511.367 564.021Z" fill="#1BAF96"/>
<path d="M504.624 536.248L497.891 542.375C497.855 547.013 498.47 551.865 499.719 556.788L506.453 550.661C505.195 545.738 504.58 540.886 504.624 536.248Z" fill="#1BAF96"/>
<path d="M511.857 513.487L505.123 519.615C502.644 522.825 500.798 526.491 499.594 530.495L506.327 524.368C507.523 520.364 509.369 516.698 511.857 513.487Z" fill="#1BAF96"/>
<path fill-rule="evenodd" clip-rule="evenodd" d="M380.072 660.16H340.245C334.709 660.16 330.22 664.649 330.22 670.185V749.836C330.22 755.371 334.709 759.86 340.245 759.86H419.895C425.431 759.86 429.92 755.371 429.92 749.836V670.185C429.92 664.649 425.431 660.16 419.895 660.16H380.068H380.072Z" fill="#FADCFF"/>
<path d="M384.849 686.554L395.264 699.657C395.535 699.996 396.056 699.971 396.293 699.611L404.873 686.507C405.149 686.083 404.848 685.524 404.344 685.524H385.349C384.82 685.524 384.523 686.139 384.854 686.554H384.849Z" fill="#632784"/>
<path d="M364.914 699.615L375.295 686.558C375.625 686.143 375.329 685.529 374.799 685.529H356.211C355.711 685.529 355.406 686.079 355.673 686.503L363.881 699.56C364.114 699.928 364.643 699.958 364.914 699.619V699.615Z" fill="#632784"/>
<path d="M374.338 735.05L363.36 704.642C363.271 704.392 363.03 704.223 362.763 704.223H344.34C343.781 704.223 343.493 704.896 343.883 705.298L373.279 735.707C373.753 736.198 374.562 735.694 374.334 735.05H374.338Z" fill="#632784"/>
<path d="M380.072 685.524C379.886 685.524 379.708 685.609 379.589 685.757L368.006 700.326C367.676 700.741 367.972 701.355 368.502 701.355H391.634C392.164 701.355 392.46 700.741 392.13 700.326L380.546 685.757C380.428 685.609 380.25 685.524 380.064 685.524H380.072Z" fill="#632784"/>
<path d="M396.776 704.642L385.713 735.144C385.481 735.787 386.289 736.291 386.768 735.8L416.253 705.298C416.643 704.896 416.359 704.223 415.796 704.223H397.373C397.106 704.223 396.869 704.388 396.776 704.642Z" fill="#632784"/>
<path d="M399.749 701.356H416.634C417.143 701.356 417.448 700.784 417.16 700.364L408.554 687.718C408.3 687.346 407.745 687.35 407.499 687.727L399.219 700.373C398.944 700.796 399.245 701.356 399.749 701.356Z" fill="#632784"/>
<path d="M361.014 700.385L352.865 687.422C352.624 687.036 352.061 687.023 351.802 687.4L342.981 700.364C342.693 700.784 342.997 701.355 343.506 701.355H360.476C360.976 701.355 361.281 700.805 361.014 700.381V700.385Z" fill="#632784"/>
<path d="M381.059 739.574L393.57 705.074C393.718 704.659 393.413 704.223 392.972 704.223H367.163C366.723 704.223 366.418 704.659 366.566 705.074L379.018 739.574C379.107 739.823 379.348 739.993 379.615 739.993H380.462C380.729 739.993 380.966 739.828 381.059 739.574Z" fill="#632784"/>
<path d="M521.072 660.16H458.468C448.224 660.16 439.92 668.465 439.92 678.708V741.312C439.92 751.556 448.224 759.86 458.468 759.86H521.072C531.316 759.86 539.62 751.556 539.62 741.312V678.708C539.62 668.465 531.316 660.16 521.072 660.16Z" fill="#E44EFF"/>
<path d="M525.149 699.961C522.313 703.163 517.604 705.888 511.687 707.816C512.019 707.296 512.318 706.598 512.451 706.265C512.617 705.767 512.706 705.257 512.706 704.747C512.706 700.404 506.712 696.714 498.313 695.296L491.443 674.864C491.188 674.864 490.933 674.864 490.667 674.864C469.97 674.864 453.194 682.941 453.194 692.902V724.171C453.194 726.974 454.524 729.633 456.895 731.993V724.614C456.895 721.29 458.08 718.963 459.532 719.417C460.995 719.872 462.169 722.93 462.169 726.254V735.872C463.964 736.891 465.992 737.811 468.208 738.608V731.052C468.208 727.683 470.236 725.146 472.74 725.379C475.244 725.622 477.271 728.547 477.271 731.916V741.013C479.676 741.456 482.202 741.788 484.817 741.988V733.667C484.817 730.298 487.554 727.561 490.922 727.561C494.291 727.561 497.027 730.298 497.027 733.667V741.943C499.642 741.733 502.169 741.378 504.573 740.924V731.927C504.573 728.559 506.601 725.633 509.105 725.39C511.609 725.146 513.637 727.683 513.637 731.063V738.42C515.864 737.589 517.892 736.636 519.675 735.583V726.265C519.675 722.941 520.861 719.883 522.313 719.428C523.775 718.974 524.95 721.301 524.95 724.625V731.439C526.988 729.212 528.13 726.753 528.13 724.171V701.035L525.138 699.972L525.149 699.961ZM488.994 678.277L494.557 694.819C493.293 694.72 492.008 694.664 490.678 694.664C479.144 694.664 469.682 698.72 468.74 703.883C461.15 701.002 456.618 696.814 456.618 692.88C456.618 686.155 469.825 678.686 488.994 678.277ZM462.169 717.567C460.086 716.392 458.302 715.085 456.895 713.689V713.002C456.895 709.678 458.08 707.351 459.532 707.805C460.995 708.26 462.169 711.318 462.169 714.642V717.578V717.567ZM477.283 722.708C474.014 722.11 470.967 721.29 468.219 720.304V719.44C468.219 716.071 470.247 713.534 472.751 713.766C475.255 714.01 477.283 716.935 477.283 720.304V722.719V722.708ZM497.039 723.639C494.967 723.805 492.85 723.905 490.678 723.905C488.695 723.905 486.745 723.827 484.839 723.683V722.043C484.839 718.675 487.576 715.938 490.944 715.938C494.313 715.938 497.05 718.675 497.05 722.043V723.639H497.039ZM513.648 720.104C510.9 721.135 507.853 721.977 504.584 722.609V720.293C504.584 716.924 506.612 713.999 509.116 713.755C511.62 713.512 513.648 716.049 513.648 719.428V720.104ZM524.972 713.124C523.598 714.62 521.825 716.016 519.698 717.268V714.631C519.698 711.307 520.883 708.248 522.335 707.794C523.797 707.34 524.972 709.667 524.972 712.991V713.124Z" fill="#FADCFF"/>
<path d="M628.212 660.159H570.731C559.072 660.159 549.62 669.61 549.62 681.269V738.751C549.62 750.41 559.072 759.862 570.731 759.862H628.212C639.872 759.862 649.323 750.41 649.323 738.751V681.269C649.323 669.61 639.872 660.159 628.212 660.159Z" fill="#E77BFF"/>
<path d="M688.151 320.499L966.149 320.499C977.808 320.499 987.26 311.047 987.26 299.388V21.3893C987.26 9.73013 977.808 0.278534 966.149 0.278534L688.151 0.278534C676.491 0.278534 667.04 9.73013 667.04 21.3893V299.388C667.04 311.047 676.491 320.499 688.151 320.499Z" fill="#E44EFF"/>
<path d="M849.983 73.1624L948.098 99.455C954.538 101.176 958.355 107.794 956.634 114.233L918.889 255.088C917.168 261.527 910.55 265.344 904.111 263.623L805.995 237.33C799.556 235.609 795.739 228.991 797.46 222.552L835.204 81.6977C836.926 75.2583 843.543 71.4411 849.983 73.1624Z" fill="#FADCFF"/>
<path d="M915.999 186.288C913.52 195.528 904.022 201.013 894.782 198.543C884.249 195.716 880.485 184.942 873.136 182.971C865.778 181 857.144 188.456 846.611 185.628C837.371 183.149 831.886 173.651 834.366 164.411C836.845 155.171 846.344 149.686 855.584 152.165C857.162 152.584 858.75 153.396 860.159 154.297C864.217 156.883 867.169 155.742 866.17 150.81C865.591 147.938 865.403 144.914 866.206 141.882C868.685 132.642 878.184 127.157 887.424 129.636C896.664 132.116 902.149 141.614 899.669 150.854C898.858 153.887 897.172 156.411 895.245 158.605C891.919 162.377 893.908 164.839 898.768 164.625C900.427 164.553 902.184 164.652 903.745 165.071C912.985 167.55 918.47 177.049 915.991 186.288" fill="#27003A"/>
<path d="M870.54 192.683C864.636 191.095 853.265 197.472 852.738 199.443C852.212 201.414 859.267 204.518 866.83 206.543C874.393 208.567 882.046 209.423 882.581 207.443C883.116 205.455 876.453 194.27 870.54 192.692" fill="#27003A"/>
<path d="M870.478 107.785C869.577 111.156 866.108 113.154 862.745 112.253C858.901 111.219 857.537 107.295 854.852 106.581C852.177 105.868 849.019 108.579 845.184 107.553C841.813 106.652 839.815 103.183 840.716 99.8206C841.617 96.4493 845.077 94.4515 848.449 95.3523C849.028 95.5039 849.608 95.7982 850.116 96.1282C851.597 97.0736 852.667 96.6544 852.31 94.8528C852.096 93.8093 852.025 92.7034 852.328 91.5975C853.229 88.2262 856.699 86.2283 860.061 87.1291C863.432 88.0299 865.43 91.4993 864.529 94.8617C864.235 95.9677 863.619 96.8863 862.915 97.689C861.702 99.0625 862.433 99.9633 864.199 99.883C864.806 99.8563 865.448 99.8919 866.01 100.044C869.381 100.944 871.379 104.414 870.478 107.776" fill="#27003A"/>
<path d="M853.907 110.122C851.749 109.542 847.61 111.87 847.414 112.584C847.218 113.297 849.795 114.43 852.551 115.17C855.307 115.91 858.099 116.223 858.295 115.5C858.491 114.778 856.065 110.702 853.907 110.122Z" fill="#27003A"/>
<path d="M883.624 228.983C884.525 225.611 887.994 223.614 891.357 224.514C895.201 225.54 896.565 229.473 899.25 230.187C901.926 230.9 905.083 228.189 908.918 229.215C912.289 230.115 914.287 233.585 913.386 236.947C912.485 240.318 909.025 242.316 905.654 241.415C905.074 241.264 904.494 240.97 903.986 240.64C902.505 239.694 901.435 240.113 901.792 241.915C902.006 242.958 902.077 244.064 901.774 245.17C900.873 248.542 897.404 250.539 894.041 249.639C890.67 248.738 888.672 245.268 889.573 241.906C889.867 240.8 890.483 239.881 891.187 239.079C892.4 237.705 891.678 236.804 889.903 236.885C889.297 236.912 888.654 236.876 888.093 236.724C884.721 235.823 882.723 232.354 883.624 228.992" fill="#27003A"/>
<path d="M900.195 226.646C902.345 227.225 906.492 224.898 906.688 224.184C906.884 223.471 904.307 222.338 901.551 221.598C898.795 220.857 896.004 220.545 895.807 221.268C895.611 221.99 898.037 226.066 900.195 226.646Z" fill="#27003A"/>
<path d="M843.552 237.322L745.437 263.614C738.997 265.335 732.388 261.518 730.658 255.088L692.914 114.233C691.193 107.794 695.01 101.185 701.44 99.455L799.556 73.1624C805.995 71.4411 812.604 75.2583 814.334 81.6977L852.079 222.552C853.8 228.991 849.983 235.6 843.543 237.33" fill="#FADCFF"/>
<path d="M810.374 146.769C816.386 167.737 793.518 195.671 781.335 199.167C769.143 202.663 734.957 191.095 728.946 170.127C726.573 161.833 726.877 149.855 737.08 145.396C745.232 141.828 753.312 145.913 758.877 151.88C762.382 155.643 765.575 156.99 768.956 156.018C772.336 155.046 774.405 152.227 775.341 147.277C776.866 139.152 781.558 131.411 790.378 130.109C801.375 128.494 808.002 138.483 810.383 146.778" fill="#E44EFF"/>
<path d="M808.956 223.872C807.181 217.254 814.522 208.603 818.366 207.578C822.21 206.552 832.885 210.369 834.66 216.987C835.365 219.609 835.195 223.364 831.967 224.711C829.389 225.79 826.874 224.461 825.153 222.552C824.074 221.348 823.075 220.911 822.013 221.197C820.943 221.482 820.283 222.356 819.962 223.908C819.436 226.45 817.92 228.858 815.146 229.215C811.685 229.66 809.652 226.485 808.956 223.872Z" fill="#E44EFF"/>
<path d="M736.054 112.896C737.829 119.514 730.489 128.165 726.645 129.19C722.801 130.216 712.125 126.399 710.35 119.781C709.646 117.159 709.815 113.404 713.044 112.057C715.621 110.978 718.136 112.307 719.858 114.216C720.937 115.42 721.936 115.857 722.997 115.571C724.067 115.286 724.727 114.412 725.048 112.86C725.575 110.318 727.091 107.91 729.864 107.553C733.325 107.108 735.358 110.283 736.054 112.896Z" fill="#E44EFF"/>
<path d="M743.191 330.5H680.588C670.344 330.5 662.04 338.804 662.04 349.048V411.652C662.04 421.896 670.344 430.2 680.588 430.2H743.191C753.435 430.2 761.74 421.896 761.74 411.652V349.048C761.74 338.804 753.435 330.5 743.191 330.5Z" fill="#E77BFF"/>
<path d="M850.332 330.499H792.85C781.191 330.499 771.74 339.95 771.74 351.609V409.091C771.74 420.75 781.191 430.202 792.85 430.202H850.332C861.991 430.202 871.443 420.75 871.443 409.091V351.609C871.443 339.95 861.991 330.499 850.332 330.499Z" fill="#3D0F58"/>
<path fill-rule="evenodd" clip-rule="evenodd" d="M843.012 369.5C843.792 368.982 844.414 368.317 844.833 367.514C845.939 365.39 845.433 362.666 843.727 359.958C844.587 359.425 845.317 358.643 845.83 357.512C848.598 351.423 844.616 343.866 839.71 339.04C839.038 338.383 837.78 338.164 837.723 339.31C837.296 346.721 827.375 341.384 824.268 346.779C823.849 347.509 823.719 348.356 823.82 349.247C820.532 349.32 817.923 350.451 816.796 352.635C816.377 353.438 816.189 354.328 816.211 355.278C812.562 355.584 809.693 356.993 808.385 359.512C808.009 360.235 807.785 361.016 807.691 361.827C807.359 367.945 816.124 374.903 822.194 378.181C828.264 381.459 837.528 384.497 842.506 380.291C843.12 379.751 843.626 379.123 844.002 378.4C845.31 375.881 844.833 372.698 843.005 369.493L843.012 369.5ZM830.15 349.24C831.855 346.954 839.732 347.276 840.266 342.807C840.346 342.143 841.48 341.595 841.574 342.793C841.928 347.108 837.629 348.509 836.393 350.671C834.442 354.073 839.507 356.146 843.316 356.161C844.746 356.161 844.212 356.986 843.576 357.103C837.593 358.14 827.52 352.751 830.15 349.24ZM821.247 351.393C821.876 350.503 822.613 349.911 822.252 351.744C821.255 356.803 835.786 364.893 840.96 365.55C841.906 365.674 842.355 366.616 840.859 366.806C832.542 367.828 816.724 357.804 821.255 351.401L821.247 351.393ZM838.64 378.451C827.953 379.765 807.641 366.894 813.458 358.665C814.267 357.526 815.207 356.76 814.744 359.118C813.465 365.616 832.13 376.005 838.77 376.845C839.992 376.998 840.555 378.218 838.633 378.451H838.64ZM820.113 382.138C822.779 383.577 829.89 387.008 836.697 386.811L795.74 421.499L805.48 369.281C809.303 375.582 816.919 380.298 818.877 381.445C819.296 381.693 819.716 381.927 820.12 382.146L820.113 382.138Z" fill="#E44EFF"/>
<path d="M962.595 330.5H899.991C889.747 330.5 881.443 338.804 881.443 349.048V411.652C881.443 421.896 889.747 430.2 899.991 430.2H962.595C972.839 430.2 981.143 421.896 981.143 411.652V349.048C981.143 338.804 972.839 330.5 962.595 330.5Z" fill="#2AD0B7"/>
<path d="M960.976 381.037C963.469 378.555 964.788 375.519 964.788 372.262C964.788 366.677 960.61 362.278 954.86 361.791C953.874 361.702 952.921 361.746 952.001 361.89L953.164 356.55H904.555L913.741 398.544H897.819L904.832 404.162H953.574L959.901 398.544H943.979L946.516 386.921C952.644 386.333 957.696 384.306 960.965 381.037H960.976ZM954.494 365.968C958.073 366.267 960.577 368.86 960.577 372.25C960.577 374.367 959.691 376.372 958.006 378.057C955.646 380.406 951.99 381.957 947.469 382.577L950.97 366.589C952.045 366.068 953.209 365.857 954.494 365.968Z" fill="#27003A"/>
<path d="M743.69 440.201H686.21C674.551 440.201 665.1 449.653 665.1 461.311V518.791C665.1 530.45 674.551 539.901 686.21 539.901H743.69C755.349 539.901 764.8 530.45 764.8 518.791V461.311C764.8 449.653 755.349 440.201 743.69 440.201Z" fill="#632784"/>
<path d="M753.598 496.923C753.598 505.672 746.508 512.771 737.759 512.771C727.779 512.771 721.911 504.138 714.954 504.138C707.998 504.138 702.12 512.771 692.15 512.771C683.401 512.771 676.31 505.672 676.31 496.923C676.31 488.174 683.401 481.084 692.15 481.084C693.648 481.084 695.235 481.423 696.698 481.886C700.89 483.206 703.235 481.512 701.184 477.383C699.998 474.983 699.106 472.353 699.106 469.49C699.106 460.741 706.196 453.65 714.945 453.65C723.694 453.65 730.785 460.741 730.785 469.49C730.785 472.353 729.893 474.983 728.707 477.383C726.664 481.503 729.001 483.206 733.246 481.869C734.691 481.414 736.269 481.084 737.75 481.084C746.499 481.084 753.589 488.174 753.589 496.923" fill="#2AD0B7"/>
<path d="M714.955 513.333C709.363 513.333 700.827 521.654 700.827 523.518C700.827 525.382 707.793 526.453 714.955 526.453C722.116 526.453 729.082 525.4 729.082 523.518C729.082 521.636 720.547 513.333 714.955 513.333Z" fill="#2AD0B7"/>
<path d="M855.951 440.201H793.348C783.104 440.201 774.8 448.506 774.8 458.749V521.353C774.8 531.597 783.104 539.901 793.348 539.901H855.951C866.195 539.901 874.5 531.597 874.5 521.353V458.749C874.5 448.506 866.195 440.201 855.951 440.201Z" fill="#E44EFF"/>
<path d="M860.029 480.002C857.192 483.204 852.483 485.929 846.567 487.857C846.899 487.337 847.198 486.639 847.331 486.306C847.497 485.808 847.586 485.298 847.586 484.788C847.586 480.445 841.591 476.755 833.193 475.337L826.323 454.905C826.068 454.905 825.813 454.905 825.547 454.905C804.849 454.905 788.074 462.982 788.074 472.943V504.212C788.074 507.015 789.404 509.674 791.775 512.034V504.655C791.775 501.331 792.96 499.004 794.412 499.458C795.874 499.913 797.049 502.971 797.049 506.295V515.913C798.844 516.932 800.872 517.852 803.088 518.649V511.093C803.088 507.724 805.115 505.187 807.62 505.42C810.124 505.663 812.151 508.589 812.151 511.957V521.054C814.556 521.497 817.082 521.829 819.697 522.029V513.708C819.697 510.339 822.434 507.602 825.802 507.602C829.17 507.602 831.907 510.339 831.907 513.708V521.984C834.522 521.774 837.049 521.419 839.453 520.965V511.968C839.453 508.6 841.481 505.674 843.985 505.431C846.489 505.187 848.517 507.724 848.517 511.104V518.461C850.744 517.63 852.771 516.677 854.555 515.624V506.306C854.555 502.982 855.741 499.924 857.192 499.469C858.655 499.015 859.83 501.342 859.83 504.666V511.48C861.868 509.253 863.01 506.794 863.01 504.212V481.076L860.018 480.013L860.029 480.002ZM823.874 458.318L829.436 474.86C828.173 474.761 826.888 474.705 825.558 474.705C814.024 474.705 804.561 478.761 803.62 483.924C796.03 481.043 791.498 476.855 791.498 472.921C791.498 466.196 804.705 458.727 823.874 458.318ZM797.049 497.608C794.966 496.433 793.182 495.126 791.775 493.73V493.043C791.775 489.719 792.96 487.392 794.412 487.846C795.874 488.301 797.049 491.359 797.049 494.683V497.619V497.608ZM812.162 502.749C808.894 502.151 805.847 501.331 803.099 500.345V499.481C803.099 496.112 805.126 493.575 807.631 493.807C810.135 494.051 812.162 496.976 812.162 500.345V502.76V502.749ZM831.918 503.68C829.846 503.846 827.73 503.946 825.558 503.946C823.575 503.946 821.625 503.868 819.719 503.724V502.084C819.719 498.716 822.456 495.979 825.824 495.979C829.193 495.979 831.929 498.716 831.929 502.084V503.68H831.918ZM848.528 500.145C845.78 501.176 842.733 502.018 839.464 502.65V500.334C839.464 496.965 841.492 494.04 843.996 493.796C846.5 493.553 848.528 496.09 848.528 499.469V500.145ZM859.852 493.165C858.478 494.661 856.705 496.057 854.578 497.309V494.672C854.578 491.348 855.763 488.289 857.215 487.835C858.677 487.381 859.852 489.708 859.852 493.032V493.165Z" fill="#FADCFF"/>
<path d="M965.651 440.201H903.048C892.804 440.201 884.5 448.506 884.5 458.749V521.353C884.5 531.597 892.804 539.901 903.048 539.901H965.651C975.895 539.901 984.2 531.597 984.2 521.353V458.749C984.2 448.506 975.895 440.201 965.651 440.201Z" fill="#FADCFF"/>
<path d="M967.801 496.057C967.801 506.129 959.956 509.664 953.95 509.664C945.341 509.664 940.266 502.218 934.261 502.218C928.255 502.218 923.181 509.664 914.571 509.664C908.555 509.664 900.898 506.129 900.898 496.057C900.898 485.985 913.563 470.572 923.779 463.514C928.034 460.578 931.867 458.717 934.172 458.628C934.205 458.628 934.239 458.628 934.261 458.628H934.305C934.394 458.628 934.482 458.628 934.571 458.628C936.798 458.739 940.432 460.467 944.488 463.215C954.77 470.196 967.801 485.708 967.801 496.057ZM934.349 510.162C929.518 510.162 922.15 517.342 922.15 518.96C922.15 520.578 928.167 521.497 934.349 521.497C940.532 521.497 946.549 520.589 946.549 518.96C946.549 517.331 939.18 510.162 934.349 510.162Z" fill="#27003A"/>
<path d="M675.882 759.861H858.158C865.803 759.861 872 753.664 872 746.02V563.743C872 556.098 865.803 549.901 858.158 549.901H675.882C668.237 549.901 662.04 556.098 662.04 563.743V746.02C662.04 753.664 668.237 759.861 675.882 759.861Z" fill="#632784"/>
<path d="M799.533 597.338L795.927 595.293C786.174 590.055 775.021 587.077 763.172 587.077C724.992 587.077 694.04 617.93 694.04 655.989C694.04 694.048 724.992 724.901 763.172 724.901C800.658 724.901 831.155 695.152 832.254 658.06L832.305 653.926H766.77L799.542 597.347L799.533 597.338ZM790.467 604.733L763.172 651.855L735.878 604.733C744.026 600.402 753.316 597.946 763.172 597.946C773.029 597.946 782.319 600.411 790.467 604.741V604.733ZM732.298 606.812L759.584 653.926H704.995C705.699 634.079 716.431 616.749 732.298 606.812ZM704.995 658.052H759.584L732.298 705.166C716.431 695.229 705.699 677.899 704.995 658.052ZM735.878 707.237L763.172 660.114L790.467 707.237C782.319 711.567 773.029 714.024 763.172 714.024C753.316 714.024 744.026 711.559 735.878 707.237ZM794.047 705.157L766.761 658.052H821.35C820.646 677.899 809.905 695.221 794.047 705.157ZM753.41 617.254C753.41 611.879 757.781 607.523 763.172 607.523C768.564 607.523 772.935 611.879 772.935 617.254C772.935 622.628 768.564 626.984 763.172 626.984C757.781 626.984 753.41 622.628 753.41 617.254ZM772.935 694.716C772.935 700.09 768.564 704.447 763.172 704.447C757.781 704.447 753.41 700.09 753.41 694.716C753.41 689.341 757.781 684.985 763.172 684.985C768.564 684.985 772.935 689.341 772.935 694.716ZM721.068 631.751C723.764 627.096 729.731 625.504 734.402 628.191C739.072 630.879 740.669 636.827 737.973 641.482C735.277 646.138 729.31 647.73 724.64 645.043C719.969 642.355 718.372 636.407 721.068 631.751ZM788.372 670.487C791.068 665.831 797.035 664.239 801.705 666.927C806.376 669.614 807.973 675.562 805.277 680.218C802.581 684.874 796.614 686.466 791.943 683.778C787.273 681.091 785.676 675.143 788.372 670.487ZM721.068 680.218C718.372 675.562 719.969 669.614 724.64 666.927C729.31 664.239 735.277 665.831 737.973 670.487C740.669 675.143 739.072 681.091 734.402 683.778C729.731 686.466 723.764 684.874 721.068 680.218ZM822.44 633.677C817.769 636.364 811.802 634.773 809.106 630.117C806.41 625.461 808.007 619.513 812.678 616.826C817.349 614.138 823.316 615.73 826.012 620.386C828.708 625.042 827.111 630.99 822.44 633.677ZM853.04 644.615C853.04 618.383 838.332 595.575 816.696 583.936L816.679 583.901L782.714 642.544L780.318 646.677H785.109H842.084H852.988H853.04L852.988 646.6C853.005 645.941 853.04 645.274 853.04 644.606V644.615ZM814.782 595.447C830.64 605.374 841.355 622.714 842.059 642.552H787.496L814.782 595.447Z" fill="#E44EFF"/>
<path d="M963.151 550.181H900.548C890.304 550.181 882 558.486 882 568.729V631.333C882 641.577 890.304 649.881 900.548 649.881H963.151C973.395 649.881 981.7 641.577 981.7 631.333V568.729C981.7 558.486 973.395 550.181 963.151 550.181Z" fill="#E77BFF"/>
<path d="M963.151 659.881H900.548C890.304 659.881 882 668.186 882 678.43V741.033C882 751.277 890.304 759.581 900.548 759.581H963.151C973.395 759.581 981.7 751.277 981.7 741.033V678.43C981.7 668.186 973.395 659.881 963.151 659.881Z" fill="#2AD0B7"/>
<path d="M948.127 682.064H915.584C912.803 682.064 910.543 679.804 910.543 677.022V671.981H953.168V677.022C953.168 679.804 950.908 682.064 948.127 682.064ZM946.609 686.352H917.091C916.027 686.352 915.174 687.205 915.174 688.269V688.601C915.174 689.665 916.027 690.518 917.091 690.518H946.609C947.673 690.518 948.526 689.665 948.526 688.601V688.269C948.526 687.205 947.673 686.352 946.609 686.352ZM948.127 737.388H915.584C912.803 737.388 910.543 739.648 910.543 742.429V747.471H953.168V742.429C953.168 739.648 950.908 737.388 948.127 737.388ZM946.609 728.933H917.091C916.027 728.933 915.174 729.787 915.174 730.85V731.183C915.174 732.246 916.027 733.1 917.091 733.1H946.609C947.673 733.1 948.526 732.246 948.526 731.183V730.85C948.526 729.787 947.673 728.933 946.609 728.933ZM944.969 694.806V724.645H918.742V694.806H944.969ZM925.501 700.014C925.501 699.416 925.014 698.939 924.426 698.939C923.839 698.939 923.351 699.427 923.351 700.014V719.449C923.351 720.047 923.839 720.523 924.426 720.523C925.014 720.523 925.501 720.036 925.501 719.449V700.014ZM932.925 700.014C932.925 699.416 932.437 698.939 931.85 698.939C931.263 698.939 930.775 699.427 930.775 700.014V719.449C930.775 720.047 931.263 720.523 931.85 720.523C932.437 720.523 932.925 720.036 932.925 719.449V700.014ZM940.36 700.014C940.36 699.416 939.872 698.939 939.285 698.939C938.698 698.939 938.21 699.427 938.21 700.014V719.449C938.21 720.047 938.698 720.523 939.285 720.523C939.872 720.523 940.36 720.036 940.36 719.449V700.014Z" fill="#27003A"/>
</svg>
