<svg width="260" height="63" viewBox="0 0 260 63" fill="none" xmlns="http://www.w3.org/2000/svg">
<g clip-path="url(#clip0_1260_3163)">
<path d="M53.4387 8.40357L54.9467 0.0688477C80.1407 0.759831 99.8054 6.57096 99.8054 13.6396C99.8054 15.0988 98.9561 16.5065 97.4047 17.8241C91.286 12.631 74.1 8.79842 53.4387 8.40357ZM99.8054 49.2832C99.8054 47.824 98.9561 46.4163 97.4047 45.0987C90.9394 50.5836 72.1241 54.5536 49.9027 54.5536C48.2821 54.5536 46.6874 54.5321 45.1057 54.4892L43.6021 62.811C45.6691 62.884 47.7664 62.9226 49.9027 62.9226C77.4627 62.9183 99.8054 56.8153 99.8054 49.2832ZM85.8477 31.4593C94.4841 29.0086 99.8054 25.6782 99.8054 22.0044C99.8054 20.5451 98.9561 19.1374 97.4047 17.8198C90.9524 23.2962 72.1934 27.2576 50.0284 27.2747L48.516 35.6309C48.9797 35.6352 49.4391 35.6395 49.9027 35.6395C72.1197 35.6395 90.9394 39.6094 97.4047 45.0944C98.9604 43.7768 99.8054 42.3691 99.8054 40.9098C99.8054 37.2403 94.4884 33.9099 85.8477 31.4593Z" fill="#04A797"/>
<path d="M54.9467 0.0686692L53.4387 8.40339C52.2687 8.38193 51.09 8.36906 49.9027 8.36906C27.6857 8.36906 8.866 12.339 2.40067 17.8239C0.849333 16.5021 0 15.0986 0 13.6394C0 6.10727 22.3427 0 49.9027 0C51.6057 0 53.287 0.0257509 54.9467 0.0686692ZM0 49.283C0 56.2315 19.019 61.9611 43.602 62.8109L45.1057 54.489C25.0077 53.9654 8.39367 50.1843 2.40067 45.0985C0.849333 46.4161 0 47.8195 0 49.283ZM2.40067 17.8197C0.849333 19.1415 0 20.545 0 22.0042C0 25.678 5.32133 29.0084 13.9577 31.4591C5.32133 33.9097 0 37.2402 0 40.914C0 42.3732 0.849333 43.7809 2.40067 45.0985C8.72733 39.7294 26.9013 35.8153 48.5117 35.6522L50.024 27.2788C49.9807 27.2788 49.9417 27.2788 49.8983 27.2788C27.6857 27.2745 8.866 23.3046 2.40067 17.8197Z" fill="#7C37A0"/>
<path d="M131.989 26.5062H116.259V4.11572H131.833V8.08137H121.572V13.047H130.42V16.9397H121.572V22.5534H131.989V26.5062ZM147.312 26.5534L155.71 4.11572H150.679L145.184 18.8796C145.102 19.1457 145.028 19.3946 144.967 19.6264C144.907 19.8581 144.842 20.1371 144.781 20.4633H144.642C144.582 20.1371 144.525 19.8538 144.478 19.6264C144.43 19.3946 144.356 19.1457 144.252 18.8796L138.896 4.11572H133.042L141.488 26.5534H147.312ZM173.849 22.5534H163.432V16.9397H172.28V13.047H163.432V8.08566H173.693V4.11572H158.119V26.5062H173.849V22.5534ZM196.33 4.11572H191.793V17.2487C191.793 17.6092 191.793 17.9268 191.802 18.2101C191.806 18.4933 191.819 18.8109 191.841 19.1714H191.715C191.603 18.8324 191.486 18.532 191.373 18.2702C191.26 18.0084 191.113 17.7251 190.94 17.4161L183.534 4.11572H177.805V26.5062H182.325V13.635C182.325 13.2745 182.321 12.9268 182.316 12.5878C182.312 12.2487 182.299 11.9011 182.277 11.5406H182.403C182.507 11.8668 182.611 12.1758 182.719 12.4633C182.828 12.7509 182.971 13.0513 183.148 13.3689L190.446 26.5019H196.33V4.11572ZM219.275 20.0641C219.275 22.1028 218.495 23.6864 216.94 24.8152C215.38 25.9439 213.339 26.5062 210.812 26.5062H201.621V4.11572H210.362C212.949 4.11572 214.977 4.59641 216.446 5.56207C217.915 6.52773 218.651 8.01699 218.651 10.0384C218.651 11.2702 218.374 12.2831 217.815 13.0813C217.256 13.8796 216.571 14.4204 215.765 14.6951V14.7552C216.771 15.0427 217.607 15.635 218.274 16.532C218.942 17.429 219.275 18.6092 219.275 20.0641ZM206.934 13.2058H210.24C211.35 13.2058 212.143 12.9655 212.632 12.4891C213.118 12.0127 213.36 11.3432 213.36 10.4805C213.36 9.61784 213.118 8.9569 212.632 8.48909C212.147 8.02128 211.35 7.78952 210.24 7.78952H206.934V13.2058ZM213.937 19.7251C213.937 18.7723 213.672 18.0126 213.144 17.4504C212.615 16.8882 211.792 16.6049 210.674 16.6049H206.93V22.8624H210.674C211.792 22.8624 212.615 22.5792 213.144 22.0169C213.672 21.4504 213.937 20.6865 213.937 19.7251ZM228.856 16.9397H237.705V13.047H228.856V8.08566H239.118V4.11572H223.544V26.5062H239.274V22.5534H228.856V16.9397ZM241.553 4.11572V8.08137H248.088V26.5019H253.444V8.08566H260V4.11572H241.553ZM133.774 42.6434L133.757 42.4761C133.592 40.6306 132.782 39.0297 131.326 37.6692C129.87 36.3087 127.868 35.6306 125.311 35.6306C122.486 35.6306 120.181 36.5962 118.395 38.5233C116.61 40.4503 115.717 43.137 115.717 46.579V47.9953C115.717 51.4417 116.61 54.1241 118.395 56.0511C120.181 57.9781 122.573 58.9438 125.576 58.9438C127.543 58.9438 129.224 58.6348 130.62 58.021C132.015 57.4073 133.068 56.7378 133.77 56.021V47.2872H125.264V49.7164H130.884V54.9438C130.139 55.4545 129.35 55.8322 128.522 56.0683C127.695 56.3043 126.711 56.4202 125.571 56.4202C123.396 56.4202 121.715 55.6734 120.519 54.1756C119.323 52.6777 118.725 50.6176 118.725 47.9953V46.579C118.725 43.9567 119.323 41.8924 120.519 40.3988C121.715 38.901 123.301 38.1542 125.277 38.1542C127.027 38.1542 128.384 38.622 129.346 39.5533C130.308 40.4846 130.789 41.4632 130.789 42.4889V42.6434H133.774ZM147.368 35.9396L155.97 58.4846H152.863L150.718 52.6391H141.241L139.074 58.4846H136.093L144.694 35.9396H147.368ZM149.825 50.2099L146.653 41.5662C146.527 41.2271 146.419 40.901 146.328 40.5834C146.237 40.2658 146.15 39.9396 146.081 39.6005H145.925C145.851 39.9396 145.769 40.2658 145.678 40.5834C145.587 40.901 145.474 41.2314 145.353 41.5662L142.146 50.2099H149.825ZM170.881 52.9309C170.755 53.2399 170.638 53.5575 170.53 53.8923C170.421 54.2271 170.326 54.5447 170.244 54.8537H170.118C170.036 54.5447 169.94 54.2271 169.832 53.8923C169.724 53.5575 169.607 53.2399 169.481 52.9309L162.777 36.0941H158.925V58.4846H161.75V42.3387C161.75 42.0297 161.746 41.6864 161.733 41.3001C161.724 40.9138 161.698 40.5705 161.655 40.2615H161.781C161.841 40.5705 161.937 40.9138 162.062 41.3001C162.188 41.6864 162.309 42.0297 162.435 42.3387L168.861 58.4846H171.44L177.866 42.3387C177.992 42.0297 178.113 41.6864 178.239 41.3001C178.364 40.9138 178.455 40.5705 178.52 40.2615H178.646C178.603 40.5705 178.577 40.9138 178.568 41.3001C178.559 41.6864 178.551 42.0297 178.551 42.3387V58.4846H181.441V36.0941H177.589L170.881 52.9309ZM187.113 58.4846H190.095V36.0941H187.113V58.4846ZM210.24 51.4717C210.24 51.7807 210.245 52.1241 210.249 52.5103C210.253 52.8966 210.262 53.2399 210.271 53.549H210.145C210.019 53.2914 209.868 53.0125 209.686 52.7035C209.504 52.3945 209.309 52.0897 209.105 51.7807L198.874 36.0941H195.767V58.4846H198.688V43.1069C198.688 42.7979 198.683 42.4546 198.679 42.0683C198.675 41.6821 198.666 41.3387 198.657 41.0297H198.766C198.909 41.2872 199.069 41.5662 199.247 41.8752C199.424 42.1842 199.615 42.4889 199.823 42.7979L210.054 58.4846H213.161V36.0941H210.24V51.4717ZM235.959 42.6434L235.941 42.4761C235.777 40.6306 234.966 39.0297 233.51 37.6692C232.054 36.3087 230.052 35.6306 227.496 35.6306C224.67 35.6306 222.365 36.5962 220.58 38.5233C218.794 40.4503 217.902 43.137 217.902 46.579V47.9953C217.902 51.4417 218.794 54.1241 220.58 56.0511C222.365 57.9781 224.757 58.9438 227.76 58.9438C229.727 58.9438 231.409 58.6348 232.804 58.021C234.199 57.4073 235.252 56.7378 235.954 56.021V47.2872H227.448V49.7164H233.068V54.9438C232.323 55.4545 231.534 55.8322 230.707 56.0683C229.879 56.3043 228.895 56.4202 227.756 56.4202C225.58 56.4202 223.899 55.6734 222.703 54.1756C221.507 52.6777 220.909 50.6176 220.909 47.9953V46.579C220.909 43.9567 221.507 41.8924 222.703 40.3988C223.899 38.901 225.485 38.1542 227.461 38.1542C229.212 38.1542 230.568 38.622 231.53 39.5533C232.492 40.4846 232.973 41.4632 232.973 42.4889V42.6434H235.959Z" fill="white"/>
</g>
<defs>
<clipPath id="clip0_1260_3163">
<rect width="260" height="62.9181" fill="white"/>
</clipPath>
</defs>
</svg>
