<svg width="102" height="22" viewBox="0 0 102 22" fill="none" xmlns="http://www.w3.org/2000/svg">
    <g clip-path="url(#clip0_620_1281)">
        <path d="M87.6173 17.6196L102 17.5912V0.865234H77.7255L84.8875 13.0606L87.6173 17.6196Z" fill="#E41A42"/>
        <path d="M25.2431 5.28179V0.865234H19.8423L22.6014 5.28179H25.2431Z" fill="#E41A42"/>
        <path d="M27.8262 10.9232C27.8262 16.7929 32.5813 21.2094 38.8921 21.2094C41.798 21.2094 45.2909 20.1267 47.5217 18.588V10.7522H42.9721V15.9666C41.7393 16.5649 40.3597 16.9354 39.303 16.9354C35.8688 16.9354 33.227 14.3424 33.227 10.9232C33.227 7.56088 35.8394 4.96793 39.2443 4.96793C41.1816 4.96793 43.2656 5.79425 44.7919 7.16196L47.7565 3.68571C45.6138 1.8336 42.3557 0.693848 39.2737 0.693848C32.728 0.693848 27.8262 5.08191 27.8262 10.9232Z" fill="white"/>
        <path d="M19.8423 5.28174V21.0104L25.2431 21.0389V9.69829L22.6014 5.28174H19.8423Z" fill="white"/>
        <path d="M17.0245 15.0265C17.0245 10.7239 13.6783 9.49867 10.3614 8.84331L10.0679 8.78632C7.0446 8.18795 5.51827 7.90301 5.51827 6.39283C5.51827 5.11061 6.66302 4.39826 8.62964 4.39826C10.655 4.39826 12.0052 5.19609 12.4748 6.67777L12.5042 6.79175L16.8777 5.65199L16.8483 5.53802C15.8797 2.28971 12.9445 0.580078 8.33611 0.580078C3.19942 0.580078 0.381583 2.71712 0.381583 6.59229C0.381583 10.382 3.08201 11.5217 6.01727 12.1771C6.60432 12.2911 7.13266 12.405 7.63165 12.519C10.3321 13.0604 11.9465 13.3738 11.9465 15.1405C11.9465 16.9356 10.244 17.3345 8.80576 17.3345C6.01727 17.3345 4.78446 15.9383 4.54964 14.5991L4.52029 14.4851L0 15.6533L0.0293525 15.7673C0.528345 18.1893 2.46561 21.0957 8.80576 21.0957C14.1186 21.0957 17.0245 18.9586 17.0245 15.0265Z" fill="white"/>
        <path d="M76.2578 5.31011L73.6161 0.893555H68.2152L62.2566 12.8895L56.4155 0.893555H50.8385V21.0387H55.5643V7.96004L60.5248 18.5883H63.9591L68.949 7.96004L68.9784 21.0387H73.6161V5.31011H76.2578Z" fill="white"/>
        <path d="M98.9473 21.0387L86.9421 0.893555L84.3298 5.31011L81.7174 9.72666H81.688L74.9663 21.0387H80.2204L86.9421 9.69817L93.6932 21.0387H98.9473Z" fill="white"/>
    </g>
    <defs>
        <clipPath id="clip0_620_1281">
            <rect width="102" height="21" fill="white" transform="translate(0 0.580078)"/>
        </clipPath>
    </defs>
</svg>
