<svg width="44" height="44" viewBox="0 0 44 44" fill="none" xmlns="http://www.w3.org/2000/svg">
    <g clip-path="url(#clip0_620_1248)">
        <path d="M22.2391 42.7158C33.7595 42.7158 43.0985 33.3768 43.0985 21.8564C43.0985 10.3361 33.7595 0.99707 22.2391 0.99707C10.7188 0.99707 1.37976 10.3361 1.37976 21.8564C1.37976 33.3768 10.7188 42.7158 22.2391 42.7158Z" fill="#7C37A0"/>
        <path d="M13.4115 27.0718V19.3705C13.3967 18.9743 13.4191 18.5777 13.4782 18.1857L10.9751 18.8448L10.6664 17.2679L13.4115 16.1665H15.8228V27.0718H13.4115Z" fill="white"/>
        <path d="M20.0198 21.3643C18.8684 21.2392 18.4095 20.1294 18.4095 18.8612C18.4095 16.8337 19.1187 15.9492 22.2059 15.9492C25.2931 15.9492 25.9939 16.8337 25.9939 18.8612C25.9939 20.1294 25.5183 21.2392 24.3836 21.3643V21.4394C25.8688 21.5813 26.2526 22.8078 26.2526 24.3597C26.2526 26.4039 25.4766 27.255 22.1892 27.2884C18.9017 27.3217 18.1174 26.4039 18.1174 24.3597C18.1174 22.8078 18.5179 21.5813 20.0031 21.4394L20.0198 21.3643ZM20.4036 23.8674C20.4036 25.0856 20.7541 25.4194 22.2226 25.4194C23.6911 25.4194 23.9831 25.0856 23.9831 23.8674C23.9831 22.6493 23.666 22.2738 22.2392 22.2738C20.8125 22.2738 20.4036 22.5908 20.4036 23.8591V23.8674ZM20.5788 19.1532C20.5788 20.2796 20.8959 20.5717 22.2476 20.5717C23.5993 20.5717 23.8329 20.2629 23.8329 19.1532C23.8329 18.0435 23.5492 17.6847 22.2309 17.6847C20.9126 17.6847 20.5788 17.9767 20.5788 19.1449V19.1532Z" fill="white"/>
        <path d="M32.2432 23.1587V25.8037H30.5161V23.1587H27.771V21.4399H30.4994V18.7866H32.2432V21.4399H34.9883V23.1087L32.2432 23.1587Z" fill="white"/>
    </g>
    <defs>
        <clipPath id="clip0_620_1248">
            <rect width="42.5531" height="42.5531" fill="white" transform="translate(0.962646 0.580078)"/>
        </clipPath>
    </defs>
</svg>
