<svg width="44" height="44" viewBox="0 0 44 44" fill="none" xmlns="http://www.w3.org/2000/svg">
    <g clip-path="url(#clip0_620_1256)">
        <path d="M21.7578 42.7158C33.2781 42.7158 42.6172 33.3768 42.6172 21.8564C42.6172 10.3361 33.2781 0.99707 21.7578 0.99707C10.2375 0.99707 0.898438 10.3361 0.898438 21.8564C0.898438 33.3768 10.2375 42.7158 21.7578 42.7158Z" fill="#7C37A0"/>
        <path d="M15.7003 14.5144C16.003 14.2994 16.3467 14.1489 16.7099 14.0722C16.9141 14.0284 17.1263 14.0401 17.3244 14.1061C17.5225 14.1722 17.6993 14.2901 17.8363 14.4476C17.9281 14.5561 17.9698 14.5645 18.0783 14.4476C18.3027 14.2597 18.5687 14.1281 18.8543 14.0638C19.0368 13.996 19.2334 13.9753 19.426 14.0034C19.6186 14.0316 19.801 14.1078 19.9565 14.225C20.1119 14.3422 20.2353 14.4966 20.3154 14.674C20.3954 14.8515 20.4295 15.0462 20.4146 15.2403C20.4146 16.2582 20.4146 17.2678 20.4146 18.2858C20.4146 18.4526 20.3645 18.5194 20.1893 18.511C19.8947 18.4944 19.5994 18.4944 19.3048 18.511C19.1046 18.511 19.0462 18.4526 19.0545 18.2607C19.0545 17.3596 19.0545 16.4585 19.0545 15.5574C19.0545 15.1318 18.7375 15.0734 18.4705 15.1735C18.3359 15.2207 18.2206 15.3108 18.1422 15.4299C18.0638 15.549 18.0267 15.6905 18.0366 15.8327C18.0366 16.6671 18.0366 17.4264 18.0366 18.219C18.0366 18.4693 17.9615 18.5277 17.7362 18.511C17.5109 18.4944 17.1688 18.511 16.9018 18.511C16.6348 18.511 16.6849 18.461 16.6849 18.3025C16.6849 17.4097 16.6849 16.5169 16.6849 15.6325C16.6849 15.1986 16.4513 15.015 16.0591 15.2069C15.9377 15.2488 15.8335 15.3296 15.7626 15.4366C15.6917 15.5437 15.6581 15.6712 15.667 15.7993C15.667 16.6337 15.667 17.4264 15.667 18.244C15.667 18.461 15.6086 18.5277 15.3916 18.511C15.1747 18.4944 14.7909 18.511 14.4822 18.511C14.3236 18.511 14.2736 18.461 14.2736 18.3025C14.2736 16.9841 14.2736 15.6658 14.2736 14.3475C14.2736 14.1473 14.3487 14.1055 14.5239 14.1139C14.7795 14.1306 15.0359 14.1306 15.2915 14.1139C15.5585 14.1306 15.7754 14.1306 15.7003 14.5144Z" fill="white"/>
        <path d="M8.72501 16.6336C8.72501 16.959 8.72501 17.2928 8.72501 17.6265C8.72762 17.6916 8.71631 17.7566 8.69185 17.817C8.6674 17.8774 8.63035 17.932 8.58317 17.9769C8.30305 18.2831 7.94819 18.5112 7.55336 18.6389C7.15854 18.7666 6.73731 18.7895 6.33097 18.7054C5.92463 18.6212 5.54712 18.4329 5.23546 18.159C4.9238 17.885 4.68867 17.5348 4.55314 17.1426C4.13069 15.93 4.19958 14.6003 4.74504 13.4379C4.91057 13.018 5.21879 12.6699 5.61555 12.4548C6.0123 12.2396 6.4722 12.1712 6.91442 12.2615C7.36008 12.3183 7.77442 12.521 8.09286 12.838C8.4113 13.1549 8.61596 13.5683 8.67495 14.0137C8.67495 14.1555 8.67495 14.2306 8.52476 14.2389C8.18267 14.2389 7.84892 14.2389 7.50683 14.3057C7.33995 14.3057 7.28989 14.3057 7.29823 14.1054C7.30519 13.8457 7.20922 13.5938 7.03123 13.4046C6.99735 13.3512 6.95052 13.3072 6.89509 13.2767C6.83966 13.2462 6.77743 13.2302 6.71417 13.2302C6.65091 13.2302 6.58868 13.2462 6.53325 13.2767C6.47782 13.3072 6.43099 13.3512 6.39711 13.4046C6.12603 13.6862 5.94832 14.0446 5.88814 14.4309C5.69622 15.226 5.69622 16.0554 5.88814 16.8505C5.90042 16.9965 5.94809 17.1373 6.02703 17.2607C6.10598 17.384 6.21381 17.4863 6.34119 17.5586C6.46857 17.631 6.61166 17.6711 6.75807 17.6757C6.90448 17.6803 7.04979 17.649 7.18142 17.5848C7.31492 17.5347 7.38167 17.4763 7.37333 17.3178C7.36498 17.1593 7.37333 16.8255 7.37333 16.5835C7.37333 16.3416 7.37333 16.4334 7.22314 16.4334C6.72251 16.4334 6.72251 16.4334 6.72251 15.9077C6.72251 15.382 6.72251 15.4404 7.18142 15.4404H8.51642C8.68329 15.4404 8.75004 15.4404 8.7417 15.6574C8.7417 15.9995 8.7417 16.3416 8.7417 16.6837L8.72501 16.6336Z" fill="white"/>
        <path d="M4.25274 28.3063C4.23054 27.5588 4.3819 26.8162 4.69496 26.137C4.88309 25.7387 5.20471 25.4188 5.60401 25.2329C6.00332 25.0469 6.45512 25.0067 6.88103 25.119C7.24019 25.2127 7.56077 25.4171 7.79737 25.7031C8.03397 25.9891 8.1746 26.3423 8.19934 26.7127C8.20739 26.8071 8.20739 26.902 8.19934 26.9964C8.19934 27.1048 8.19934 27.1716 8.04915 27.1799C7.69871 27.1799 7.34828 27.1799 7.00618 27.2467C6.84765 27.2467 6.81428 27.1883 6.81428 27.0464C6.82756 26.8105 6.79059 26.5745 6.70581 26.3539C6.6474 26.2121 6.57231 26.0952 6.40543 26.0786C6.32557 26.0701 6.245 26.0854 6.17377 26.1225C6.10255 26.1596 6.04382 26.2169 6.00493 26.2871C5.90465 26.4492 5.84193 26.6317 5.82137 26.8211C5.67122 27.7664 5.67122 28.7294 5.82137 29.6747C5.85717 29.9012 5.95215 30.1142 6.09671 30.2921C6.12872 30.3425 6.17429 30.3828 6.22818 30.4085C6.28207 30.4341 6.3421 30.444 6.40137 30.437C6.46063 30.43 6.51673 30.4065 6.56321 30.369C6.60968 30.3316 6.64465 30.2818 6.66409 30.2254C6.7883 29.965 6.8511 29.6795 6.84765 29.391C6.84765 29.2075 6.90606 29.1574 7.08128 29.1741C7.39834 29.1741 7.72375 29.1741 8.04081 29.1741C8.20768 29.1741 8.28278 29.2325 8.24106 29.4161C8.21221 29.6325 8.17042 29.8471 8.1159 30.0585C8.0458 30.4201 7.8625 30.75 7.59251 31.0005C7.32251 31.251 6.97983 31.4091 6.61403 31.4519C6.20326 31.4991 5.7884 31.4094 5.43385 31.1967C5.07931 30.9839 4.8049 30.6601 4.65324 30.2755C4.37902 29.6557 4.24239 28.9839 4.25274 28.3063Z" fill="white"/>
        <path d="M25.9799 14.456C26.202 14.254 26.4703 14.1096 26.7613 14.0354C27.0522 13.9612 27.3569 13.9596 27.6486 14.0305C27.8992 14.0687 28.1275 14.1961 28.2915 14.3893C28.4556 14.5825 28.5443 14.8284 28.5414 15.0818C28.5414 16.1582 28.5414 17.2262 28.5414 18.2942C28.5414 18.4193 28.5414 18.4944 28.3745 18.4861C28.0491 18.4861 27.7237 18.4861 27.4067 18.4861C27.0896 18.4861 27.1897 18.3776 27.1897 18.2191C27.1897 17.3847 27.1897 16.5503 27.1897 15.7159C27.1897 15.2404 27.0813 15.0902 26.7392 15.0902C26.6435 15.0785 26.5465 15.087 26.4543 15.1149C26.3622 15.1429 26.2768 15.1898 26.2038 15.2526C26.1308 15.3154 26.0717 15.3928 26.0302 15.4798C25.9888 15.5667 25.966 15.6614 25.9632 15.7577C25.9632 16.592 25.9632 17.3847 25.9632 18.2024C25.9632 18.4193 25.9215 18.5111 25.6878 18.4944C25.3849 18.4777 25.0813 18.4777 24.7784 18.4944C24.6282 18.4944 24.5781 18.4444 24.5781 18.2942V14.2641C24.5781 14.1306 24.5781 14.0806 24.7617 14.0889H25.813C26.0883 14.0722 25.8714 14.3225 25.9799 14.456Z" fill="white"/>
        <path d="M4.55302 21.9067C4.55302 20.9722 4.55302 20.0461 4.55302 19.1199C4.55302 18.8779 4.63646 18.8112 4.86174 18.8195C5.13963 18.8356 5.41822 18.8356 5.69612 18.8195C5.91305 18.8195 5.97146 18.8863 5.97146 19.0949C5.97146 20.6218 5.97146 22.1487 5.97146 23.6672C5.97146 23.9009 5.97146 23.976 6.25515 23.9676C6.84755 23.9676 7.43162 23.9676 8.02402 23.9676C8.22427 23.9676 8.27433 24.0344 8.27433 24.2263C8.27433 24.9689 8.27433 24.9689 7.54008 24.9689H4.82002C4.59474 24.9689 4.54468 24.9021 4.54468 24.6935C4.56137 23.759 4.55302 22.8329 4.55302 21.9067Z" fill="white"/>
        <path d="M24.4195 29.508C24.4195 29.0074 24.4195 28.5067 24.4195 28.0061C24.4195 27.8476 24.4195 27.7391 24.2109 27.7725C24.0023 27.8059 23.9606 27.6974 23.9773 27.5222C23.9935 27.4283 23.9935 27.3323 23.9773 27.2385C23.9773 26.9882 23.9773 26.838 24.3027 26.888C24.4195 26.888 24.4779 26.888 24.4696 26.7379C24.4753 26.6257 24.4892 26.5142 24.5113 26.4041C24.5509 26.0948 24.6995 25.8097 24.9305 25.6002C25.1614 25.3907 25.4595 25.2704 25.7712 25.261C26.1881 25.2291 26.6073 25.2773 27.0061 25.4029C27.1646 25.4446 27.198 25.5197 27.1479 25.6615C27.1432 25.7003 27.1432 25.7395 27.1479 25.7783C27.0979 25.9452 27.0979 26.1705 26.9811 26.2789C26.8642 26.3874 26.6807 26.2039 26.5222 26.1705C26.431 26.1499 26.3362 26.1521 26.2462 26.1769C26.1561 26.2017 26.0736 26.2484 26.0059 26.3128C25.9382 26.3772 25.8874 26.4573 25.8581 26.546C25.8289 26.6347 25.8219 26.7293 25.838 26.8213C25.838 26.8964 25.838 26.9214 25.9381 26.9214H26.0549C26.6723 26.9214 26.664 26.9214 26.6473 27.5555C26.6473 27.7391 26.5722 27.7725 26.4053 27.7725C25.863 27.7725 25.863 27.7725 25.863 28.3232C25.863 29.2326 25.863 30.1421 25.863 31.0516C25.863 31.2685 25.7962 31.3353 25.5877 31.3186C25.3791 31.3019 24.9786 31.3186 24.6782 31.3186C24.3778 31.3186 24.4279 31.2518 24.4362 31.0683C24.4279 30.5509 24.4195 30.0336 24.4195 29.508Z" fill="white"/>
        <path d="M21.199 21.6564C21.0906 21.6502 20.9819 21.6502 20.8736 21.6564C20.6983 21.6564 20.5899 21.6564 20.5565 21.4478C20.5455 21.4048 20.5257 21.3646 20.4982 21.3298C20.4708 21.295 20.4363 21.2663 20.3971 21.2456C20.3579 21.225 20.3147 21.2128 20.2705 21.2098C20.2263 21.2068 20.1819 21.2132 20.1402 21.2284C20.0986 21.2437 20.0606 21.2675 20.0288 21.2983C19.9969 21.3291 19.9719 21.3663 19.9553 21.4074C19.9387 21.4486 19.9309 21.4927 19.9324 21.537C19.9339 21.5813 19.9447 21.6248 19.9641 21.6647C20.0044 21.7709 20.0705 21.8654 20.1564 21.9397C20.2423 22.014 20.3454 22.0658 20.4564 22.0902C20.7286 22.1668 20.9895 22.279 21.2323 22.424C21.4772 22.5634 21.6724 22.7759 21.7906 23.0317C21.9088 23.2875 21.9441 23.5739 21.8915 23.8508C21.855 24.1162 21.7338 24.3627 21.5459 24.5537C21.3579 24.7446 21.1133 24.8698 20.8485 24.9104C20.3986 25.0391 19.9217 25.0391 19.4718 24.9104C19.263 24.8471 19.0731 24.7332 18.9188 24.579C18.7645 24.4247 18.6507 24.2348 18.5874 24.026C18.5373 23.8508 18.5874 23.7924 18.7542 23.8007H19.6637C19.7805 23.8007 19.8222 23.8591 19.8556 23.9509C19.885 24.0335 19.9413 24.1039 20.0154 24.1508C20.0895 24.1977 20.1772 24.2184 20.2645 24.2095C20.3365 24.207 20.4055 24.18 20.4601 24.1329C20.5147 24.0859 20.5516 24.0217 20.5648 23.9509C20.5977 23.8673 20.6033 23.7755 20.5808 23.6886C20.5583 23.6017 20.5089 23.5241 20.4397 23.467C20.2195 23.3041 19.9781 23.1722 19.7221 23.0748C19.3239 22.9125 18.9939 22.6178 18.7876 22.2404C18.6535 22.0044 18.6051 21.7292 18.6507 21.4615C18.6964 21.1939 18.8332 20.9502 19.0379 20.7719C19.3723 20.529 19.7747 20.3975 20.188 20.396C20.6013 20.3945 21.0046 20.5231 21.3408 20.7636L21.4076 20.8136C21.6078 21.0222 21.8414 21.2809 21.758 21.5479C21.6746 21.8149 21.3408 21.6063 21.199 21.6564Z" fill="white"/>
        <path d="M17.6361 29.0325C17.6361 28.6988 17.6361 28.365 17.6361 28.0396C17.6361 27.8728 17.5861 27.806 17.4275 27.831C17.269 27.8561 17.0938 27.7476 17.1272 27.514C17.1353 27.4587 17.1353 27.4024 17.1272 27.3471C17.1272 27.0718 17.1272 26.8465 17.5026 26.9132C17.6111 26.9132 17.6361 26.8548 17.6361 26.7547C17.6361 26.6546 17.6361 26.3542 17.6361 26.154C17.6361 25.9537 17.6779 25.9454 17.8281 25.9537H18.7709C18.896 25.9537 18.9545 25.9537 18.9545 26.1289C18.9545 26.3041 18.9545 26.5127 18.9545 26.6963C18.9545 26.8799 19.0045 26.8882 19.1547 26.8882C19.8055 26.8882 19.7972 26.8882 19.7972 27.5724C19.7972 27.7893 19.7221 27.8227 19.5385 27.8144C18.9461 27.8144 18.9461 27.8144 18.9461 28.3984C18.9461 28.849 18.9461 29.2912 18.9461 29.7334C18.9334 29.8471 18.9334 29.9618 18.9461 30.0755C19.0462 30.4593 19.2799 30.5678 19.622 30.3592C19.8306 30.234 19.9056 30.2758 19.9724 30.501C20.1643 31.1519 20.1726 31.1519 19.5051 31.3354C19.2784 31.4299 19.0307 31.4624 18.7873 31.4296C18.5439 31.3968 18.3136 31.2998 18.12 31.1487C17.9264 30.9976 17.7765 30.7977 17.6856 30.5695C17.5947 30.3413 17.5661 30.0931 17.6028 29.8502C17.6028 29.5832 17.6028 29.3079 17.6028 29.0159L17.6361 29.0325Z" fill="white"/>
        <path d="M13.8313 29.1409C13.8313 28.5068 13.8313 27.8726 13.8313 27.2385C13.8313 27.0049 13.898 26.9381 14.1233 26.9548C14.3486 26.9715 14.6489 26.9548 14.9159 26.9548C15.0328 26.9548 15.1746 26.8881 15.208 27.1134C15.2414 27.3386 15.3248 27.1134 15.3665 27.1134C15.4983 27.0016 15.6552 26.9235 15.8237 26.8857C15.9923 26.8479 16.1675 26.8516 16.3344 26.8964C16.4595 26.9465 16.5346 27.0132 16.5096 27.1718C16.4846 27.3303 16.4429 27.6724 16.4178 27.9311C16.4178 28.0646 16.4178 28.1146 16.2259 28.0479C16.1146 27.987 15.9889 27.9574 15.8622 27.9624C15.7354 27.9673 15.6124 28.0066 15.5062 28.0759C15.4 28.1453 15.3146 28.2422 15.2592 28.3563C15.2037 28.4704 15.1803 28.5973 15.1913 28.7237C15.1913 29.4913 15.1913 30.259 15.1913 31.0266C15.1913 31.2852 15.1162 31.352 14.8742 31.3353C14.5965 31.3154 14.3176 31.3154 14.0399 31.3353C13.8563 31.3353 13.8146 31.2686 13.8146 31.1017C13.8313 30.4425 13.8313 29.7834 13.8313 29.1409Z" fill="white"/>
        <path d="M21.2823 29.0824C21.2823 28.4149 21.2823 27.7558 21.2823 27.0883C21.2823 26.9214 21.324 26.8547 21.4992 26.863C21.8247 26.863 22.1417 26.863 22.4671 26.863C22.634 26.863 22.7007 26.9047 22.7007 27.0883C22.7007 28.4233 22.7007 29.7583 22.7007 31.0933C22.7007 31.2602 22.659 31.3269 22.4755 31.3186C22.1667 31.3186 21.858 31.3186 21.541 31.3186C21.2239 31.3186 21.2823 31.2685 21.2823 31.0682C21.2907 30.4007 21.2823 29.7833 21.2823 29.0824Z" fill="white"/>
        <path d="M21.7495 16.2747C21.7495 15.6155 21.7495 14.9647 21.7495 14.3139C21.7495 14.1304 21.7495 14.0553 21.9831 14.0636C22.3055 14.0803 22.6286 14.0803 22.951 14.0636C23.1262 14.0636 23.1679 14.122 23.1679 14.2972C23.1679 15.6239 23.1679 16.9422 23.1679 18.2689C23.1679 18.4775 23.1012 18.5359 22.9093 18.5275C22.6314 18.5115 22.3528 18.5115 22.0749 18.5275C21.8413 18.5275 21.7579 18.4775 21.7662 18.2271C21.7579 17.5763 21.7495 16.9255 21.7495 16.2747Z" fill="white"/>
        <path d="M29.3674 29.1492C29.3674 29.8167 29.3674 30.4758 29.3674 31.1433C29.3674 31.3352 29.3174 31.3853 29.1338 31.3769H28.1659C28.0158 31.3769 27.9657 31.3269 27.9657 31.1767V27.1133C27.9657 26.9631 28.0241 26.9214 28.1659 26.9214H29.1589C29.3257 26.9214 29.3674 26.9798 29.3674 27.1383C29.3591 27.8058 29.3674 28.4817 29.3674 29.1492Z" fill="white"/>
        <path d="M28.6748 26.2705C28.5331 26.2621 28.391 26.2621 28.2493 26.2705C27.9823 26.2705 27.9322 26.187 27.9405 25.9534C27.9405 25.3276 27.9405 25.3276 28.558 25.3276C28.7666 25.3276 28.9752 25.3276 29.1838 25.3276C29.3924 25.3276 29.384 25.3694 29.3924 25.5195C29.4424 26.2705 29.4424 26.2705 28.6748 26.2705Z" fill="white"/>
        <path d="M22.4671 12.4531C23.168 12.4531 23.1596 12.4531 23.1596 13.1707C23.1596 13.3709 23.1012 13.4293 22.9093 13.421C22.598 13.4043 22.2861 13.4043 21.9748 13.421C21.7996 13.421 21.7245 13.3793 21.7245 13.1874C21.7078 12.4531 21.7078 12.4531 22.4671 12.4531Z" fill="white"/>
        <path d="M21.9747 26.2125C21.2238 26.2125 21.2238 26.2125 21.2655 25.4449C21.2655 25.2863 21.3322 25.2446 21.4741 25.253H22.5004C22.6589 25.253 22.7006 25.3114 22.709 25.4699C22.7257 26.2125 22.734 26.2125 21.9747 26.2125Z" fill="white"/>
        <path d="M33.1806 14.1304C32.9804 13.9302 32.5465 14.1304 32.2211 14.072C32.1293 14.072 31.9791 14.072 31.9458 14.072C31.9124 14.072 31.7539 14.1387 31.6537 14.072C31.4791 13.9872 31.2895 13.9378 31.0957 13.9267C30.9019 13.9156 30.7078 13.9431 30.5247 14.0075C30.3416 14.0719 30.1731 14.172 30.0289 14.3019C29.8847 14.4318 29.7677 14.5891 29.6846 14.7645C29.4766 15.1976 29.3624 15.6697 29.3495 16.1499C29.3366 16.6302 29.4252 17.1077 29.6095 17.5513C29.7019 17.8128 29.8689 18.0415 30.0898 18.2091C30.3108 18.3766 30.576 18.4758 30.8527 18.4942C31.2077 18.5229 31.5635 18.4506 31.879 18.2856C31.8934 18.5894 31.8597 18.8935 31.7789 19.1867C31.7121 19.412 31.6204 19.6289 31.3367 19.6289C31.053 19.6289 30.9195 19.4871 30.8527 19.145C30.8527 19.0198 30.786 18.9614 30.6525 18.9698L29.6846 19.0449C29.5094 19.0449 29.476 19.1283 29.5177 19.2868C29.5678 19.5575 29.6917 19.809 29.8758 20.0137C30.0598 20.2184 30.2969 20.3682 30.5607 20.4466C31.0701 20.6147 31.62 20.6147 32.1293 20.4466C32.4695 20.3298 32.7603 20.1014 32.9542 19.7984C33.1481 19.4954 33.2338 19.1357 33.1973 18.7779C33.1973 17.5597 33.1973 16.3332 33.1973 15.115C33.2307 14.7645 33.3725 14.3223 33.1806 14.1304ZM31.6204 17.4679C31.5368 17.5123 31.4411 17.5282 31.3477 17.5131C31.2543 17.498 31.1684 17.4529 31.103 17.3845C31.0264 17.3255 30.9661 17.248 30.9278 17.1592C30.7958 16.8816 30.7273 16.578 30.7273 16.2706C30.7273 15.9632 30.7958 15.6596 30.9278 15.382C30.9535 15.2975 31.0027 15.222 31.0695 15.1644C31.1364 15.1067 31.2182 15.0691 31.3055 15.056C31.3928 15.0429 31.4821 15.0548 31.5629 15.0903C31.6437 15.1259 31.7128 15.1836 31.7622 15.2568C31.8019 15.2971 31.8322 15.3457 31.851 15.399C31.8697 15.4524 31.8765 15.5093 31.8707 15.5655V16.3248C31.8582 16.5527 31.8582 16.7811 31.8707 17.009C31.8783 17.0993 31.8585 17.1899 31.8138 17.2688C31.7691 17.3477 31.7017 17.4112 31.6204 17.4512V17.4679Z" fill="white"/>
        <path d="M17.5611 21.4395C17.4626 21.1967 17.3048 20.9825 17.1022 20.8163C16.8996 20.6502 16.6587 20.5374 16.4013 20.4883C15.9458 20.4309 15.4852 20.5438 15.108 20.8054C15.108 20.2547 15.108 19.7708 15.108 19.2785C15.108 19.12 15.0663 19.0532 14.8994 19.0532C14.5657 19.0532 14.2403 19.0532 13.9065 19.0532C13.7563 19.0532 13.7146 19.12 13.7146 19.2618C13.7146 21.0974 13.7146 22.9331 13.7146 24.7687C13.7146 24.9105 13.7146 24.9773 13.9065 24.9773H14.9244C14.9828 24.9773 15.0663 24.9773 15.0746 24.9272C15.133 24.6602 15.2582 24.8438 15.35 24.8855C15.5502 24.9959 15.7718 25.0619 15.9998 25.0791C16.2277 25.0963 16.4568 25.0642 16.6712 24.9851C16.8857 24.9059 17.0807 24.7816 17.2429 24.6204C17.405 24.4593 17.5306 24.2651 17.6111 24.0511C17.7831 23.6359 17.8675 23.1895 17.8589 22.7401C17.8503 22.2907 17.7489 21.8479 17.5611 21.4395ZM16.2678 23.7591C16.1847 23.8787 16.0606 23.9635 15.919 23.9973C15.7774 24.0312 15.6283 24.0117 15.5002 23.9427C15.1831 23.8509 15.0997 23.7341 15.0997 23.392V22.057C15.092 21.9633 15.1059 21.8691 15.1401 21.7816C15.1744 21.6941 15.2282 21.6156 15.2974 21.552C15.3666 21.4885 15.4494 21.4415 15.5395 21.4148C15.6295 21.3881 15.7245 21.3823 15.8172 21.3978C15.9064 21.4136 15.9883 21.4574 16.0508 21.523C16.272 21.8395 16.4082 22.2075 16.4462 22.5918C16.4842 22.9761 16.4227 23.3637 16.2678 23.7174V23.7591Z" fill="white"/>
        <path d="M39.2631 25.6114C39.2631 25.4112 39.1963 25.3528 39.0044 25.3611C38.749 25.382 38.4922 25.382 38.2368 25.3611C37.9448 25.3611 37.8613 25.4362 37.878 25.7199C37.878 26.1788 37.878 26.6294 37.878 27.1216L37.6944 27.0299C37.4939 26.9041 37.2673 26.8256 37.0318 26.8003C36.7964 26.775 36.5583 26.8037 36.3356 26.8841C36.1129 26.9645 35.9114 27.0945 35.7464 27.2644C35.5814 27.4342 35.4572 27.6393 35.3832 27.8642C35.2124 28.2594 35.1243 28.6853 35.1243 29.1158C35.1243 29.5463 35.2124 29.9722 35.3832 30.3674C35.5289 30.7382 35.8138 31.0373 36.177 31.201C36.5402 31.3647 36.953 31.3799 37.3273 31.2435C37.5025 31.1851 37.6611 31.11 37.8613 31.0349C37.8113 31.2351 37.9281 31.2518 38.0866 31.2518C38.387 31.2518 38.6874 31.2518 38.9961 31.2518C39.3048 31.2518 39.238 31.1851 39.238 30.9931C39.2631 29.1909 39.2547 27.4053 39.2631 25.6114ZM37.878 29.7082C37.8898 29.7754 37.8875 29.8444 37.8713 29.9107C37.855 29.977 37.8252 30.0392 37.7836 30.0934C37.742 30.1475 37.6896 30.1924 37.6297 30.2252C37.5698 30.258 37.5038 30.278 37.4358 30.2839C37.2959 30.3324 37.143 30.3267 37.0071 30.268C36.8712 30.2093 36.7622 30.1019 36.7015 29.9669C36.5881 29.7182 36.5311 29.4475 36.5347 29.1742C36.5164 28.8412 36.5705 28.5081 36.6932 28.198C36.7133 28.1253 36.7478 28.0573 36.7945 27.998C36.8413 27.9388 36.8994 27.8895 36.9654 27.8529C37.0315 27.8164 37.1041 27.7934 37.1792 27.7854C37.2542 27.7773 37.3301 27.7842 37.4024 27.8058C37.4755 27.8139 37.5461 27.8368 37.6101 27.8731C37.674 27.9093 37.73 27.9582 37.7744 28.0167C37.8189 28.0752 37.851 28.1422 37.8688 28.2135C37.8866 28.2848 37.8898 28.3591 37.878 28.4316V29.7082Z" fill="white"/>
        <path d="M12.7383 30.0338C12.4744 30.0505 12.2096 30.0505 11.9457 30.0338C11.8506 30.0102 11.7502 30.0239 11.6648 30.072C11.5795 30.1201 11.5158 30.1989 11.4868 30.2925C11.4516 30.3919 11.3838 30.4766 11.2945 30.5326C11.2051 30.5887 11.0993 30.6129 10.9945 30.6012C10.8942 30.589 10.7997 30.5478 10.7226 30.4825C10.6455 30.4173 10.5892 30.3309 10.5606 30.234C10.487 30.0496 10.4393 29.8559 10.4188 29.6583C10.4188 29.5081 10.4188 29.4581 10.6023 29.4664H12.3879C13.0304 29.4664 13.0304 29.4664 12.9803 28.8323C12.9948 28.3477 12.8229 27.876 12.5001 27.5143C12.1772 27.1527 11.7279 26.9286 11.2448 26.8882C10.8042 26.8038 10.3479 26.8815 9.96002 27.1068C9.57212 27.3322 9.27872 27.6902 9.13383 28.1147C9.00607 28.5303 8.96072 28.9668 9.00033 29.3997C8.98432 29.9203 9.17264 30.4265 9.52503 30.8101C9.87742 31.1937 10.3659 31.4241 10.886 31.4522C11.2933 31.501 11.7057 31.4231 12.067 31.229C12.4284 31.0349 12.7211 30.7341 12.9052 30.3675C12.997 30.1423 12.997 30.0338 12.7383 30.0338ZM10.4939 28.2065C10.5394 28.0707 10.6166 27.9477 10.7191 27.8477C10.7618 27.8035 10.8143 27.77 10.8723 27.7498C10.9303 27.7296 10.9922 27.7233 11.0531 27.7314C11.114 27.7395 11.1721 27.7618 11.2228 27.7965C11.2735 27.8312 11.3153 27.8773 11.3449 27.9312C11.4244 28.0307 11.48 28.1472 11.5074 28.2716C11.5349 28.3959 11.5336 28.525 11.5035 28.6487C11.4451 28.7989 11.1614 28.6487 11.0195 28.7071H10.8276C10.3353 28.6988 10.3186 28.6738 10.4939 28.2065Z" fill="white"/>
        <path d="M34.2819 29.9668C34.018 29.9836 33.7532 29.9836 33.4893 29.9668C33.2723 29.9668 33.1138 29.9668 33.022 30.2088C32.9884 30.3098 32.9212 30.3963 32.8317 30.454C32.7422 30.5117 32.6356 30.537 32.5297 30.5259C32.4263 30.513 32.329 30.4696 32.2502 30.4012C32.1715 30.3329 32.1149 30.2427 32.0875 30.142C32.0164 29.9664 31.9742 29.7805 31.9624 29.5914C31.9624 29.4495 31.9624 29.3911 32.1459 29.3995H34.0233C34.574 29.3995 34.574 29.3994 34.5239 28.8404C34.4154 27.6139 33.8314 26.913 32.7717 26.8129C32.5281 26.7662 32.2776 26.7689 32.035 26.8209C31.7924 26.8729 31.5628 26.973 31.3597 27.1154C31.1566 27.2579 30.9841 27.4396 30.8526 27.6499C30.7211 27.8602 30.6331 28.0948 30.594 28.3398C30.5073 28.7256 30.482 29.1226 30.5189 29.5163C30.5467 29.994 30.749 30.4449 31.0874 30.7833C31.4258 31.1217 31.8768 31.3241 32.3545 31.3519C32.7705 31.4097 33.1941 31.3352 33.5654 31.1391C33.9368 30.9429 34.237 30.635 34.4238 30.2589C34.5406 30.0669 34.5406 29.9585 34.2819 29.9668ZM32.0291 28.1813C32.0742 28.0379 32.1512 27.9067 32.2544 27.7974C32.2997 27.7487 32.3561 27.7118 32.4189 27.6898C32.4816 27.6679 32.5488 27.6616 32.6146 27.6714C32.6803 27.6813 32.7427 27.707 32.7962 27.7464C32.8498 27.7858 32.8929 27.8377 32.9219 27.8976C32.9919 27.9969 33.0394 28.1104 33.0611 28.23C33.0827 28.3496 33.0779 28.4725 33.047 28.5901C32.9636 28.7486 32.6799 28.5901 32.5214 28.6485H32.3462C31.8539 28.6485 31.8539 28.6485 32.0291 28.1813Z" fill="white"/>
        <path d="M12.6132 24.6018C12.6009 24.4993 12.6009 24.3956 12.6132 24.2931V23.15C12.6132 22.7412 12.6132 22.3156 12.6132 21.9068C12.6195 21.6119 12.5268 21.3234 12.3498 21.0874C12.1729 20.8514 11.9219 20.6816 11.637 20.6052C11.0862 20.4293 10.4891 20.4711 9.96823 20.722C9.763 20.8112 9.58103 20.9464 9.43636 21.1171C9.29169 21.2878 9.18819 21.4895 9.13385 21.7065C9.09213 21.8651 9.13385 21.9402 9.29238 21.9402C9.49244 21.9277 9.69308 21.9277 9.89313 21.9402C10.2352 21.9819 10.5189 21.9402 10.5857 21.5313C10.5857 21.3895 10.7359 21.3394 10.861 21.3394C10.9193 21.3405 10.9754 21.362 11.0196 21.4001C11.0638 21.4382 11.0933 21.4905 11.103 21.548C11.1447 21.6898 11.1697 21.84 11.2031 21.9902C11.2365 22.1404 11.2031 22.2072 11.0195 22.2322C10.4964 22.2699 9.99123 22.4393 9.55104 22.7245C9.26795 22.9112 9.06372 23.1958 8.9775 23.5237C8.89128 23.8517 8.92913 24.1999 9.08379 24.5017C9.26628 24.7601 9.52692 24.9531 9.82735 25.0522C10.1278 25.1514 10.4521 25.1514 10.7525 25.0524C10.9611 24.9773 11.153 24.7019 11.3867 25.0023C11.3867 25.0023 11.4784 25.0023 11.5285 25.0023H12.1793C12.705 25.019 12.6966 25.019 12.6132 24.6018ZM10.6691 24.2097C10.6269 24.2144 10.5843 24.2101 10.5439 24.1971C10.5035 24.1842 10.4663 24.1628 10.4348 24.1344C10.4033 24.106 10.3781 24.0713 10.361 24.0325C10.3438 23.9937 10.3351 23.9517 10.3354 23.9093C10.3535 23.6847 10.445 23.4724 10.5958 23.305C10.7466 23.1376 10.9483 23.0245 11.1697 22.9831C11.2615 22.9831 11.2615 22.9831 11.2615 23.0833V23.6256C11.2448 24.0511 11.103 24.2013 10.6691 24.2097Z" fill="white"/>
        <path d="M13.2473 18.0523V16.7173V15.6994C13.2795 15.4888 13.2636 15.2736 13.2008 15.07C13.1379 14.8665 13.0298 14.6798 12.8844 14.524C12.7391 14.3682 12.5604 14.2474 12.3616 14.1706C12.1629 14.0938 11.9494 14.0631 11.737 14.0807C11.5871 14.0682 11.4364 14.0682 11.2865 14.0807C10.9677 14.1062 10.6629 14.2228 10.4085 14.4165C10.1541 14.6103 9.96068 14.8731 9.85136 15.1737C9.79295 15.3239 9.78461 15.424 9.9932 15.424C10.2018 15.424 10.6524 15.424 10.9861 15.424C11.0092 15.4275 11.0327 15.4264 11.0553 15.4208C11.0779 15.4151 11.0991 15.405 11.1178 15.391C11.1364 15.377 11.1521 15.3594 11.1639 15.3393C11.1757 15.3192 11.1833 15.2969 11.1864 15.2738C11.2364 15.0736 11.3199 14.8399 11.5785 14.865C11.8372 14.89 11.8455 15.1487 11.8956 15.3489C11.8996 15.385 11.8996 15.4213 11.8956 15.4574C11.8956 15.6159 11.8956 15.6827 11.6953 15.7077C11.1754 15.7425 10.6729 15.909 10.2352 16.1916C9.94695 16.3802 9.74101 16.6711 9.65893 17.0056C9.57686 17.3401 9.62475 17.6933 9.79295 17.9939C9.98744 18.2583 10.264 18.4508 10.5795 18.5414C10.895 18.632 11.2317 18.6155 11.5368 18.4945C11.712 18.4194 11.8872 18.1691 12.0958 18.4945C12.0958 18.4945 12.2043 18.4945 12.2544 18.4945H12.8301C12.997 18.4945 13.2055 18.5696 13.3224 18.4945C13.4392 18.4194 13.2389 18.2108 13.2473 18.0523ZM11.8872 17.4265C11.8872 17.6434 11.662 17.6351 11.5285 17.6685C11.395 17.7018 11.178 17.7686 11.0529 17.6101C11.0056 17.5336 10.9805 17.4455 10.9805 17.3556C10.9805 17.2657 11.0056 17.1776 11.0529 17.1011C11.1345 16.9397 11.2522 16.7992 11.3969 16.6907C11.5416 16.5822 11.7094 16.5085 11.8872 16.4753C11.8872 16.8091 11.8956 17.1178 11.8872 17.4265Z" fill="white"/>
    </g>
    <defs>
        <clipPath id="clip0_620_1256">
            <rect width="42.5531" height="42.5531" fill="white" transform="translate(0.481323 0.580078)"/>
        </clipPath>
    </defs>
</svg>
