<svg width="25" height="25" viewBox="0 0 25 25" fill="none" xmlns="http://www.w3.org/2000/svg">
    <rect x="0.965576" y="0.580078" width="24" height="24" rx="12" fill="#B337DE"/>
    <path d="M10.4661 12.5801C10.4661 11.1994 11.585 10.0799 12.9657 10.0799C14.3464 10.0799 15.4659 11.1994 15.4659 12.5801C15.4659 13.9607 14.3464 15.0803 12.9657 15.0803C11.585 15.0803 10.4661 13.9607 10.4661 12.5801ZM9.11454 12.5801C9.11454 14.7071 10.8387 16.4312 12.9657 16.4312C15.0927 16.4312 16.8169 14.7071 16.8169 12.5801C16.8169 10.4531 15.0927 8.72892 12.9657 8.72892C10.8387 8.72892 9.11454 10.4531 9.11454 12.5801ZM16.0693 8.57622C16.0692 8.75422 16.122 8.92825 16.2208 9.07629C16.3196 9.22434 16.4601 9.33975 16.6246 9.40793C16.789 9.47612 16.97 9.49401 17.1445 9.45935C17.3191 9.4247 17.4795 9.33905 17.6055 9.21323C17.7314 9.08741 17.8172 8.92708 17.852 8.75251C17.8868 8.57794 17.869 8.39698 17.8009 8.2325C17.7329 8.06801 17.6176 7.92741 17.4696 7.82846C17.3217 7.7295 17.1477 7.67665 16.9697 7.67658H16.9693C16.7307 7.67669 16.5019 7.7715 16.3332 7.94018C16.1644 8.10886 16.0695 8.33762 16.0693 8.57622ZM9.9357 18.6849C9.20448 18.6516 8.80704 18.5298 8.54292 18.4269C8.19276 18.2906 7.94292 18.1282 7.68024 17.8659C7.41756 17.6036 7.25496 17.354 7.11924 17.0038C7.01628 16.7398 6.89448 16.3423 6.86124 15.611C6.82488 14.8205 6.81762 14.583 6.81762 12.5801C6.81762 10.5773 6.82548 10.3405 6.86124 9.54924C6.89454 8.81802 7.01724 8.42124 7.11924 8.15646C7.25556 7.8063 7.41792 7.55646 7.68024 7.29378C7.94256 7.0311 8.19216 6.8685 8.54292 6.73278C8.80692 6.62982 9.20448 6.50802 9.9357 6.47478C10.7263 6.43842 10.9637 6.43116 12.9657 6.43116C14.9677 6.43116 15.2054 6.43902 15.9966 6.47478C16.7278 6.50808 17.1246 6.63078 17.3894 6.73278C17.7395 6.8685 17.9894 7.03146 18.2521 7.29378C18.5147 7.5561 18.6767 7.8063 18.8131 8.15646C18.916 8.42046 19.0378 8.81802 19.0711 9.54924C19.1074 10.3405 19.1147 10.5773 19.1147 12.5801C19.1147 14.583 19.1074 14.8198 19.0711 15.611C19.0378 16.3423 18.9154 16.7397 18.8131 17.0038C18.6767 17.354 18.5144 17.6038 18.2521 17.8659C17.9897 18.128 17.7395 18.2906 17.3894 18.4269C17.1254 18.5299 16.7278 18.6517 15.9966 18.6849C15.206 18.7213 14.9686 18.7285 12.9657 18.7285C10.9628 18.7285 10.726 18.7213 9.9357 18.6849ZM9.8736 5.1255C9.07518 5.16186 8.5296 5.28846 8.05314 5.47386C7.5597 5.66532 7.14198 5.92218 6.72456 6.33894C6.30714 6.7557 6.05094 7.17408 5.85948 7.66752C5.67408 8.14428 5.54748 8.68956 5.51112 9.48798C5.47416 10.2877 5.4657 10.5433 5.4657 12.5801C5.4657 14.6168 5.47416 14.8725 5.51112 15.6722C5.54748 16.4707 5.67408 17.0159 5.85948 17.4926C6.05094 17.9858 6.3072 18.4046 6.72456 18.8212C7.14192 19.2378 7.5597 19.4943 8.05314 19.6863C8.5305 19.8717 9.07518 19.9983 9.8736 20.0347C10.6737 20.071 10.9289 20.0801 12.9657 20.0801C15.0025 20.0801 15.2581 20.0716 16.0578 20.0347C16.8563 19.9983 17.4015 19.8717 17.8783 19.6863C18.3714 19.4943 18.7894 19.238 19.2068 18.8212C19.6243 18.4045 19.8799 17.9858 20.0719 17.4926C20.2573 17.0159 20.3845 16.4706 20.4203 15.6722C20.4566 14.8719 20.4651 14.6168 20.4651 12.5801C20.4651 10.5433 20.4566 10.2877 20.4203 9.48798C20.3839 8.6895 20.2573 8.14398 20.0719 7.66752C19.8799 7.17438 19.6236 6.75636 19.2068 6.33894C18.7901 5.92152 18.3714 5.66532 17.8789 5.47386C17.4015 5.28846 16.8562 5.16126 16.0584 5.1255C15.2587 5.08914 15.0031 5.08008 12.9663 5.08008C10.9295 5.08008 10.6737 5.08854 9.8736 5.1255Z" fill="white"/>
</svg>
