<svg width="25" height="25" viewBox="0 0 25 25" fill="none" xmlns="http://www.w3.org/2000/svg">
    <rect x="0.965576" y="0.580078" width="24" height="24" rx="12" fill="#B337DE"/>
    <path d="M19.6283 18.2429C18.8408 18.2241 18.072 18.2241 17.2845 18.2429C17.1158 18.2429 17.0783 18.2054 17.0783 18.0366C17.0783 16.6491 17.0783 15.2429 17.0783 13.8554C17.0783 13.5366 17.0595 13.2179 16.9658 12.9179C16.6845 11.9429 15.5595 11.5866 14.7533 12.2429C14.322 12.5804 14.1533 13.0491 14.1533 13.6116C14.1533 14.9241 14.1533 16.2366 14.1533 17.5491C14.1533 17.7179 14.1345 17.8866 14.1533 18.0741C14.172 18.2241 14.097 18.2616 13.9658 18.2429C13.1595 18.2429 12.372 18.2429 11.5658 18.2429C11.4158 18.2429 11.3783 18.2054 11.3783 18.0554C11.397 16.8741 11.397 15.6929 11.397 14.4929C11.397 13.0304 11.397 11.5679 11.3783 10.1241C11.3783 9.95536 11.4158 9.91786 11.5658 9.91786C12.372 9.91786 13.1595 9.91786 13.9658 9.91786C14.1158 9.91786 14.1533 9.95536 14.1533 10.1054C14.1533 10.4054 14.1533 10.7054 14.1533 11.0616C14.2095 11.0054 14.2283 10.9866 14.247 10.9679C14.9783 9.89911 16.0095 9.59911 17.2283 9.78661C18.6345 10.0116 19.5345 10.9866 19.7595 12.4866C19.8158 12.8429 19.8345 13.1991 19.8345 13.5554C19.8345 15.0554 19.8345 16.5366 19.8345 18.0366C19.8345 18.1866 19.797 18.2429 19.6283 18.2429Z" fill="white"/>
    <path d="M9.87795 14.08C9.87795 15.3925 9.87795 16.705 9.87795 18.0175C9.87795 18.1862 9.84045 18.2425 9.6717 18.2425C8.8842 18.2237 8.0967 18.2425 7.3092 18.2425C7.1592 18.2425 7.1217 18.205 7.1217 18.055C7.1217 15.4112 7.1217 12.7487 7.1217 10.105C7.1217 9.97373 7.1592 9.91748 7.3092 9.91748C8.11545 9.91748 8.9217 9.91748 9.72795 9.91748C9.8967 9.91748 9.91545 9.97373 9.91545 10.1237C9.87795 11.4362 9.87795 12.7487 9.87795 14.08Z" fill="white"/>
    <path d="M10.0095 7.74283C9.82198 8.49283 9.05323 8.92408 8.17198 8.77408C7.23448 8.62408 6.70948 7.70533 7.04698 6.80533C7.27198 6.24283 7.81573 5.90533 8.50948 5.92408C9.55948 5.90533 10.2532 6.74908 10.0095 7.74283Z" fill="white"/>
</svg>
