<svg width="43" height="44" viewBox="0 0 43 44" fill="none" xmlns="http://www.w3.org/2000/svg">
    <g clip-path="url(#clip0_620_1229)">
        <path d="M21.2767 42.7158C32.7971 42.7158 42.1361 33.3768 42.1361 21.8564C42.1361 10.3361 32.7971 0.99707 21.2767 0.99707C9.75642 0.99707 0.417358 10.3361 0.417358 21.8564C0.417358 33.3768 9.75642 42.7158 21.2767 42.7158Z" fill="#7C37A0"/>
        <path d="M12.3654 18.0104V21.6232L10.4547 16.4334C10.2378 15.8327 10.7551 16.2165 10.7551 16.2165L11.8481 17.0509C12.0025 17.1733 12.1287 17.3276 12.218 17.5033C12.3073 17.679 12.3576 17.8719 12.3654 18.0688V18.0104ZM10.4547 26.8464L12.3654 21.6232L6.95867 23.4589C6.34123 23.6758 6.74173 23.1752 6.74173 23.1752L7.57611 22.1239C7.7073 21.9724 7.86844 21.8497 8.04937 21.7635C8.23031 21.6774 8.42712 21.6296 8.62742 21.6232C8.42712 21.6169 8.23031 21.5691 8.04937 21.4829C7.86844 21.3968 7.7073 21.2741 7.57611 21.1226L6.74173 20.0713C6.74173 20.0713 6.34123 19.5707 6.95867 19.7793L12.3654 21.6232V25.2361C12.3575 25.4318 12.3071 25.6235 12.2178 25.7978C12.1285 25.9721 12.0023 26.1249 11.8481 26.2457L10.7551 27.08C10.7551 27.08 10.2378 27.4639 10.4547 26.8715" fill="white"/>
        <path d="M33.9257 21.9656V23.1087C33.6714 23.2528 33.3837 23.3276 33.0914 23.3256C32.6325 23.3256 32.3404 23.117 32.3404 22.6998C32.3331 22.5974 32.3542 22.4949 32.4013 22.4037C32.4484 22.3124 32.5197 22.2359 32.6074 22.1825C32.8277 22.0726 33.0705 22.0154 33.3167 22.0156L33.9257 21.9656ZM34.368 24.6439H35.9366C35.8662 24.256 35.8466 23.8605 35.8782 23.4674V20.7724C35.8782 19.3123 35.1189 18.4946 33.2666 18.4946C32.3972 18.4836 31.5382 18.684 30.7635 19.0786L31.3559 20.2801C31.8307 20.0444 32.3527 19.9189 32.8828 19.913C33.5252 19.913 33.9341 20.1383 33.9341 20.6973V20.7641H32.9829C32.434 20.7694 31.8929 20.8947 31.3976 21.1312C31.0809 21.2746 30.8154 21.5112 30.6365 21.8093C30.4576 22.1074 30.3739 22.453 30.3963 22.7999C30.3891 23.0659 30.4369 23.3305 30.5369 23.577C30.6369 23.8235 30.7868 24.0467 30.9773 24.2325C31.1677 24.4182 31.3946 24.5625 31.6436 24.6563C31.8925 24.7501 32.1582 24.7913 32.4239 24.7774C33.0406 24.7865 33.6375 24.5596 34.0926 24.1433L34.368 24.6439ZM26.8586 21.7236C26.7424 21.7241 26.6274 21.7003 26.5209 21.6537C26.4145 21.6072 26.3189 21.5389 26.2404 21.4533C26.1618 21.3677 26.102 21.2666 26.0648 21.1565C26.0276 21.0465 26.0138 20.9299 26.0242 20.8141C26.0113 20.6971 26.0232 20.5787 26.0593 20.4666C26.0954 20.3545 26.1548 20.2513 26.2336 20.1639C26.3124 20.0764 26.4089 20.0066 26.5166 19.959C26.6243 19.9115 26.7408 19.8873 26.8586 19.888C26.9784 19.8889 27.0967 19.9142 27.2064 19.9622C27.3162 20.0103 27.415 20.0801 27.4969 20.1675C27.5788 20.2549 27.6421 20.358 27.683 20.4706C27.7239 20.5832 27.7415 20.7029 27.7347 20.8225C27.7439 20.9375 27.7292 21.0532 27.6914 21.1623C27.6536 21.2714 27.5936 21.3714 27.5152 21.4561C27.4368 21.5408 27.3417 21.6083 27.2358 21.6544C27.13 21.7004 27.0157 21.724 26.9003 21.7236H26.8586ZM27.0422 26.3544C26.091 26.3544 25.5486 26.0123 25.5486 25.52C25.5476 25.4143 25.5695 25.3096 25.6127 25.2131C25.6559 25.1167 25.7194 25.0306 25.7989 24.961C26.408 25.278 28.3021 25.1028 28.3021 25.7954C28.3021 26.1625 27.693 26.3377 27.0255 26.3377L27.0422 26.3544ZM26.7001 27.6477C28.9862 27.6477 30.0376 26.6714 30.0376 25.5951C30.0376 23.3506 26.0993 24.3269 26.0993 23.3089C26.098 23.2175 26.115 23.1267 26.1494 23.0419C26.3733 23.0963 26.6032 23.1215 26.8336 23.117C28.3688 23.117 29.4452 22.2826 29.4452 20.8642C29.4512 20.3836 29.2987 19.9144 29.0113 19.5292C29.1284 19.4979 29.2489 19.481 29.3701 19.4791C29.5417 19.4818 29.7125 19.5042 29.879 19.5459L30.2295 18.2276C30.085 18.2183 29.9401 18.2183 29.7956 18.2276C29.5079 18.198 29.2172 18.2295 28.9426 18.3201C28.6679 18.4107 28.4155 18.5583 28.2019 18.7532C28.1519 18.8116 28.1102 18.8367 28.0517 18.7949C27.6614 18.5993 27.2282 18.5046 26.7918 18.5196C24.9395 18.5196 24.1969 19.7211 24.1969 20.7724C24.1801 21.1544 24.2694 21.5337 24.4549 21.868C24.6405 22.2023 24.9151 22.4787 25.2482 22.6664C25.024 22.7595 24.8285 22.9105 24.6818 23.1041C24.5352 23.2976 24.4427 23.5267 24.4139 23.7678C24.4092 23.9138 24.443 24.0585 24.5118 24.1873C24.5807 24.3162 24.6821 24.4247 24.806 24.5021C24.5186 24.6001 24.2671 24.7822 24.0842 25.0246C23.9012 25.267 23.7952 25.5588 23.7797 25.8621C23.7797 26.8634 24.7977 27.6477 26.6834 27.6477H26.7001ZM13.6421 24.6439H15.5528V20.5304C15.8838 20.29 16.2788 20.1535 16.6876 20.1383C17.3968 20.1383 17.4719 20.6473 17.4719 21.2313V24.6439H19.3826V20.5304C19.7149 20.2866 20.1136 20.1498 20.5257 20.1383C21.2349 20.1383 21.3601 20.6222 21.3601 21.2063V24.6439H23.2708V20.714C23.3095 20.4213 23.2819 20.1237 23.19 19.8432C23.0982 19.5626 22.9444 19.3063 22.7401 19.0932C22.5358 18.8801 22.2862 18.7156 22.0098 18.612C21.7334 18.5084 21.4372 18.4683 21.1431 18.4946C20.3691 18.532 19.6295 18.8255 19.0405 19.3289C18.8649 19.0509 18.6166 18.8261 18.3225 18.679C18.0283 18.5319 17.6996 18.4682 17.3717 18.4946C16.6513 18.5315 15.9614 18.7975 15.4026 19.2539L15.2274 18.6448H13.6421V24.6439Z" fill="white"/>
    </g>
    <defs>
        <clipPath id="clip0_620_1229">
            <rect width="42.5531" height="42.5531" fill="white" transform="translate(0 0.580078)"/>
        </clipPath>
    </defs>
</svg>
