<svg width="44" height="44" viewBox="0 0 44 44" fill="none" xmlns="http://www.w3.org/2000/svg">
    <g clip-path="url(#clip0_620_1236)">
        <path d="M21.9985 42.7158C33.5189 42.7158 42.8579 33.3768 42.8579 21.8564C42.8579 10.3361 33.5189 0.99707 21.9985 0.99707C10.4782 0.99707 1.13916 10.3361 1.13916 21.8564C1.13916 33.3768 10.4782 42.7158 21.9985 42.7158Z" fill="#7C37A0"/>
        <path d="M23.0666 21.0139C23.0666 22.0569 23.0666 22.9163 23.0666 23.7757C23.0666 24.343 22.6911 24.1678 22.4241 24.1595C22.1571 24.1511 21.765 24.3514 21.7816 23.7757C21.7816 22.3405 21.7816 20.9054 21.7816 19.4703C21.7816 19.2116 21.8484 19.1199 22.1321 19.0948C22.4071 19.042 22.6918 19.0753 22.9471 19.1903C23.2025 19.3053 23.4161 19.4963 23.5589 19.7373C24.0929 20.5717 24.727 21.3226 25.4362 22.2404C25.4362 21.2141 25.4362 20.3631 25.4362 19.5204C25.4362 18.978 25.7449 19.0698 26.0453 19.0865C26.3457 19.1032 26.7378 18.9196 26.7211 19.5204C26.7211 20.7803 26.7211 22.0235 26.7211 23.3168C26.7211 23.5838 26.9548 24.051 26.5125 24.1511C26.0703 24.2513 25.5363 24.3597 25.1525 23.8007C24.5184 22.8912 23.8342 22.0402 23.0666 21.0139Z" fill="white"/>
        <path d="M11.2185 21.0476C11.2185 20.522 11.2185 19.9963 11.2185 19.4706C11.2185 19.1953 11.3103 19.1202 11.5856 19.0952C12.5535 19.0284 12.5535 19.0201 12.5535 19.988C12.5535 20.7389 12.5535 21.4982 12.5535 22.2575C12.5535 22.8665 12.8372 23.0918 13.3879 23.0918C13.4981 23.1017 13.6091 23.0866 13.7127 23.0475C13.8162 23.0084 13.9096 22.9465 13.9859 22.8662C14.0621 22.786 14.1192 22.6896 14.1529 22.5841C14.1866 22.4787 14.196 22.367 14.1805 22.2575C14.1805 21.348 14.1805 20.4469 14.1805 19.5374C14.1805 18.945 14.5393 19.0868 14.8397 19.1035C15.14 19.1202 15.5989 18.8866 15.5739 19.5374C15.5239 20.572 15.5739 21.6066 15.4988 22.6329C15.3987 23.801 14.5977 24.3684 13.2627 24.3017C13.0043 24.3299 12.7428 24.3032 12.4954 24.2232C12.248 24.1433 12.0204 24.012 11.8273 23.8378C11.6343 23.6637 11.4802 23.4507 11.3753 23.2129C11.2704 22.975 11.2169 22.7177 11.2185 22.4577C11.2018 22.0238 11.2185 21.5315 11.2185 21.0476Z" fill="white"/>
        <path d="M30.9681 19.1453C31.2209 19.162 31.4745 19.162 31.7274 19.1453C32.2363 19.0702 32.3615 19.2788 32.3448 19.7627C32.3281 20.2467 32.2614 20.3551 31.8191 20.2967C31.5885 20.2842 31.3573 20.2842 31.1266 20.2967C30.8346 20.2967 30.8513 20.4803 30.8513 20.6722C30.8513 20.8641 30.8513 21.0644 31.135 21.056C31.2793 21.0686 31.4245 21.0686 31.5688 21.056C32.1445 20.9559 32.3031 21.1979 32.2614 21.7485C32.2614 22.0906 32.1612 22.2492 31.7858 22.2075C31.5772 22.2075 31.3686 22.2075 31.16 22.2075C30.9514 22.2075 30.8429 22.3994 30.8513 22.6163C30.8596 22.8332 30.8513 23.0669 31.1433 23.0502C31.3127 23.0627 31.4828 23.0627 31.6523 23.0502C32.203 22.9584 32.3949 23.167 32.3448 23.7344C32.3448 24.0598 32.2614 24.2266 31.8859 24.2016C31.2351 24.2016 30.5759 24.2016 29.9251 24.2016C29.608 24.2016 29.4829 24.1182 29.4912 23.7844C29.4912 22.391 29.4912 20.9976 29.4912 19.6125C29.4912 19.2371 29.6164 19.1453 29.9585 19.1703C30.3006 19.1954 30.6343 19.1453 30.9681 19.1453Z" fill="white"/>
        <path d="M34.5643 21.6647C34.5643 21.0139 34.5643 20.3631 34.5643 19.7122C34.5643 19.2867 34.6311 19.1532 35.0983 19.1282C35.7325 19.0865 35.9327 19.27 35.8743 19.9125C35.8075 20.7469 35.8743 21.6396 35.8743 22.4991C35.8743 22.958 36.0078 23.0998 36.4417 23.0331C36.5663 23.0163 36.6925 23.0163 36.8171 23.0331C36.936 23.0271 37.0542 23.0535 37.1593 23.1093C37.2643 23.1651 37.3523 23.2484 37.4139 23.3502C37.4755 23.452 37.5084 23.5685 37.5091 23.6875C37.5098 23.8065 37.4783 23.9234 37.4179 24.026C37.3428 24.1761 37.226 24.1678 37.1092 24.1678C36.3916 24.1678 35.674 24.1678 34.9565 24.1678C34.6227 24.1678 34.5894 24.0093 34.5894 23.7423C34.5727 23.0581 34.5643 22.3572 34.5643 21.6647Z" fill="white"/>
        <path d="M19.4955 21.6649C19.4955 22.3408 19.4955 23.0166 19.4955 23.6924C19.4955 24.3683 19.2035 24.1847 18.8614 24.168C18.5193 24.1514 18.1856 24.3099 18.2023 23.7258C18.2023 22.3324 18.2023 20.9474 18.2023 19.5539C18.2023 18.9699 18.5527 19.1201 18.8614 19.1034C19.1701 19.0867 19.5289 19.0283 19.4955 19.5873C19.4622 20.2799 19.4955 20.9724 19.4955 21.6649Z" fill="white"/>
        <path d="M26.9547 23.0334C28.4482 22.8665 28.757 23.0334 29.5162 24.7021C28.0895 24.8607 27.7223 24.627 26.9547 23.0334Z" fill="white"/>
        <path d="M40.1963 24.7019C38.6443 24.7604 38.3857 24.5851 37.618 23.0332C38.9781 22.8246 39.3619 23.1083 40.1963 24.7019Z" fill="white"/>
        <path d="M18.3273 24.6356C16.8004 25.1863 16.3665 23.9431 15.7407 23.1087C16.8922 22.7416 17.3093 22.9836 18.3273 24.6356Z" fill="white"/>
        <path d="M8.72356 19.8545C8.26066 19.3713 7.64927 19.0569 6.9869 18.9617C6.32453 18.8664 5.64934 18.9957 5.069 19.3289C4.54776 19.6557 4.15316 20.1501 3.94999 20.7308C3.74681 21.3115 3.74715 21.944 3.95094 22.5245C4.16605 23.1123 4.57276 23.6105 5.10555 23.939C5.63834 24.2674 6.26618 24.407 6.88794 24.3351C7.02144 24.3351 7.13825 24.285 7.12991 24.1182C6.95829 23.6318 6.6721 23.194 6.29553 22.8416L6.20375 22.7832C6.24957 22.8412 6.28616 22.9059 6.31222 22.9751C6.01958 22.9197 5.75385 22.7681 5.55731 22.5444C5.36076 22.3206 5.24468 22.0375 5.22753 21.7402C5.19283 21.4666 5.2471 21.189 5.38234 20.9486C5.51757 20.7082 5.72658 20.5176 5.97847 20.4052C6.2106 20.2767 6.47645 20.2223 6.7404 20.2491C7.00435 20.276 7.25379 20.3828 7.45531 20.5554C7.99766 20.9809 8.08944 21.59 7.74734 22.4244L7.65556 22.3743V22.4745C7.85581 22.8916 8.01434 23.3505 8.54 23.4924C8.62887 23.4429 8.71032 23.3811 8.78197 23.3088C9.15257 22.8064 9.34763 22.196 9.33707 21.5718C9.32652 20.9476 9.11094 20.3441 8.72356 19.8545Z" fill="white"/>
        <path d="M7.12991 24.118C6.79546 23.7815 6.51412 23.3961 6.29554 22.9749C6.10363 22.7497 5.66976 22.6329 5.83663 22.2574C6.00351 21.8819 6.38732 22.0404 6.67101 22.0321C6.95469 22.0238 7.50538 21.982 7.71398 22.4243L8.50663 23.4923L9.34101 24.7188C8.52332 24.6604 7.66391 25.0192 7.12991 24.118Z" fill="white"/>
    </g>
    <defs>
        <clipPath id="clip0_620_1236">
            <rect width="42.5531" height="42.5531" fill="white" transform="translate(0.721924 0.580078)"/>
        </clipPath>
    </defs>
</svg>
