<svg width="25" height="25" viewBox="0 0 25 25" fill="none" xmlns="http://www.w3.org/2000/svg">
    <rect x="0.765625" y="0.580078" width="24" height="24" rx="12" fill="#B337DE"/>
    <path d="M18.647 9.98633C18.647 10.1176 18.647 10.2488 18.647 10.3613C18.647 14.2426 15.6845 18.7238 10.2845 18.7238C8.61572 18.7238 7.07822 18.2363 5.76572 17.4113C5.99072 17.4301 6.23447 17.4488 6.45947 17.4488C7.82822 17.4488 9.10322 16.9801 10.1157 16.1926C8.82197 16.1738 7.73447 15.3113 7.37822 14.1488C7.56572 14.1863 7.73447 14.2051 7.94072 14.2051C8.20322 14.2051 8.46572 14.1676 8.70947 14.0926C7.35947 13.8301 6.34697 12.6488 6.34697 11.2238C6.34697 11.2051 6.34697 11.2051 6.34697 11.1863C6.74072 11.4113 7.19072 11.5426 7.67822 11.5613C6.89072 11.0363 6.36572 10.1363 6.36572 9.10508C6.36572 8.56133 6.51572 8.05508 6.75947 7.62383C8.20322 9.40508 10.3782 10.5676 12.8157 10.6988C12.7595 10.4926 12.7407 10.2488 12.7407 10.0238C12.7407 8.39258 14.0532 7.08008 15.6845 7.08008C16.5282 7.08008 17.297 7.43633 17.822 7.99883C18.497 7.86758 19.1157 7.62383 19.697 7.28633C19.472 7.98008 19.0032 8.54258 18.4032 8.91758C19.0032 8.84258 19.5657 8.69258 20.0907 8.44883C19.7157 9.04883 19.2282 9.57383 18.647 9.98633Z" fill="white"/>
</svg>
