<svg width="25" height="25" viewBox="0 0 25 25" fill="none" xmlns="http://www.w3.org/2000/svg">
    <rect x="0.965515" y="0.580078" width="24" height="24" rx="12" fill="#B337DE"/>
    <path d="M12.9655 7.32861C12.9795 7.32861 17.6626 7.32913 18.8347 7.6499C19.4771 7.82293 19.984 8.32972 20.1569 8.97217C20.4781 10.1461 20.4655 12.5923 20.4655 12.5923C20.4655 12.6103 20.4646 15.0301 20.1569 16.1997C19.984 16.8421 19.4771 17.3489 18.8347 17.522C17.6626 17.8304 12.9795 17.8306 12.9655 17.8306C12.9655 17.8306 8.28256 17.8315 7.09637 17.5103C6.45393 17.3373 5.94713 16.8304 5.77411 16.188C5.46521 15.0265 5.46552 12.5796 5.46552 12.5796C5.46553 12.552 5.46706 10.1394 5.77411 8.97217C5.94709 8.32967 6.46624 7.81019 7.09637 7.63721C8.27018 7.32831 12.9655 7.32861 12.9655 7.32861ZM11.4704 14.8286L15.3747 12.5796L11.4704 10.3306V14.8286Z" fill="white"/>
</svg>
